%TF.GenerationSoftware,KiCad,Pcbnew,10.0.6*%
%TF.CreationDate,2026-09-25T17:29:18+02:00*%
%TF.ProjectId,pocketbeagle2_ethernet_cap,706f636b-6574-4626-9561-676c65325f65,rev?*%
%TF.SameCoordinates,Original*%
%TF.FileFunction,Legend,Bot*%
%TF.FilePolarity,Positive*%
%FSLAX46Y46*%
G04 Gerber Fmt 4.6, Leading zero omitted, Abs format (unit mm)*
G04 Created by KiCad (PCBNEW 10.0.6) date 2026-09-25 17:29:18*
%MOMM*%
%LPD*%
G01*
G04 APERTURE LIST*
%ADD10C,0.150000*%
%ADD11C,0.120000*%
%ADD12R,1.700000X1.700000*%
%ADD13C,1.700000*%
%ADD14O,1.700000X1.700000*%
%ADD15C,0.499999*%
%ADD16R,1.000000X1.000000*%
%ADD17C,3.250000*%
%ADD18R,1.478000X1.478000*%
%ADD19C,1.478000*%
%ADD20C,2.475000*%
G04 APERTURE END LIST*
D10*
X196895144Y-105441129D02*
X196895144Y-106155414D01*
X196895144Y-106155414D02*
X196942763Y-106298271D01*
X196942763Y-106298271D02*
X197038001Y-106393510D01*
X197038001Y-106393510D02*
X197180858Y-106441129D01*
X197180858Y-106441129D02*
X197276096Y-106441129D01*
X195895144Y-106441129D02*
X196466572Y-106441129D01*
X196180858Y-106441129D02*
X196180858Y-105441129D01*
X196180858Y-105441129D02*
X196276096Y-105583986D01*
X196276096Y-105583986D02*
X196371334Y-105679224D01*
X196371334Y-105679224D02*
X196466572Y-105726843D01*
X197261904Y-89500319D02*
X196690476Y-89500319D01*
X196976190Y-90500319D02*
X196976190Y-89500319D01*
X196357142Y-90500319D02*
X196357142Y-89500319D01*
X196357142Y-89500319D02*
X195976190Y-89500319D01*
X195976190Y-89500319D02*
X195880952Y-89547938D01*
X195880952Y-89547938D02*
X195833333Y-89595557D01*
X195833333Y-89595557D02*
X195785714Y-89690795D01*
X195785714Y-89690795D02*
X195785714Y-89833652D01*
X195785714Y-89833652D02*
X195833333Y-89928890D01*
X195833333Y-89928890D02*
X195880952Y-89976509D01*
X195880952Y-89976509D02*
X195976190Y-90024128D01*
X195976190Y-90024128D02*
X196357142Y-90024128D01*
X194833333Y-90500319D02*
X195404761Y-90500319D01*
X195119047Y-90500319D02*
X195119047Y-89500319D01*
X195119047Y-89500319D02*
X195214285Y-89643176D01*
X195214285Y-89643176D02*
X195309523Y-89738414D01*
X195309523Y-89738414D02*
X195404761Y-89786033D01*
D11*
X202650000Y-89600000D02*
X202650000Y-91000000D01*
X202650000Y-91000000D02*
X204050000Y-91000000D01*
X204050000Y-89600000D02*
X202650000Y-89600000D01*
X204050000Y-91000000D02*
X204050000Y-89600000D01*
X191800000Y-93100000D02*
X191800000Y-94500000D01*
X191800000Y-94500000D02*
X193200000Y-94500000D01*
X193200000Y-93100000D02*
X191800000Y-93100000D01*
X193200000Y-94500000D02*
X193200000Y-93100000D01*
X187226811Y-95161310D02*
X187226811Y-116811310D01*
X187226811Y-116811310D02*
X205896812Y-116811310D01*
X205896812Y-95161310D02*
X187226811Y-95161310D01*
X205896812Y-116811310D02*
X205896812Y-95161310D01*
X205600000Y-79900000D02*
X205600000Y-81300000D01*
X205600000Y-81300000D02*
X207000000Y-81300000D01*
X207000000Y-79900000D02*
X205600000Y-79900000D01*
X207000000Y-81300000D02*
X207000000Y-79900000D01*
X198900000Y-84850000D02*
X198900000Y-86250000D01*
X198900000Y-86250000D02*
X200300000Y-86250000D01*
X200300000Y-84850000D02*
X198900000Y-84850000D01*
X200300000Y-86250000D02*
X200300000Y-84850000D01*
X195300000Y-91200000D02*
X195300000Y-92600000D01*
X195300000Y-92600000D02*
X196700000Y-92600000D01*
X196700000Y-91200000D02*
X195300000Y-91200000D01*
X196700000Y-92600000D02*
X196700000Y-91200000D01*
%LPC*%
D12*
X182590000Y-61120000D03*
D13*
X185130000Y-61120000D03*
X182590000Y-63660000D03*
X185130000Y-63660000D03*
X182590000Y-66200000D03*
X185130000Y-66200000D03*
X182590000Y-68740000D03*
X185130000Y-68740000D03*
X182590000Y-71280000D03*
X185130000Y-71280000D03*
X182590000Y-73820000D03*
X185130000Y-73820000D03*
X182590000Y-76360000D03*
X185130000Y-76360000D03*
X182590000Y-78900000D03*
X185130000Y-78900000D03*
X182590000Y-81440000D03*
X185130000Y-81440000D03*
X182590000Y-83979999D03*
X185130000Y-83979999D03*
X182590000Y-86520000D03*
X185130000Y-86520000D03*
X182590000Y-89060000D03*
X185130000Y-89060000D03*
X182590000Y-91600000D03*
X185130000Y-91600000D03*
X182590000Y-94140000D03*
X185130000Y-94140000D03*
X182590000Y-96680000D03*
X185130000Y-96680000D03*
X182590000Y-99220000D03*
X185130000Y-99220000D03*
X182590000Y-101759999D03*
X185130000Y-101759999D03*
X182590000Y-104300000D03*
X185130000Y-104300000D03*
D12*
X207990000Y-61120000D03*
D13*
X210530000Y-61120000D03*
X207990000Y-63660000D03*
X210530000Y-63660000D03*
X207990000Y-66200000D03*
X210530000Y-66200000D03*
X207990000Y-68740000D03*
X210530000Y-68740000D03*
X207990000Y-71280000D03*
X210530000Y-71280000D03*
X207990000Y-73820000D03*
X210530000Y-73820000D03*
X207990000Y-76360000D03*
X210530000Y-76360000D03*
X207990000Y-78900000D03*
X210530000Y-78900000D03*
X207990000Y-81440000D03*
X210530000Y-81440000D03*
X207990000Y-83979999D03*
X210530000Y-83979999D03*
X207990000Y-86520000D03*
X210530000Y-86520000D03*
X207990000Y-89060000D03*
X210530000Y-89060000D03*
X207990000Y-91600000D03*
X210530000Y-91600000D03*
X207990000Y-94140000D03*
X210530000Y-94140000D03*
X207990000Y-96680000D03*
X210530000Y-96680000D03*
X207990000Y-99220000D03*
X210530000Y-99220000D03*
X207990000Y-101759999D03*
X210530000Y-101759999D03*
X207990000Y-104300000D03*
X210530000Y-104300000D03*
D12*
X182590000Y-61120000D03*
D14*
X185130000Y-61120000D03*
X182590000Y-63660000D03*
X185130000Y-63660000D03*
X182590000Y-66200000D03*
X185130000Y-66200000D03*
X182590000Y-68740000D03*
X185130000Y-68740000D03*
X182590000Y-71280000D03*
X185130000Y-71280000D03*
X182590000Y-73820000D03*
X185130000Y-73820000D03*
X182590000Y-76360000D03*
X185130000Y-76360000D03*
X182590000Y-78900000D03*
X185130000Y-78900000D03*
X182590000Y-81440000D03*
X185130000Y-81440000D03*
X182590000Y-83980000D03*
X185130000Y-83980000D03*
X182590000Y-86520000D03*
X185130000Y-86520000D03*
X182590000Y-89060000D03*
X185130000Y-89060000D03*
X182590000Y-91600000D03*
X185130000Y-91600000D03*
X182590000Y-94140000D03*
X185130000Y-94140000D03*
X182590000Y-96680000D03*
X185130000Y-96680000D03*
X182590000Y-99220000D03*
X185130000Y-99220000D03*
X182590000Y-101760000D03*
X185130000Y-101760000D03*
X182590000Y-104300000D03*
X185130000Y-104300000D03*
D13*
X207990000Y-61120000D03*
D14*
X210530000Y-61120000D03*
X207990000Y-63660000D03*
X210530000Y-63660000D03*
X207990000Y-66200000D03*
X210530000Y-66200000D03*
X207990000Y-68740000D03*
X210530000Y-68740000D03*
X207990000Y-71280000D03*
X210530000Y-71280000D03*
X207990000Y-73820000D03*
X210530000Y-73820000D03*
X207990000Y-76360000D03*
X210530000Y-76360000D03*
X207990000Y-78900000D03*
X210530000Y-78900000D03*
X207990000Y-81440000D03*
X210530000Y-81440000D03*
X207990000Y-83980000D03*
X210530000Y-83980000D03*
X207990000Y-86520000D03*
X210530000Y-86520000D03*
X207990000Y-89060000D03*
X210530000Y-89060000D03*
X207990000Y-91600000D03*
X210530000Y-91600000D03*
X207990000Y-94140000D03*
X210530000Y-94140000D03*
X207990000Y-96680000D03*
X210530000Y-96680000D03*
X207990000Y-99220000D03*
X210530000Y-99220000D03*
X207990000Y-101760000D03*
X210530000Y-101760000D03*
X207990000Y-104300000D03*
X210530000Y-104300000D03*
D15*
X194609999Y-86675001D03*
X195909999Y-86675001D03*
X197210001Y-86675001D03*
X198510001Y-86675001D03*
X194609999Y-85375001D03*
X195909999Y-85375001D03*
X197210001Y-85375001D03*
X198510001Y-85375001D03*
X195909999Y-84074999D03*
X197210001Y-84074999D03*
X198510001Y-84074999D03*
X194609999Y-84050000D03*
X194635000Y-82774999D03*
X195909999Y-82774999D03*
X197210001Y-82774999D03*
X198510001Y-82774999D03*
D16*
X203350000Y-90300000D03*
X192500000Y-93800000D03*
D17*
X202276811Y-106011310D03*
X190846811Y-106011310D03*
D18*
X202276811Y-97121310D03*
D19*
X201006812Y-99661310D03*
X199736812Y-97121310D03*
X198466811Y-99661310D03*
X197196811Y-97121310D03*
X195926812Y-99661310D03*
X194656811Y-97121310D03*
X193386811Y-99661310D03*
X192116811Y-97121310D03*
X190846811Y-99661310D03*
D20*
X204306812Y-102971310D03*
X188816811Y-102971310D03*
D16*
X206300000Y-80600000D03*
X199600000Y-85550000D03*
X196000000Y-91900000D03*
%LPD*%
M02*
