%TF.GenerationSoftware,KiCad,Pcbnew,10.0.6*%
%TF.CreationDate,2026-09-25T17:29:18+02:00*%
%TF.ProjectId,pocketbeagle2_ethernet_cap,706f636b-6574-4626-9561-676c65325f65,rev?*%
%TF.SameCoordinates,Original*%
%TF.FileFunction,Soldermask,Bot*%
%TF.FilePolarity,Negative*%
%FSLAX46Y46*%
G04 Gerber Fmt 4.6, Leading zero omitted, Abs format (unit mm)*
G04 Created by KiCad (PCBNEW 10.0.6) date 2026-09-25 17:29:18*
%MOMM*%
%LPD*%
G01*
G04 APERTURE LIST*
%ADD10R,1.700000X1.700000*%
%ADD11C,1.700000*%
%ADD12O,1.700000X1.700000*%
%ADD13C,0.499999*%
%ADD14R,1.000000X1.000000*%
%ADD15C,3.250000*%
%ADD16R,1.478000X1.478000*%
%ADD17C,1.478000*%
%ADD18C,2.475000*%
G04 APERTURE END LIST*
D10*
X182590000Y-61120000D03*
D11*
X185130000Y-61120000D03*
X182590000Y-63660000D03*
X185130000Y-63660000D03*
X182590000Y-66200000D03*
X185130000Y-66200000D03*
X182590000Y-68740000D03*
X185130000Y-68740000D03*
X182590000Y-71280000D03*
X185130000Y-71280000D03*
X182590000Y-73820000D03*
X185130000Y-73820000D03*
X182590000Y-76360000D03*
X185130000Y-76360000D03*
X182590000Y-78900000D03*
X185130000Y-78900000D03*
X182590000Y-81440000D03*
X185130000Y-81440000D03*
X182590000Y-83979999D03*
X185130000Y-83979999D03*
X182590000Y-86520000D03*
X185130000Y-86520000D03*
X182590000Y-89060000D03*
X185130000Y-89060000D03*
X182590000Y-91600000D03*
X185130000Y-91600000D03*
X182590000Y-94140000D03*
X185130000Y-94140000D03*
X182590000Y-96680000D03*
X185130000Y-96680000D03*
X182590000Y-99220000D03*
X185130000Y-99220000D03*
X182590000Y-101759999D03*
X185130000Y-101759999D03*
X182590000Y-104300000D03*
X185130000Y-104300000D03*
D10*
X207990000Y-61120000D03*
D11*
X210530000Y-61120000D03*
X207990000Y-63660000D03*
X210530000Y-63660000D03*
X207990000Y-66200000D03*
X210530000Y-66200000D03*
X207990000Y-68740000D03*
X210530000Y-68740000D03*
X207990000Y-71280000D03*
X210530000Y-71280000D03*
X207990000Y-73820000D03*
X210530000Y-73820000D03*
X207990000Y-76360000D03*
X210530000Y-76360000D03*
X207990000Y-78900000D03*
X210530000Y-78900000D03*
X207990000Y-81440000D03*
X210530000Y-81440000D03*
X207990000Y-83979999D03*
X210530000Y-83979999D03*
X207990000Y-86520000D03*
X210530000Y-86520000D03*
X207990000Y-89060000D03*
X210530000Y-89060000D03*
X207990000Y-91600000D03*
X210530000Y-91600000D03*
X207990000Y-94140000D03*
X210530000Y-94140000D03*
X207990000Y-96680000D03*
X210530000Y-96680000D03*
X207990000Y-99220000D03*
X210530000Y-99220000D03*
X207990000Y-101759999D03*
X210530000Y-101759999D03*
X207990000Y-104300000D03*
X210530000Y-104300000D03*
D10*
X182590000Y-61120000D03*
D12*
X185130000Y-61120000D03*
X182590000Y-63660000D03*
X185130000Y-63660000D03*
X182590000Y-66200000D03*
X185130000Y-66200000D03*
X182590000Y-68740000D03*
X185130000Y-68740000D03*
X182590000Y-71280000D03*
X185130000Y-71280000D03*
X182590000Y-73820000D03*
X185130000Y-73820000D03*
X182590000Y-76360000D03*
X185130000Y-76360000D03*
X182590000Y-78900000D03*
X185130000Y-78900000D03*
X182590000Y-81440000D03*
X185130000Y-81440000D03*
X182590000Y-83980000D03*
X185130000Y-83980000D03*
X182590000Y-86520000D03*
X185130000Y-86520000D03*
X182590000Y-89060000D03*
X185130000Y-89060000D03*
X182590000Y-91600000D03*
X185130000Y-91600000D03*
X182590000Y-94140000D03*
X185130000Y-94140000D03*
X182590000Y-96680000D03*
X185130000Y-96680000D03*
X182590000Y-99220000D03*
X185130000Y-99220000D03*
X182590000Y-101760000D03*
X185130000Y-101760000D03*
X182590000Y-104300000D03*
X185130000Y-104300000D03*
D11*
X207990000Y-61120000D03*
D12*
X210530000Y-61120000D03*
X207990000Y-63660000D03*
X210530000Y-63660000D03*
X207990000Y-66200000D03*
X210530000Y-66200000D03*
X207990000Y-68740000D03*
X210530000Y-68740000D03*
X207990000Y-71280000D03*
X210530000Y-71280000D03*
X207990000Y-73820000D03*
X210530000Y-73820000D03*
X207990000Y-76360000D03*
X210530000Y-76360000D03*
X207990000Y-78900000D03*
X210530000Y-78900000D03*
X207990000Y-81440000D03*
X210530000Y-81440000D03*
X207990000Y-83980000D03*
X210530000Y-83980000D03*
X207990000Y-86520000D03*
X210530000Y-86520000D03*
X207990000Y-89060000D03*
X210530000Y-89060000D03*
X207990000Y-91600000D03*
X210530000Y-91600000D03*
X207990000Y-94140000D03*
X210530000Y-94140000D03*
X207990000Y-96680000D03*
X210530000Y-96680000D03*
X207990000Y-99220000D03*
X210530000Y-99220000D03*
X207990000Y-101760000D03*
X210530000Y-101760000D03*
X207990000Y-104300000D03*
X210530000Y-104300000D03*
D13*
X194609999Y-86675001D03*
X195909999Y-86675001D03*
X197210001Y-86675001D03*
X198510001Y-86675001D03*
X194609999Y-85375001D03*
X195909999Y-85375001D03*
X197210001Y-85375001D03*
X198510001Y-85375001D03*
X195909999Y-84074999D03*
X197210001Y-84074999D03*
X198510001Y-84074999D03*
X194609999Y-84050000D03*
X194635000Y-82774999D03*
X195909999Y-82774999D03*
X197210001Y-82774999D03*
X198510001Y-82774999D03*
D14*
X203350000Y-90300000D03*
X192500000Y-93800000D03*
D15*
X202276811Y-106011310D03*
X190846811Y-106011310D03*
D16*
X202276811Y-97121310D03*
D17*
X201006812Y-99661310D03*
X199736812Y-97121310D03*
X198466811Y-99661310D03*
X197196811Y-97121310D03*
X195926812Y-99661310D03*
X194656811Y-97121310D03*
X193386811Y-99661310D03*
X192116811Y-97121310D03*
X190846811Y-99661310D03*
D18*
X204306812Y-102971310D03*
X188816811Y-102971310D03*
D14*
X206300000Y-80600000D03*
X199600000Y-85550000D03*
X196000000Y-91900000D03*
M02*
