%TF.GenerationSoftware,KiCad,Pcbnew,10.0.6*%
%TF.CreationDate,2026-09-25T17:29:18+02:00*%
%TF.ProjectId,pocketbeagle2_ethernet_cap,706f636b-6574-4626-9561-676c65325f65,rev?*%
%TF.SameCoordinates,Original*%
%TF.FileFunction,Legend,Top*%
%TF.FilePolarity,Positive*%
%FSLAX46Y46*%
G04 Gerber Fmt 4.6, Leading zero omitted, Abs format (unit mm)*
G04 Created by KiCad (PCBNEW 10.0.6) date 2026-09-25 17:29:18*
%MOMM*%
%LPD*%
G01*
G04 APERTURE LIST*
G04 Aperture macros list*
%AMRoundRect*
0 Rectangle with rounded corners*
0 $1 Rounding radius*
0 $2 $3 $4 $5 $6 $7 $8 $9 X,Y pos of 4 corners*
0 Add a 4 corners polygon primitive as box body*
4,1,4,$2,$3,$4,$5,$6,$7,$8,$9,$2,$3,0*
0 Add four circle primitives for the rounded corners*
1,1,$1+$1,$2,$3*
1,1,$1+$1,$4,$5*
1,1,$1+$1,$6,$7*
1,1,$1+$1,$8,$9*
0 Add four rect primitives between the rounded corners*
20,1,$1+$1,$2,$3,$4,$5,0*
20,1,$1+$1,$4,$5,$6,$7,0*
20,1,$1+$1,$6,$7,$8,$9,0*
20,1,$1+$1,$8,$9,$2,$3,0*%
G04 Aperture macros list end*
%ADD10C,0.120000*%
%ADD11C,0.150000*%
%ADD12C,0.125000*%
%ADD13RoundRect,0.135000X0.135000X0.185000X-0.135000X0.185000X-0.135000X-0.185000X0.135000X-0.185000X0*%
%ADD14RoundRect,0.243750X-0.243750X-0.456250X0.243750X-0.456250X0.243750X0.456250X-0.243750X0.456250X0*%
%ADD15RoundRect,0.140000X-0.140000X-0.170000X0.140000X-0.170000X0.140000X0.170000X-0.140000X0.170000X0*%
%ADD16RoundRect,0.135000X-0.185000X0.135000X-0.185000X-0.135000X0.185000X-0.135000X0.185000X0.135000X0*%
%ADD17RoundRect,0.150000X-0.512500X-0.150000X0.512500X-0.150000X0.512500X0.150000X-0.512500X0.150000X0*%
%ADD18RoundRect,0.140000X0.140000X0.170000X-0.140000X0.170000X-0.140000X-0.170000X0.140000X-0.170000X0*%
%ADD19RoundRect,0.140000X-0.170000X0.140000X-0.170000X-0.140000X0.170000X-0.140000X0.170000X0.140000X0*%
%ADD20RoundRect,0.140000X0.170000X-0.140000X0.170000X0.140000X-0.170000X0.140000X-0.170000X-0.140000X0*%
%ADD21RoundRect,0.281250X-0.593750X0.281250X-0.593750X-0.281250X0.593750X-0.281250X0.593750X0.281250X0*%
%ADD22R,1.700000X1.700000*%
%ADD23C,1.700000*%
%ADD24RoundRect,0.135000X-0.135000X-0.185000X0.135000X-0.185000X0.135000X0.185000X-0.135000X0.185000X0*%
%ADD25RoundRect,0.150000X0.150000X-0.587500X0.150000X0.587500X-0.150000X0.587500X-0.150000X-0.587500X0*%
%ADD26RoundRect,0.287500X-1.062500X0.287500X-1.062500X-0.287500X1.062500X-0.287500X1.062500X0.287500X0*%
%ADD27RoundRect,0.200000X0.200000X0.250000X-0.200000X0.250000X-0.200000X-0.250000X0.200000X-0.250000X0*%
%ADD28O,1.700000X1.700000*%
%ADD29RoundRect,0.150000X0.512500X0.150000X-0.512500X0.150000X-0.512500X-0.150000X0.512500X-0.150000X0*%
%ADD30RoundRect,0.135000X0.185000X-0.135000X0.185000X0.135000X-0.185000X0.135000X-0.185000X-0.135000X0*%
%ADD31R,0.299999X1.450000*%
%ADD32R,1.450000X0.299999*%
%ADD33R,4.600001X4.600001*%
%ADD34C,0.499999*%
%ADD35R,1.000000X1.000000*%
%ADD36C,3.250000*%
%ADD37R,1.478000X1.478000*%
%ADD38C,1.478000*%
%ADD39C,2.475000*%
G04 APERTURE END LIST*
D10*
X187163855Y-106333260D02*
X187163855Y-105838022D01*
X187163855Y-105838022D02*
X187468617Y-106104688D01*
X187468617Y-106104688D02*
X187468617Y-105990403D01*
X187468617Y-105990403D02*
X187506712Y-105914212D01*
X187506712Y-105914212D02*
X187544807Y-105876117D01*
X187544807Y-105876117D02*
X187620998Y-105838022D01*
X187620998Y-105838022D02*
X187811474Y-105838022D01*
X187811474Y-105838022D02*
X187887664Y-105876117D01*
X187887664Y-105876117D02*
X187925760Y-105914212D01*
X187925760Y-105914212D02*
X187963855Y-105990403D01*
X187963855Y-105990403D02*
X187963855Y-106218974D01*
X187963855Y-106218974D02*
X187925760Y-106295165D01*
X187925760Y-106295165D02*
X187887664Y-106333260D01*
X187163855Y-105152307D02*
X187163855Y-105304688D01*
X187163855Y-105304688D02*
X187201950Y-105380879D01*
X187201950Y-105380879D02*
X187240045Y-105418974D01*
X187240045Y-105418974D02*
X187354331Y-105495164D01*
X187354331Y-105495164D02*
X187506712Y-105533260D01*
X187506712Y-105533260D02*
X187811474Y-105533260D01*
X187811474Y-105533260D02*
X187887664Y-105495164D01*
X187887664Y-105495164D02*
X187925760Y-105457069D01*
X187925760Y-105457069D02*
X187963855Y-105380879D01*
X187963855Y-105380879D02*
X187963855Y-105228498D01*
X187963855Y-105228498D02*
X187925760Y-105152307D01*
X187925760Y-105152307D02*
X187887664Y-105114212D01*
X187887664Y-105114212D02*
X187811474Y-105076117D01*
X187811474Y-105076117D02*
X187620998Y-105076117D01*
X187620998Y-105076117D02*
X187544807Y-105114212D01*
X187544807Y-105114212D02*
X187506712Y-105152307D01*
X187506712Y-105152307D02*
X187468617Y-105228498D01*
X187468617Y-105228498D02*
X187468617Y-105380879D01*
X187468617Y-105380879D02*
X187506712Y-105457069D01*
X187506712Y-105457069D02*
X187544807Y-105495164D01*
X187544807Y-105495164D02*
X187620998Y-105533260D01*
X205740295Y-59623554D02*
X205740295Y-60080697D01*
X205740295Y-59852125D02*
X204940295Y-59852125D01*
X204940295Y-59852125D02*
X205054580Y-59928316D01*
X205054580Y-59928316D02*
X205130771Y-60004506D01*
X205130771Y-60004506D02*
X205168866Y-60080697D01*
X205063855Y-106333260D02*
X205063855Y-105838022D01*
X205063855Y-105838022D02*
X205368617Y-106104688D01*
X205368617Y-106104688D02*
X205368617Y-105990403D01*
X205368617Y-105990403D02*
X205406712Y-105914212D01*
X205406712Y-105914212D02*
X205444807Y-105876117D01*
X205444807Y-105876117D02*
X205520998Y-105838022D01*
X205520998Y-105838022D02*
X205711474Y-105838022D01*
X205711474Y-105838022D02*
X205787664Y-105876117D01*
X205787664Y-105876117D02*
X205825760Y-105914212D01*
X205825760Y-105914212D02*
X205863855Y-105990403D01*
X205863855Y-105990403D02*
X205863855Y-106218974D01*
X205863855Y-106218974D02*
X205825760Y-106295165D01*
X205825760Y-106295165D02*
X205787664Y-106333260D01*
X205063855Y-105114212D02*
X205063855Y-105495164D01*
X205063855Y-105495164D02*
X205444807Y-105533260D01*
X205444807Y-105533260D02*
X205406712Y-105495164D01*
X205406712Y-105495164D02*
X205368617Y-105418974D01*
X205368617Y-105418974D02*
X205368617Y-105228498D01*
X205368617Y-105228498D02*
X205406712Y-105152307D01*
X205406712Y-105152307D02*
X205444807Y-105114212D01*
X205444807Y-105114212D02*
X205520998Y-105076117D01*
X205520998Y-105076117D02*
X205711474Y-105076117D01*
X205711474Y-105076117D02*
X205787664Y-105114212D01*
X205787664Y-105114212D02*
X205825760Y-105152307D01*
X205825760Y-105152307D02*
X205863855Y-105228498D01*
X205863855Y-105228498D02*
X205863855Y-105418974D01*
X205863855Y-105418974D02*
X205825760Y-105495164D01*
X205825760Y-105495164D02*
X205787664Y-105533260D01*
D11*
X183271905Y-107164627D02*
X183271905Y-106164627D01*
X183271905Y-106164627D02*
X183652857Y-106164627D01*
X183652857Y-106164627D02*
X183748095Y-106212246D01*
X183748095Y-106212246D02*
X183795714Y-106259865D01*
X183795714Y-106259865D02*
X183843333Y-106355103D01*
X183843333Y-106355103D02*
X183843333Y-106497960D01*
X183843333Y-106497960D02*
X183795714Y-106593198D01*
X183795714Y-106593198D02*
X183748095Y-106640817D01*
X183748095Y-106640817D02*
X183652857Y-106688436D01*
X183652857Y-106688436D02*
X183271905Y-106688436D01*
X184795714Y-107164627D02*
X184224286Y-107164627D01*
X184510000Y-107164627D02*
X184510000Y-106164627D01*
X184510000Y-106164627D02*
X184414762Y-106307484D01*
X184414762Y-106307484D02*
X184319524Y-106402722D01*
X184319524Y-106402722D02*
X184224286Y-106450341D01*
X208671905Y-107164627D02*
X208671905Y-106164627D01*
X208671905Y-106164627D02*
X209052857Y-106164627D01*
X209052857Y-106164627D02*
X209148095Y-106212246D01*
X209148095Y-106212246D02*
X209195714Y-106259865D01*
X209195714Y-106259865D02*
X209243333Y-106355103D01*
X209243333Y-106355103D02*
X209243333Y-106497960D01*
X209243333Y-106497960D02*
X209195714Y-106593198D01*
X209195714Y-106593198D02*
X209148095Y-106640817D01*
X209148095Y-106640817D02*
X209052857Y-106688436D01*
X209052857Y-106688436D02*
X208671905Y-106688436D01*
X209624286Y-106259865D02*
X209671905Y-106212246D01*
X209671905Y-106212246D02*
X209767143Y-106164627D01*
X209767143Y-106164627D02*
X210005238Y-106164627D01*
X210005238Y-106164627D02*
X210100476Y-106212246D01*
X210100476Y-106212246D02*
X210148095Y-106259865D01*
X210148095Y-106259865D02*
X210195714Y-106355103D01*
X210195714Y-106355103D02*
X210195714Y-106450341D01*
X210195714Y-106450341D02*
X210148095Y-106593198D01*
X210148095Y-106593198D02*
X209576667Y-107164627D01*
X209576667Y-107164627D02*
X210195714Y-107164627D01*
X204557142Y-58400319D02*
X204223809Y-57924128D01*
X203985714Y-58400319D02*
X203985714Y-57400319D01*
X203985714Y-57400319D02*
X204366666Y-57400319D01*
X204366666Y-57400319D02*
X204461904Y-57447938D01*
X204461904Y-57447938D02*
X204509523Y-57495557D01*
X204509523Y-57495557D02*
X204557142Y-57590795D01*
X204557142Y-57590795D02*
X204557142Y-57733652D01*
X204557142Y-57733652D02*
X204509523Y-57828890D01*
X204509523Y-57828890D02*
X204461904Y-57876509D01*
X204461904Y-57876509D02*
X204366666Y-57924128D01*
X204366666Y-57924128D02*
X203985714Y-57924128D01*
X204938095Y-57495557D02*
X204985714Y-57447938D01*
X204985714Y-57447938D02*
X205080952Y-57400319D01*
X205080952Y-57400319D02*
X205319047Y-57400319D01*
X205319047Y-57400319D02*
X205414285Y-57447938D01*
X205414285Y-57447938D02*
X205461904Y-57495557D01*
X205461904Y-57495557D02*
X205509523Y-57590795D01*
X205509523Y-57590795D02*
X205509523Y-57686033D01*
X205509523Y-57686033D02*
X205461904Y-57828890D01*
X205461904Y-57828890D02*
X204890476Y-58400319D01*
X204890476Y-58400319D02*
X205509523Y-58400319D01*
X206128571Y-57400319D02*
X206223809Y-57400319D01*
X206223809Y-57400319D02*
X206319047Y-57447938D01*
X206319047Y-57447938D02*
X206366666Y-57495557D01*
X206366666Y-57495557D02*
X206414285Y-57590795D01*
X206414285Y-57590795D02*
X206461904Y-57781271D01*
X206461904Y-57781271D02*
X206461904Y-58019366D01*
X206461904Y-58019366D02*
X206414285Y-58209842D01*
X206414285Y-58209842D02*
X206366666Y-58305080D01*
X206366666Y-58305080D02*
X206319047Y-58352700D01*
X206319047Y-58352700D02*
X206223809Y-58400319D01*
X206223809Y-58400319D02*
X206128571Y-58400319D01*
X206128571Y-58400319D02*
X206033333Y-58352700D01*
X206033333Y-58352700D02*
X205985714Y-58305080D01*
X205985714Y-58305080D02*
X205938095Y-58209842D01*
X205938095Y-58209842D02*
X205890476Y-58019366D01*
X205890476Y-58019366D02*
X205890476Y-57781271D01*
X205890476Y-57781271D02*
X205938095Y-57590795D01*
X205938095Y-57590795D02*
X205985714Y-57495557D01*
X205985714Y-57495557D02*
X206033333Y-57447938D01*
X206033333Y-57447938D02*
X206128571Y-57400319D01*
X191561905Y-61409319D02*
X191561905Y-60409319D01*
X191561905Y-60409319D02*
X191800000Y-60409319D01*
X191800000Y-60409319D02*
X191942857Y-60456938D01*
X191942857Y-60456938D02*
X192038095Y-60552176D01*
X192038095Y-60552176D02*
X192085714Y-60647414D01*
X192085714Y-60647414D02*
X192133333Y-60837890D01*
X192133333Y-60837890D02*
X192133333Y-60980747D01*
X192133333Y-60980747D02*
X192085714Y-61171223D01*
X192085714Y-61171223D02*
X192038095Y-61266461D01*
X192038095Y-61266461D02*
X191942857Y-61361700D01*
X191942857Y-61361700D02*
X191800000Y-61409319D01*
X191800000Y-61409319D02*
X191561905Y-61409319D01*
X192514286Y-60504557D02*
X192561905Y-60456938D01*
X192561905Y-60456938D02*
X192657143Y-60409319D01*
X192657143Y-60409319D02*
X192895238Y-60409319D01*
X192895238Y-60409319D02*
X192990476Y-60456938D01*
X192990476Y-60456938D02*
X193038095Y-60504557D01*
X193038095Y-60504557D02*
X193085714Y-60599795D01*
X193085714Y-60599795D02*
X193085714Y-60695033D01*
X193085714Y-60695033D02*
X193038095Y-60837890D01*
X193038095Y-60837890D02*
X192466667Y-61409319D01*
X192466667Y-61409319D02*
X193085714Y-61409319D01*
X193754819Y-72920356D02*
X193278628Y-73253689D01*
X193754819Y-73491784D02*
X192754819Y-73491784D01*
X192754819Y-73491784D02*
X192754819Y-73110832D01*
X192754819Y-73110832D02*
X192802438Y-73015594D01*
X192802438Y-73015594D02*
X192850057Y-72967975D01*
X192850057Y-72967975D02*
X192945295Y-72920356D01*
X192945295Y-72920356D02*
X193088152Y-72920356D01*
X193088152Y-72920356D02*
X193183390Y-72967975D01*
X193183390Y-72967975D02*
X193231009Y-73015594D01*
X193231009Y-73015594D02*
X193278628Y-73110832D01*
X193278628Y-73110832D02*
X193278628Y-73491784D01*
X193754819Y-71967975D02*
X193754819Y-72539403D01*
X193754819Y-72253689D02*
X192754819Y-72253689D01*
X192754819Y-72253689D02*
X192897676Y-72348927D01*
X192897676Y-72348927D02*
X192992914Y-72444165D01*
X192992914Y-72444165D02*
X193040533Y-72539403D01*
X192754819Y-71634641D02*
X192754819Y-70967975D01*
X192754819Y-70967975D02*
X193754819Y-71396546D01*
X201358094Y-72450319D02*
X201358094Y-73259842D01*
X201358094Y-73259842D02*
X201405713Y-73355080D01*
X201405713Y-73355080D02*
X201453332Y-73402700D01*
X201453332Y-73402700D02*
X201548570Y-73450319D01*
X201548570Y-73450319D02*
X201739046Y-73450319D01*
X201739046Y-73450319D02*
X201834284Y-73402700D01*
X201834284Y-73402700D02*
X201881903Y-73355080D01*
X201881903Y-73355080D02*
X201929522Y-73259842D01*
X201929522Y-73259842D02*
X201929522Y-72450319D01*
X202310475Y-72450319D02*
X202929522Y-72450319D01*
X202929522Y-72450319D02*
X202596189Y-72831271D01*
X202596189Y-72831271D02*
X202739046Y-72831271D01*
X202739046Y-72831271D02*
X202834284Y-72878890D01*
X202834284Y-72878890D02*
X202881903Y-72926509D01*
X202881903Y-72926509D02*
X202929522Y-73021747D01*
X202929522Y-73021747D02*
X202929522Y-73259842D01*
X202929522Y-73259842D02*
X202881903Y-73355080D01*
X202881903Y-73355080D02*
X202834284Y-73402700D01*
X202834284Y-73402700D02*
X202739046Y-73450319D01*
X202739046Y-73450319D02*
X202453332Y-73450319D01*
X202453332Y-73450319D02*
X202358094Y-73402700D01*
X202358094Y-73402700D02*
X202310475Y-73355080D01*
X184691905Y-57992319D02*
X184691905Y-56992319D01*
X184691905Y-56992319D02*
X184930000Y-56992319D01*
X184930000Y-56992319D02*
X185072857Y-57039938D01*
X185072857Y-57039938D02*
X185168095Y-57135176D01*
X185168095Y-57135176D02*
X185215714Y-57230414D01*
X185215714Y-57230414D02*
X185263333Y-57420890D01*
X185263333Y-57420890D02*
X185263333Y-57563747D01*
X185263333Y-57563747D02*
X185215714Y-57754223D01*
X185215714Y-57754223D02*
X185168095Y-57849461D01*
X185168095Y-57849461D02*
X185072857Y-57944700D01*
X185072857Y-57944700D02*
X184930000Y-57992319D01*
X184930000Y-57992319D02*
X184691905Y-57992319D01*
X186215714Y-57992319D02*
X185644286Y-57992319D01*
X185930000Y-57992319D02*
X185930000Y-56992319D01*
X185930000Y-56992319D02*
X185834762Y-57135176D01*
X185834762Y-57135176D02*
X185739524Y-57230414D01*
X185739524Y-57230414D02*
X185644286Y-57278033D01*
X199374580Y-73816666D02*
X199422200Y-73864285D01*
X199422200Y-73864285D02*
X199469819Y-74007142D01*
X199469819Y-74007142D02*
X199469819Y-74102380D01*
X199469819Y-74102380D02*
X199422200Y-74245237D01*
X199422200Y-74245237D02*
X199326961Y-74340475D01*
X199326961Y-74340475D02*
X199231723Y-74388094D01*
X199231723Y-74388094D02*
X199041247Y-74435713D01*
X199041247Y-74435713D02*
X198898390Y-74435713D01*
X198898390Y-74435713D02*
X198707914Y-74388094D01*
X198707914Y-74388094D02*
X198612676Y-74340475D01*
X198612676Y-74340475D02*
X198517438Y-74245237D01*
X198517438Y-74245237D02*
X198469819Y-74102380D01*
X198469819Y-74102380D02*
X198469819Y-74007142D01*
X198469819Y-74007142D02*
X198517438Y-73864285D01*
X198517438Y-73864285D02*
X198565057Y-73816666D01*
X198469819Y-72959523D02*
X198469819Y-73149999D01*
X198469819Y-73149999D02*
X198517438Y-73245237D01*
X198517438Y-73245237D02*
X198565057Y-73292856D01*
X198565057Y-73292856D02*
X198707914Y-73388094D01*
X198707914Y-73388094D02*
X198898390Y-73435713D01*
X198898390Y-73435713D02*
X199279342Y-73435713D01*
X199279342Y-73435713D02*
X199374580Y-73388094D01*
X199374580Y-73388094D02*
X199422200Y-73340475D01*
X199422200Y-73340475D02*
X199469819Y-73245237D01*
X199469819Y-73245237D02*
X199469819Y-73054761D01*
X199469819Y-73054761D02*
X199422200Y-72959523D01*
X199422200Y-72959523D02*
X199374580Y-72911904D01*
X199374580Y-72911904D02*
X199279342Y-72864285D01*
X199279342Y-72864285D02*
X199041247Y-72864285D01*
X199041247Y-72864285D02*
X198946009Y-72911904D01*
X198946009Y-72911904D02*
X198898390Y-72959523D01*
X198898390Y-72959523D02*
X198850771Y-73054761D01*
X198850771Y-73054761D02*
X198850771Y-73245237D01*
X198850771Y-73245237D02*
X198898390Y-73340475D01*
X198898390Y-73340475D02*
X198946009Y-73388094D01*
X198946009Y-73388094D02*
X199041247Y-73435713D01*
X190924642Y-101923569D02*
X190591309Y-101447378D01*
X190353214Y-101923569D02*
X190353214Y-100923569D01*
X190353214Y-100923569D02*
X190734166Y-100923569D01*
X190734166Y-100923569D02*
X190829404Y-100971188D01*
X190829404Y-100971188D02*
X190877023Y-101018807D01*
X190877023Y-101018807D02*
X190924642Y-101114045D01*
X190924642Y-101114045D02*
X190924642Y-101256902D01*
X190924642Y-101256902D02*
X190877023Y-101352140D01*
X190877023Y-101352140D02*
X190829404Y-101399759D01*
X190829404Y-101399759D02*
X190734166Y-101447378D01*
X190734166Y-101447378D02*
X190353214Y-101447378D01*
X191305595Y-101018807D02*
X191353214Y-100971188D01*
X191353214Y-100971188D02*
X191448452Y-100923569D01*
X191448452Y-100923569D02*
X191686547Y-100923569D01*
X191686547Y-100923569D02*
X191781785Y-100971188D01*
X191781785Y-100971188D02*
X191829404Y-101018807D01*
X191829404Y-101018807D02*
X191877023Y-101114045D01*
X191877023Y-101114045D02*
X191877023Y-101209283D01*
X191877023Y-101209283D02*
X191829404Y-101352140D01*
X191829404Y-101352140D02*
X191257976Y-101923569D01*
X191257976Y-101923569D02*
X191877023Y-101923569D01*
X192353214Y-101923569D02*
X192543690Y-101923569D01*
X192543690Y-101923569D02*
X192638928Y-101875950D01*
X192638928Y-101875950D02*
X192686547Y-101828330D01*
X192686547Y-101828330D02*
X192781785Y-101685473D01*
X192781785Y-101685473D02*
X192829404Y-101494997D01*
X192829404Y-101494997D02*
X192829404Y-101114045D01*
X192829404Y-101114045D02*
X192781785Y-101018807D01*
X192781785Y-101018807D02*
X192734166Y-100971188D01*
X192734166Y-100971188D02*
X192638928Y-100923569D01*
X192638928Y-100923569D02*
X192448452Y-100923569D01*
X192448452Y-100923569D02*
X192353214Y-100971188D01*
X192353214Y-100971188D02*
X192305595Y-101018807D01*
X192305595Y-101018807D02*
X192257976Y-101114045D01*
X192257976Y-101114045D02*
X192257976Y-101352140D01*
X192257976Y-101352140D02*
X192305595Y-101447378D01*
X192305595Y-101447378D02*
X192353214Y-101494997D01*
X192353214Y-101494997D02*
X192448452Y-101542616D01*
X192448452Y-101542616D02*
X192638928Y-101542616D01*
X192638928Y-101542616D02*
X192734166Y-101494997D01*
X192734166Y-101494997D02*
X192781785Y-101447378D01*
X192781785Y-101447378D02*
X192829404Y-101352140D01*
X202399580Y-103195357D02*
X202447200Y-103242976D01*
X202447200Y-103242976D02*
X202494819Y-103385833D01*
X202494819Y-103385833D02*
X202494819Y-103481071D01*
X202494819Y-103481071D02*
X202447200Y-103623928D01*
X202447200Y-103623928D02*
X202351961Y-103719166D01*
X202351961Y-103719166D02*
X202256723Y-103766785D01*
X202256723Y-103766785D02*
X202066247Y-103814404D01*
X202066247Y-103814404D02*
X201923390Y-103814404D01*
X201923390Y-103814404D02*
X201732914Y-103766785D01*
X201732914Y-103766785D02*
X201637676Y-103719166D01*
X201637676Y-103719166D02*
X201542438Y-103623928D01*
X201542438Y-103623928D02*
X201494819Y-103481071D01*
X201494819Y-103481071D02*
X201494819Y-103385833D01*
X201494819Y-103385833D02*
X201542438Y-103242976D01*
X201542438Y-103242976D02*
X201590057Y-103195357D01*
X201494819Y-102862023D02*
X201494819Y-102242976D01*
X201494819Y-102242976D02*
X201875771Y-102576309D01*
X201875771Y-102576309D02*
X201875771Y-102433452D01*
X201875771Y-102433452D02*
X201923390Y-102338214D01*
X201923390Y-102338214D02*
X201971009Y-102290595D01*
X201971009Y-102290595D02*
X202066247Y-102242976D01*
X202066247Y-102242976D02*
X202304342Y-102242976D01*
X202304342Y-102242976D02*
X202399580Y-102290595D01*
X202399580Y-102290595D02*
X202447200Y-102338214D01*
X202447200Y-102338214D02*
X202494819Y-102433452D01*
X202494819Y-102433452D02*
X202494819Y-102719166D01*
X202494819Y-102719166D02*
X202447200Y-102814404D01*
X202447200Y-102814404D02*
X202399580Y-102862023D01*
X201590057Y-101862023D02*
X201542438Y-101814404D01*
X201542438Y-101814404D02*
X201494819Y-101719166D01*
X201494819Y-101719166D02*
X201494819Y-101481071D01*
X201494819Y-101481071D02*
X201542438Y-101385833D01*
X201542438Y-101385833D02*
X201590057Y-101338214D01*
X201590057Y-101338214D02*
X201685295Y-101290595D01*
X201685295Y-101290595D02*
X201780533Y-101290595D01*
X201780533Y-101290595D02*
X201923390Y-101338214D01*
X201923390Y-101338214D02*
X202494819Y-101909642D01*
X202494819Y-101909642D02*
X202494819Y-101290595D01*
X188089819Y-65765357D02*
X187613628Y-66098690D01*
X188089819Y-66336785D02*
X187089819Y-66336785D01*
X187089819Y-66336785D02*
X187089819Y-65955833D01*
X187089819Y-65955833D02*
X187137438Y-65860595D01*
X187137438Y-65860595D02*
X187185057Y-65812976D01*
X187185057Y-65812976D02*
X187280295Y-65765357D01*
X187280295Y-65765357D02*
X187423152Y-65765357D01*
X187423152Y-65765357D02*
X187518390Y-65812976D01*
X187518390Y-65812976D02*
X187566009Y-65860595D01*
X187566009Y-65860595D02*
X187613628Y-65955833D01*
X187613628Y-65955833D02*
X187613628Y-66336785D01*
X188089819Y-64812976D02*
X188089819Y-65384404D01*
X188089819Y-65098690D02*
X187089819Y-65098690D01*
X187089819Y-65098690D02*
X187232676Y-65193928D01*
X187232676Y-65193928D02*
X187327914Y-65289166D01*
X187327914Y-65289166D02*
X187375533Y-65384404D01*
X187089819Y-64479642D02*
X187089819Y-63860595D01*
X187089819Y-63860595D02*
X187470771Y-64193928D01*
X187470771Y-64193928D02*
X187470771Y-64051071D01*
X187470771Y-64051071D02*
X187518390Y-63955833D01*
X187518390Y-63955833D02*
X187566009Y-63908214D01*
X187566009Y-63908214D02*
X187661247Y-63860595D01*
X187661247Y-63860595D02*
X187899342Y-63860595D01*
X187899342Y-63860595D02*
X187994580Y-63908214D01*
X187994580Y-63908214D02*
X188042200Y-63955833D01*
X188042200Y-63955833D02*
X188089819Y-64051071D01*
X188089819Y-64051071D02*
X188089819Y-64336785D01*
X188089819Y-64336785D02*
X188042200Y-64432023D01*
X188042200Y-64432023D02*
X187994580Y-64479642D01*
D12*
X183526666Y-58196119D02*
X183526666Y-58910404D01*
X183526666Y-58910404D02*
X183479047Y-59053261D01*
X183479047Y-59053261D02*
X183383809Y-59148500D01*
X183383809Y-59148500D02*
X183240952Y-59196119D01*
X183240952Y-59196119D02*
X183145714Y-59196119D01*
X183955238Y-58291357D02*
X184002857Y-58243738D01*
X184002857Y-58243738D02*
X184098095Y-58196119D01*
X184098095Y-58196119D02*
X184336190Y-58196119D01*
X184336190Y-58196119D02*
X184431428Y-58243738D01*
X184431428Y-58243738D02*
X184479047Y-58291357D01*
X184479047Y-58291357D02*
X184526666Y-58386595D01*
X184526666Y-58386595D02*
X184526666Y-58481833D01*
X184526666Y-58481833D02*
X184479047Y-58624690D01*
X184479047Y-58624690D02*
X183907619Y-59196119D01*
X183907619Y-59196119D02*
X184526666Y-59196119D01*
D11*
X204333333Y-72680319D02*
X204000000Y-72204128D01*
X203761905Y-72680319D02*
X203761905Y-71680319D01*
X203761905Y-71680319D02*
X204142857Y-71680319D01*
X204142857Y-71680319D02*
X204238095Y-71727938D01*
X204238095Y-71727938D02*
X204285714Y-71775557D01*
X204285714Y-71775557D02*
X204333333Y-71870795D01*
X204333333Y-71870795D02*
X204333333Y-72013652D01*
X204333333Y-72013652D02*
X204285714Y-72108890D01*
X204285714Y-72108890D02*
X204238095Y-72156509D01*
X204238095Y-72156509D02*
X204142857Y-72204128D01*
X204142857Y-72204128D02*
X203761905Y-72204128D01*
X204809524Y-72680319D02*
X205000000Y-72680319D01*
X205000000Y-72680319D02*
X205095238Y-72632700D01*
X205095238Y-72632700D02*
X205142857Y-72585080D01*
X205142857Y-72585080D02*
X205238095Y-72442223D01*
X205238095Y-72442223D02*
X205285714Y-72251747D01*
X205285714Y-72251747D02*
X205285714Y-71870795D01*
X205285714Y-71870795D02*
X205238095Y-71775557D01*
X205238095Y-71775557D02*
X205190476Y-71727938D01*
X205190476Y-71727938D02*
X205095238Y-71680319D01*
X205095238Y-71680319D02*
X204904762Y-71680319D01*
X204904762Y-71680319D02*
X204809524Y-71727938D01*
X204809524Y-71727938D02*
X204761905Y-71775557D01*
X204761905Y-71775557D02*
X204714286Y-71870795D01*
X204714286Y-71870795D02*
X204714286Y-72108890D01*
X204714286Y-72108890D02*
X204761905Y-72204128D01*
X204761905Y-72204128D02*
X204809524Y-72251747D01*
X204809524Y-72251747D02*
X204904762Y-72299366D01*
X204904762Y-72299366D02*
X205095238Y-72299366D01*
X205095238Y-72299366D02*
X205190476Y-72251747D01*
X205190476Y-72251747D02*
X205238095Y-72204128D01*
X205238095Y-72204128D02*
X205285714Y-72108890D01*
X201679761Y-65634557D02*
X201584523Y-65586938D01*
X201584523Y-65586938D02*
X201489285Y-65491700D01*
X201489285Y-65491700D02*
X201346428Y-65348842D01*
X201346428Y-65348842D02*
X201251190Y-65301223D01*
X201251190Y-65301223D02*
X201155952Y-65301223D01*
X201203571Y-65539319D02*
X201108333Y-65491700D01*
X201108333Y-65491700D02*
X201013095Y-65396461D01*
X201013095Y-65396461D02*
X200965476Y-65205985D01*
X200965476Y-65205985D02*
X200965476Y-64872652D01*
X200965476Y-64872652D02*
X201013095Y-64682176D01*
X201013095Y-64682176D02*
X201108333Y-64586938D01*
X201108333Y-64586938D02*
X201203571Y-64539319D01*
X201203571Y-64539319D02*
X201394047Y-64539319D01*
X201394047Y-64539319D02*
X201489285Y-64586938D01*
X201489285Y-64586938D02*
X201584523Y-64682176D01*
X201584523Y-64682176D02*
X201632142Y-64872652D01*
X201632142Y-64872652D02*
X201632142Y-65205985D01*
X201632142Y-65205985D02*
X201584523Y-65396461D01*
X201584523Y-65396461D02*
X201489285Y-65491700D01*
X201489285Y-65491700D02*
X201394047Y-65539319D01*
X201394047Y-65539319D02*
X201203571Y-65539319D01*
X202584523Y-65539319D02*
X202013095Y-65539319D01*
X202298809Y-65539319D02*
X202298809Y-64539319D01*
X202298809Y-64539319D02*
X202203571Y-64682176D01*
X202203571Y-64682176D02*
X202108333Y-64777414D01*
X202108333Y-64777414D02*
X202013095Y-64825033D01*
X199154642Y-88559580D02*
X199107023Y-88607200D01*
X199107023Y-88607200D02*
X198964166Y-88654819D01*
X198964166Y-88654819D02*
X198868928Y-88654819D01*
X198868928Y-88654819D02*
X198726071Y-88607200D01*
X198726071Y-88607200D02*
X198630833Y-88511961D01*
X198630833Y-88511961D02*
X198583214Y-88416723D01*
X198583214Y-88416723D02*
X198535595Y-88226247D01*
X198535595Y-88226247D02*
X198535595Y-88083390D01*
X198535595Y-88083390D02*
X198583214Y-87892914D01*
X198583214Y-87892914D02*
X198630833Y-87797676D01*
X198630833Y-87797676D02*
X198726071Y-87702438D01*
X198726071Y-87702438D02*
X198868928Y-87654819D01*
X198868928Y-87654819D02*
X198964166Y-87654819D01*
X198964166Y-87654819D02*
X199107023Y-87702438D01*
X199107023Y-87702438D02*
X199154642Y-87750057D01*
X200107023Y-88654819D02*
X199535595Y-88654819D01*
X199821309Y-88654819D02*
X199821309Y-87654819D01*
X199821309Y-87654819D02*
X199726071Y-87797676D01*
X199726071Y-87797676D02*
X199630833Y-87892914D01*
X199630833Y-87892914D02*
X199535595Y-87940533D01*
X200964166Y-87988152D02*
X200964166Y-88654819D01*
X200726071Y-87607200D02*
X200487976Y-88321485D01*
X200487976Y-88321485D02*
X201107023Y-88321485D01*
X188500833Y-82329319D02*
X188167500Y-81853128D01*
X187929405Y-82329319D02*
X187929405Y-81329319D01*
X187929405Y-81329319D02*
X188310357Y-81329319D01*
X188310357Y-81329319D02*
X188405595Y-81376938D01*
X188405595Y-81376938D02*
X188453214Y-81424557D01*
X188453214Y-81424557D02*
X188500833Y-81519795D01*
X188500833Y-81519795D02*
X188500833Y-81662652D01*
X188500833Y-81662652D02*
X188453214Y-81757890D01*
X188453214Y-81757890D02*
X188405595Y-81805509D01*
X188405595Y-81805509D02*
X188310357Y-81853128D01*
X188310357Y-81853128D02*
X187929405Y-81853128D01*
X189405595Y-81329319D02*
X188929405Y-81329319D01*
X188929405Y-81329319D02*
X188881786Y-81805509D01*
X188881786Y-81805509D02*
X188929405Y-81757890D01*
X188929405Y-81757890D02*
X189024643Y-81710271D01*
X189024643Y-81710271D02*
X189262738Y-81710271D01*
X189262738Y-81710271D02*
X189357976Y-81757890D01*
X189357976Y-81757890D02*
X189405595Y-81805509D01*
X189405595Y-81805509D02*
X189453214Y-81900747D01*
X189453214Y-81900747D02*
X189453214Y-82138842D01*
X189453214Y-82138842D02*
X189405595Y-82234080D01*
X189405595Y-82234080D02*
X189357976Y-82281700D01*
X189357976Y-82281700D02*
X189262738Y-82329319D01*
X189262738Y-82329319D02*
X189024643Y-82329319D01*
X189024643Y-82329319D02*
X188929405Y-82281700D01*
X188929405Y-82281700D02*
X188881786Y-82234080D01*
D12*
X208926666Y-58196119D02*
X208926666Y-58910404D01*
X208926666Y-58910404D02*
X208879047Y-59053261D01*
X208879047Y-59053261D02*
X208783809Y-59148500D01*
X208783809Y-59148500D02*
X208640952Y-59196119D01*
X208640952Y-59196119D02*
X208545714Y-59196119D01*
X209307619Y-58196119D02*
X209926666Y-58196119D01*
X209926666Y-58196119D02*
X209593333Y-58577071D01*
X209593333Y-58577071D02*
X209736190Y-58577071D01*
X209736190Y-58577071D02*
X209831428Y-58624690D01*
X209831428Y-58624690D02*
X209879047Y-58672309D01*
X209879047Y-58672309D02*
X209926666Y-58767547D01*
X209926666Y-58767547D02*
X209926666Y-59005642D01*
X209926666Y-59005642D02*
X209879047Y-59100880D01*
X209879047Y-59100880D02*
X209831428Y-59148500D01*
X209831428Y-59148500D02*
X209736190Y-59196119D01*
X209736190Y-59196119D02*
X209450476Y-59196119D01*
X209450476Y-59196119D02*
X209355238Y-59148500D01*
X209355238Y-59148500D02*
X209307619Y-59100880D01*
D11*
X192343333Y-95424080D02*
X192295714Y-95471700D01*
X192295714Y-95471700D02*
X192152857Y-95519319D01*
X192152857Y-95519319D02*
X192057619Y-95519319D01*
X192057619Y-95519319D02*
X191914762Y-95471700D01*
X191914762Y-95471700D02*
X191819524Y-95376461D01*
X191819524Y-95376461D02*
X191771905Y-95281223D01*
X191771905Y-95281223D02*
X191724286Y-95090747D01*
X191724286Y-95090747D02*
X191724286Y-94947890D01*
X191724286Y-94947890D02*
X191771905Y-94757414D01*
X191771905Y-94757414D02*
X191819524Y-94662176D01*
X191819524Y-94662176D02*
X191914762Y-94566938D01*
X191914762Y-94566938D02*
X192057619Y-94519319D01*
X192057619Y-94519319D02*
X192152857Y-94519319D01*
X192152857Y-94519319D02*
X192295714Y-94566938D01*
X192295714Y-94566938D02*
X192343333Y-94614557D01*
X193295714Y-95519319D02*
X192724286Y-95519319D01*
X193010000Y-95519319D02*
X193010000Y-94519319D01*
X193010000Y-94519319D02*
X192914762Y-94662176D01*
X192914762Y-94662176D02*
X192819524Y-94757414D01*
X192819524Y-94757414D02*
X192724286Y-94805033D01*
X188454819Y-87930357D02*
X187978628Y-88263690D01*
X188454819Y-88501785D02*
X187454819Y-88501785D01*
X187454819Y-88501785D02*
X187454819Y-88120833D01*
X187454819Y-88120833D02*
X187502438Y-88025595D01*
X187502438Y-88025595D02*
X187550057Y-87977976D01*
X187550057Y-87977976D02*
X187645295Y-87930357D01*
X187645295Y-87930357D02*
X187788152Y-87930357D01*
X187788152Y-87930357D02*
X187883390Y-87977976D01*
X187883390Y-87977976D02*
X187931009Y-88025595D01*
X187931009Y-88025595D02*
X187978628Y-88120833D01*
X187978628Y-88120833D02*
X187978628Y-88501785D01*
X187454819Y-87597023D02*
X187454819Y-86977976D01*
X187454819Y-86977976D02*
X187835771Y-87311309D01*
X187835771Y-87311309D02*
X187835771Y-87168452D01*
X187835771Y-87168452D02*
X187883390Y-87073214D01*
X187883390Y-87073214D02*
X187931009Y-87025595D01*
X187931009Y-87025595D02*
X188026247Y-86977976D01*
X188026247Y-86977976D02*
X188264342Y-86977976D01*
X188264342Y-86977976D02*
X188359580Y-87025595D01*
X188359580Y-87025595D02*
X188407200Y-87073214D01*
X188407200Y-87073214D02*
X188454819Y-87168452D01*
X188454819Y-87168452D02*
X188454819Y-87454166D01*
X188454819Y-87454166D02*
X188407200Y-87549404D01*
X188407200Y-87549404D02*
X188359580Y-87597023D01*
X188454819Y-86025595D02*
X188454819Y-86597023D01*
X188454819Y-86311309D02*
X187454819Y-86311309D01*
X187454819Y-86311309D02*
X187597676Y-86406547D01*
X187597676Y-86406547D02*
X187692914Y-86501785D01*
X187692914Y-86501785D02*
X187740533Y-86597023D01*
X191754819Y-72920356D02*
X191278628Y-73253689D01*
X191754819Y-73491784D02*
X190754819Y-73491784D01*
X190754819Y-73491784D02*
X190754819Y-73110832D01*
X190754819Y-73110832D02*
X190802438Y-73015594D01*
X190802438Y-73015594D02*
X190850057Y-72967975D01*
X190850057Y-72967975D02*
X190945295Y-72920356D01*
X190945295Y-72920356D02*
X191088152Y-72920356D01*
X191088152Y-72920356D02*
X191183390Y-72967975D01*
X191183390Y-72967975D02*
X191231009Y-73015594D01*
X191231009Y-73015594D02*
X191278628Y-73110832D01*
X191278628Y-73110832D02*
X191278628Y-73491784D01*
X191754819Y-71967975D02*
X191754819Y-72539403D01*
X191754819Y-72253689D02*
X190754819Y-72253689D01*
X190754819Y-72253689D02*
X190897676Y-72348927D01*
X190897676Y-72348927D02*
X190992914Y-72444165D01*
X190992914Y-72444165D02*
X191040533Y-72539403D01*
X191754819Y-71491784D02*
X191754819Y-71301308D01*
X191754819Y-71301308D02*
X191707200Y-71206070D01*
X191707200Y-71206070D02*
X191659580Y-71158451D01*
X191659580Y-71158451D02*
X191516723Y-71063213D01*
X191516723Y-71063213D02*
X191326247Y-71015594D01*
X191326247Y-71015594D02*
X190945295Y-71015594D01*
X190945295Y-71015594D02*
X190850057Y-71063213D01*
X190850057Y-71063213D02*
X190802438Y-71110832D01*
X190802438Y-71110832D02*
X190754819Y-71206070D01*
X190754819Y-71206070D02*
X190754819Y-71396546D01*
X190754819Y-71396546D02*
X190802438Y-71491784D01*
X190802438Y-71491784D02*
X190850057Y-71539403D01*
X190850057Y-71539403D02*
X190945295Y-71587022D01*
X190945295Y-71587022D02*
X191183390Y-71587022D01*
X191183390Y-71587022D02*
X191278628Y-71539403D01*
X191278628Y-71539403D02*
X191326247Y-71491784D01*
X191326247Y-71491784D02*
X191373866Y-71396546D01*
X191373866Y-71396546D02*
X191373866Y-71206070D01*
X191373866Y-71206070D02*
X191326247Y-71110832D01*
X191326247Y-71110832D02*
X191278628Y-71063213D01*
X191278628Y-71063213D02*
X191183390Y-71015594D01*
X192989319Y-85042857D02*
X192513128Y-85376190D01*
X192989319Y-85614285D02*
X191989319Y-85614285D01*
X191989319Y-85614285D02*
X191989319Y-85233333D01*
X191989319Y-85233333D02*
X192036938Y-85138095D01*
X192036938Y-85138095D02*
X192084557Y-85090476D01*
X192084557Y-85090476D02*
X192179795Y-85042857D01*
X192179795Y-85042857D02*
X192322652Y-85042857D01*
X192322652Y-85042857D02*
X192417890Y-85090476D01*
X192417890Y-85090476D02*
X192465509Y-85138095D01*
X192465509Y-85138095D02*
X192513128Y-85233333D01*
X192513128Y-85233333D02*
X192513128Y-85614285D01*
X191989319Y-84709523D02*
X191989319Y-84090476D01*
X191989319Y-84090476D02*
X192370271Y-84423809D01*
X192370271Y-84423809D02*
X192370271Y-84280952D01*
X192370271Y-84280952D02*
X192417890Y-84185714D01*
X192417890Y-84185714D02*
X192465509Y-84138095D01*
X192465509Y-84138095D02*
X192560747Y-84090476D01*
X192560747Y-84090476D02*
X192798842Y-84090476D01*
X192798842Y-84090476D02*
X192894080Y-84138095D01*
X192894080Y-84138095D02*
X192941700Y-84185714D01*
X192941700Y-84185714D02*
X192989319Y-84280952D01*
X192989319Y-84280952D02*
X192989319Y-84566666D01*
X192989319Y-84566666D02*
X192941700Y-84661904D01*
X192941700Y-84661904D02*
X192894080Y-84709523D01*
X191989319Y-83471428D02*
X191989319Y-83376190D01*
X191989319Y-83376190D02*
X192036938Y-83280952D01*
X192036938Y-83280952D02*
X192084557Y-83233333D01*
X192084557Y-83233333D02*
X192179795Y-83185714D01*
X192179795Y-83185714D02*
X192370271Y-83138095D01*
X192370271Y-83138095D02*
X192608366Y-83138095D01*
X192608366Y-83138095D02*
X192798842Y-83185714D01*
X192798842Y-83185714D02*
X192894080Y-83233333D01*
X192894080Y-83233333D02*
X192941700Y-83280952D01*
X192941700Y-83280952D02*
X192989319Y-83376190D01*
X192989319Y-83376190D02*
X192989319Y-83471428D01*
X192989319Y-83471428D02*
X192941700Y-83566666D01*
X192941700Y-83566666D02*
X192894080Y-83614285D01*
X192894080Y-83614285D02*
X192798842Y-83661904D01*
X192798842Y-83661904D02*
X192608366Y-83709523D01*
X192608366Y-83709523D02*
X192370271Y-83709523D01*
X192370271Y-83709523D02*
X192179795Y-83661904D01*
X192179795Y-83661904D02*
X192084557Y-83614285D01*
X192084557Y-83614285D02*
X192036938Y-83566666D01*
X192036938Y-83566666D02*
X191989319Y-83471428D01*
X188450833Y-74580319D02*
X188117500Y-74104128D01*
X187879405Y-74580319D02*
X187879405Y-73580319D01*
X187879405Y-73580319D02*
X188260357Y-73580319D01*
X188260357Y-73580319D02*
X188355595Y-73627938D01*
X188355595Y-73627938D02*
X188403214Y-73675557D01*
X188403214Y-73675557D02*
X188450833Y-73770795D01*
X188450833Y-73770795D02*
X188450833Y-73913652D01*
X188450833Y-73913652D02*
X188403214Y-74008890D01*
X188403214Y-74008890D02*
X188355595Y-74056509D01*
X188355595Y-74056509D02*
X188260357Y-74104128D01*
X188260357Y-74104128D02*
X187879405Y-74104128D01*
X188784167Y-73580319D02*
X189450833Y-73580319D01*
X189450833Y-73580319D02*
X189022262Y-74580319D01*
D12*
X180118095Y-55276119D02*
X180118095Y-56085642D01*
X180118095Y-56085642D02*
X180165714Y-56180880D01*
X180165714Y-56180880D02*
X180213333Y-56228500D01*
X180213333Y-56228500D02*
X180308571Y-56276119D01*
X180308571Y-56276119D02*
X180499047Y-56276119D01*
X180499047Y-56276119D02*
X180594285Y-56228500D01*
X180594285Y-56228500D02*
X180641904Y-56180880D01*
X180641904Y-56180880D02*
X180689523Y-56085642D01*
X180689523Y-56085642D02*
X180689523Y-55276119D01*
X181689523Y-56276119D02*
X181118095Y-56276119D01*
X181403809Y-56276119D02*
X181403809Y-55276119D01*
X181403809Y-55276119D02*
X181308571Y-55418976D01*
X181308571Y-55418976D02*
X181213333Y-55514214D01*
X181213333Y-55514214D02*
X181118095Y-55561833D01*
D11*
X191659641Y-93642080D02*
X191612022Y-93689700D01*
X191612022Y-93689700D02*
X191469165Y-93737319D01*
X191469165Y-93737319D02*
X191373927Y-93737319D01*
X191373927Y-93737319D02*
X191231070Y-93689700D01*
X191231070Y-93689700D02*
X191135832Y-93594461D01*
X191135832Y-93594461D02*
X191088213Y-93499223D01*
X191088213Y-93499223D02*
X191040594Y-93308747D01*
X191040594Y-93308747D02*
X191040594Y-93165890D01*
X191040594Y-93165890D02*
X191088213Y-92975414D01*
X191088213Y-92975414D02*
X191135832Y-92880176D01*
X191135832Y-92880176D02*
X191231070Y-92784938D01*
X191231070Y-92784938D02*
X191373927Y-92737319D01*
X191373927Y-92737319D02*
X191469165Y-92737319D01*
X191469165Y-92737319D02*
X191612022Y-92784938D01*
X191612022Y-92784938D02*
X191659641Y-92832557D01*
X192612022Y-93737319D02*
X192040594Y-93737319D01*
X192326308Y-93737319D02*
X192326308Y-92737319D01*
X192326308Y-92737319D02*
X192231070Y-92880176D01*
X192231070Y-92880176D02*
X192135832Y-92975414D01*
X192135832Y-92975414D02*
X192040594Y-93023033D01*
X192945356Y-92737319D02*
X193612022Y-92737319D01*
X193612022Y-92737319D02*
X193183451Y-93737319D01*
X199898095Y-94779819D02*
X199898095Y-95589342D01*
X199898095Y-95589342D02*
X199945714Y-95684580D01*
X199945714Y-95684580D02*
X199993333Y-95732200D01*
X199993333Y-95732200D02*
X200088571Y-95779819D01*
X200088571Y-95779819D02*
X200279047Y-95779819D01*
X200279047Y-95779819D02*
X200374285Y-95732200D01*
X200374285Y-95732200D02*
X200421904Y-95684580D01*
X200421904Y-95684580D02*
X200469523Y-95589342D01*
X200469523Y-95589342D02*
X200469523Y-94779819D01*
X201374285Y-95113152D02*
X201374285Y-95779819D01*
X201136190Y-94732200D02*
X200898095Y-95446485D01*
X200898095Y-95446485D02*
X201517142Y-95446485D01*
X204092142Y-65789319D02*
X203758809Y-65313128D01*
X203520714Y-65789319D02*
X203520714Y-64789319D01*
X203520714Y-64789319D02*
X203901666Y-64789319D01*
X203901666Y-64789319D02*
X203996904Y-64836938D01*
X203996904Y-64836938D02*
X204044523Y-64884557D01*
X204044523Y-64884557D02*
X204092142Y-64979795D01*
X204092142Y-64979795D02*
X204092142Y-65122652D01*
X204092142Y-65122652D02*
X204044523Y-65217890D01*
X204044523Y-65217890D02*
X203996904Y-65265509D01*
X203996904Y-65265509D02*
X203901666Y-65313128D01*
X203901666Y-65313128D02*
X203520714Y-65313128D01*
X204473095Y-64884557D02*
X204520714Y-64836938D01*
X204520714Y-64836938D02*
X204615952Y-64789319D01*
X204615952Y-64789319D02*
X204854047Y-64789319D01*
X204854047Y-64789319D02*
X204949285Y-64836938D01*
X204949285Y-64836938D02*
X204996904Y-64884557D01*
X204996904Y-64884557D02*
X205044523Y-64979795D01*
X205044523Y-64979795D02*
X205044523Y-65075033D01*
X205044523Y-65075033D02*
X204996904Y-65217890D01*
X204996904Y-65217890D02*
X204425476Y-65789319D01*
X204425476Y-65789319D02*
X205044523Y-65789319D01*
X205996904Y-65789319D02*
X205425476Y-65789319D01*
X205711190Y-65789319D02*
X205711190Y-64789319D01*
X205711190Y-64789319D02*
X205615952Y-64932176D01*
X205615952Y-64932176D02*
X205520714Y-65027414D01*
X205520714Y-65027414D02*
X205425476Y-65075033D01*
X192539320Y-65942857D02*
X192063129Y-66276190D01*
X192539320Y-66514285D02*
X191539320Y-66514285D01*
X191539320Y-66514285D02*
X191539320Y-66133333D01*
X191539320Y-66133333D02*
X191586939Y-66038095D01*
X191586939Y-66038095D02*
X191634558Y-65990476D01*
X191634558Y-65990476D02*
X191729796Y-65942857D01*
X191729796Y-65942857D02*
X191872653Y-65942857D01*
X191872653Y-65942857D02*
X191967891Y-65990476D01*
X191967891Y-65990476D02*
X192015510Y-66038095D01*
X192015510Y-66038095D02*
X192063129Y-66133333D01*
X192063129Y-66133333D02*
X192063129Y-66514285D01*
X191634558Y-65561904D02*
X191586939Y-65514285D01*
X191586939Y-65514285D02*
X191539320Y-65419047D01*
X191539320Y-65419047D02*
X191539320Y-65180952D01*
X191539320Y-65180952D02*
X191586939Y-65085714D01*
X191586939Y-65085714D02*
X191634558Y-65038095D01*
X191634558Y-65038095D02*
X191729796Y-64990476D01*
X191729796Y-64990476D02*
X191825034Y-64990476D01*
X191825034Y-64990476D02*
X191967891Y-65038095D01*
X191967891Y-65038095D02*
X192539320Y-65609523D01*
X192539320Y-65609523D02*
X192539320Y-64990476D01*
X191872653Y-64133333D02*
X192539320Y-64133333D01*
X191491701Y-64371428D02*
X192205986Y-64609523D01*
X192205986Y-64609523D02*
X192205986Y-63990476D01*
X194135595Y-76675319D02*
X194135595Y-77484842D01*
X194135595Y-77484842D02*
X194183214Y-77580080D01*
X194183214Y-77580080D02*
X194230833Y-77627700D01*
X194230833Y-77627700D02*
X194326071Y-77675319D01*
X194326071Y-77675319D02*
X194516547Y-77675319D01*
X194516547Y-77675319D02*
X194611785Y-77627700D01*
X194611785Y-77627700D02*
X194659404Y-77580080D01*
X194659404Y-77580080D02*
X194707023Y-77484842D01*
X194707023Y-77484842D02*
X194707023Y-76675319D01*
X195135595Y-76770557D02*
X195183214Y-76722938D01*
X195183214Y-76722938D02*
X195278452Y-76675319D01*
X195278452Y-76675319D02*
X195516547Y-76675319D01*
X195516547Y-76675319D02*
X195611785Y-76722938D01*
X195611785Y-76722938D02*
X195659404Y-76770557D01*
X195659404Y-76770557D02*
X195707023Y-76865795D01*
X195707023Y-76865795D02*
X195707023Y-76961033D01*
X195707023Y-76961033D02*
X195659404Y-77103890D01*
X195659404Y-77103890D02*
X195087976Y-77675319D01*
X195087976Y-77675319D02*
X195707023Y-77675319D01*
X198083333Y-92559580D02*
X198035714Y-92607200D01*
X198035714Y-92607200D02*
X197892857Y-92654819D01*
X197892857Y-92654819D02*
X197797619Y-92654819D01*
X197797619Y-92654819D02*
X197654762Y-92607200D01*
X197654762Y-92607200D02*
X197559524Y-92511961D01*
X197559524Y-92511961D02*
X197511905Y-92416723D01*
X197511905Y-92416723D02*
X197464286Y-92226247D01*
X197464286Y-92226247D02*
X197464286Y-92083390D01*
X197464286Y-92083390D02*
X197511905Y-91892914D01*
X197511905Y-91892914D02*
X197559524Y-91797676D01*
X197559524Y-91797676D02*
X197654762Y-91702438D01*
X197654762Y-91702438D02*
X197797619Y-91654819D01*
X197797619Y-91654819D02*
X197892857Y-91654819D01*
X197892857Y-91654819D02*
X198035714Y-91702438D01*
X198035714Y-91702438D02*
X198083333Y-91750057D01*
X198416667Y-91654819D02*
X199083333Y-91654819D01*
X199083333Y-91654819D02*
X198654762Y-92654819D01*
X189657142Y-78889319D02*
X189323809Y-78413128D01*
X189085714Y-78889319D02*
X189085714Y-77889319D01*
X189085714Y-77889319D02*
X189466666Y-77889319D01*
X189466666Y-77889319D02*
X189561904Y-77936938D01*
X189561904Y-77936938D02*
X189609523Y-77984557D01*
X189609523Y-77984557D02*
X189657142Y-78079795D01*
X189657142Y-78079795D02*
X189657142Y-78222652D01*
X189657142Y-78222652D02*
X189609523Y-78317890D01*
X189609523Y-78317890D02*
X189561904Y-78365509D01*
X189561904Y-78365509D02*
X189466666Y-78413128D01*
X189466666Y-78413128D02*
X189085714Y-78413128D01*
X190609523Y-78889319D02*
X190038095Y-78889319D01*
X190323809Y-78889319D02*
X190323809Y-77889319D01*
X190323809Y-77889319D02*
X190228571Y-78032176D01*
X190228571Y-78032176D02*
X190133333Y-78127414D01*
X190133333Y-78127414D02*
X190038095Y-78175033D01*
X190990476Y-77984557D02*
X191038095Y-77936938D01*
X191038095Y-77936938D02*
X191133333Y-77889319D01*
X191133333Y-77889319D02*
X191371428Y-77889319D01*
X191371428Y-77889319D02*
X191466666Y-77936938D01*
X191466666Y-77936938D02*
X191514285Y-77984557D01*
X191514285Y-77984557D02*
X191561904Y-78079795D01*
X191561904Y-78079795D02*
X191561904Y-78175033D01*
X191561904Y-78175033D02*
X191514285Y-78317890D01*
X191514285Y-78317890D02*
X190942857Y-78889319D01*
X190942857Y-78889319D02*
X191561904Y-78889319D01*
X203870319Y-70300357D02*
X203394128Y-70633690D01*
X203870319Y-70871785D02*
X202870319Y-70871785D01*
X202870319Y-70871785D02*
X202870319Y-70490833D01*
X202870319Y-70490833D02*
X202917938Y-70395595D01*
X202917938Y-70395595D02*
X202965557Y-70347976D01*
X202965557Y-70347976D02*
X203060795Y-70300357D01*
X203060795Y-70300357D02*
X203203652Y-70300357D01*
X203203652Y-70300357D02*
X203298890Y-70347976D01*
X203298890Y-70347976D02*
X203346509Y-70395595D01*
X203346509Y-70395595D02*
X203394128Y-70490833D01*
X203394128Y-70490833D02*
X203394128Y-70871785D01*
X203870319Y-69347976D02*
X203870319Y-69919404D01*
X203870319Y-69633690D02*
X202870319Y-69633690D01*
X202870319Y-69633690D02*
X203013176Y-69728928D01*
X203013176Y-69728928D02*
X203108414Y-69824166D01*
X203108414Y-69824166D02*
X203156033Y-69919404D01*
X202870319Y-68728928D02*
X202870319Y-68633690D01*
X202870319Y-68633690D02*
X202917938Y-68538452D01*
X202917938Y-68538452D02*
X202965557Y-68490833D01*
X202965557Y-68490833D02*
X203060795Y-68443214D01*
X203060795Y-68443214D02*
X203251271Y-68395595D01*
X203251271Y-68395595D02*
X203489366Y-68395595D01*
X203489366Y-68395595D02*
X203679842Y-68443214D01*
X203679842Y-68443214D02*
X203775080Y-68490833D01*
X203775080Y-68490833D02*
X203822700Y-68538452D01*
X203822700Y-68538452D02*
X203870319Y-68633690D01*
X203870319Y-68633690D02*
X203870319Y-68728928D01*
X203870319Y-68728928D02*
X203822700Y-68824166D01*
X203822700Y-68824166D02*
X203775080Y-68871785D01*
X203775080Y-68871785D02*
X203679842Y-68919404D01*
X203679842Y-68919404D02*
X203489366Y-68967023D01*
X203489366Y-68967023D02*
X203251271Y-68967023D01*
X203251271Y-68967023D02*
X203060795Y-68919404D01*
X203060795Y-68919404D02*
X202965557Y-68871785D01*
X202965557Y-68871785D02*
X202917938Y-68824166D01*
X202917938Y-68824166D02*
X202870319Y-68728928D01*
X198604761Y-65634557D02*
X198509523Y-65586938D01*
X198509523Y-65586938D02*
X198414285Y-65491700D01*
X198414285Y-65491700D02*
X198271428Y-65348842D01*
X198271428Y-65348842D02*
X198176190Y-65301223D01*
X198176190Y-65301223D02*
X198080952Y-65301223D01*
X198128571Y-65539319D02*
X198033333Y-65491700D01*
X198033333Y-65491700D02*
X197938095Y-65396461D01*
X197938095Y-65396461D02*
X197890476Y-65205985D01*
X197890476Y-65205985D02*
X197890476Y-64872652D01*
X197890476Y-64872652D02*
X197938095Y-64682176D01*
X197938095Y-64682176D02*
X198033333Y-64586938D01*
X198033333Y-64586938D02*
X198128571Y-64539319D01*
X198128571Y-64539319D02*
X198319047Y-64539319D01*
X198319047Y-64539319D02*
X198414285Y-64586938D01*
X198414285Y-64586938D02*
X198509523Y-64682176D01*
X198509523Y-64682176D02*
X198557142Y-64872652D01*
X198557142Y-64872652D02*
X198557142Y-65205985D01*
X198557142Y-65205985D02*
X198509523Y-65396461D01*
X198509523Y-65396461D02*
X198414285Y-65491700D01*
X198414285Y-65491700D02*
X198319047Y-65539319D01*
X198319047Y-65539319D02*
X198128571Y-65539319D01*
X198938095Y-64634557D02*
X198985714Y-64586938D01*
X198985714Y-64586938D02*
X199080952Y-64539319D01*
X199080952Y-64539319D02*
X199319047Y-64539319D01*
X199319047Y-64539319D02*
X199414285Y-64586938D01*
X199414285Y-64586938D02*
X199461904Y-64634557D01*
X199461904Y-64634557D02*
X199509523Y-64729795D01*
X199509523Y-64729795D02*
X199509523Y-64825033D01*
X199509523Y-64825033D02*
X199461904Y-64967890D01*
X199461904Y-64967890D02*
X198890476Y-65539319D01*
X198890476Y-65539319D02*
X199509523Y-65539319D01*
X195637319Y-72920356D02*
X195161128Y-73253689D01*
X195637319Y-73491784D02*
X194637319Y-73491784D01*
X194637319Y-73491784D02*
X194637319Y-73110832D01*
X194637319Y-73110832D02*
X194684938Y-73015594D01*
X194684938Y-73015594D02*
X194732557Y-72967975D01*
X194732557Y-72967975D02*
X194827795Y-72920356D01*
X194827795Y-72920356D02*
X194970652Y-72920356D01*
X194970652Y-72920356D02*
X195065890Y-72967975D01*
X195065890Y-72967975D02*
X195113509Y-73015594D01*
X195113509Y-73015594D02*
X195161128Y-73110832D01*
X195161128Y-73110832D02*
X195161128Y-73491784D01*
X195637319Y-71967975D02*
X195637319Y-72539403D01*
X195637319Y-72253689D02*
X194637319Y-72253689D01*
X194637319Y-72253689D02*
X194780176Y-72348927D01*
X194780176Y-72348927D02*
X194875414Y-72444165D01*
X194875414Y-72444165D02*
X194923033Y-72539403D01*
X194637319Y-71063213D02*
X194637319Y-71539403D01*
X194637319Y-71539403D02*
X195113509Y-71587022D01*
X195113509Y-71587022D02*
X195065890Y-71539403D01*
X195065890Y-71539403D02*
X195018271Y-71444165D01*
X195018271Y-71444165D02*
X195018271Y-71206070D01*
X195018271Y-71206070D02*
X195065890Y-71110832D01*
X195065890Y-71110832D02*
X195113509Y-71063213D01*
X195113509Y-71063213D02*
X195208747Y-71015594D01*
X195208747Y-71015594D02*
X195446842Y-71015594D01*
X195446842Y-71015594D02*
X195542080Y-71063213D01*
X195542080Y-71063213D02*
X195589700Y-71110832D01*
X195589700Y-71110832D02*
X195637319Y-71206070D01*
X195637319Y-71206070D02*
X195637319Y-71444165D01*
X195637319Y-71444165D02*
X195589700Y-71539403D01*
X195589700Y-71539403D02*
X195542080Y-71587022D01*
X189668333Y-62680320D02*
X189335000Y-62204129D01*
X189096905Y-62680320D02*
X189096905Y-61680320D01*
X189096905Y-61680320D02*
X189477857Y-61680320D01*
X189477857Y-61680320D02*
X189573095Y-61727939D01*
X189573095Y-61727939D02*
X189620714Y-61775558D01*
X189620714Y-61775558D02*
X189668333Y-61870796D01*
X189668333Y-61870796D02*
X189668333Y-62013653D01*
X189668333Y-62013653D02*
X189620714Y-62108891D01*
X189620714Y-62108891D02*
X189573095Y-62156510D01*
X189573095Y-62156510D02*
X189477857Y-62204129D01*
X189477857Y-62204129D02*
X189096905Y-62204129D01*
X190239762Y-62108891D02*
X190144524Y-62061272D01*
X190144524Y-62061272D02*
X190096905Y-62013653D01*
X190096905Y-62013653D02*
X190049286Y-61918415D01*
X190049286Y-61918415D02*
X190049286Y-61870796D01*
X190049286Y-61870796D02*
X190096905Y-61775558D01*
X190096905Y-61775558D02*
X190144524Y-61727939D01*
X190144524Y-61727939D02*
X190239762Y-61680320D01*
X190239762Y-61680320D02*
X190430238Y-61680320D01*
X190430238Y-61680320D02*
X190525476Y-61727939D01*
X190525476Y-61727939D02*
X190573095Y-61775558D01*
X190573095Y-61775558D02*
X190620714Y-61870796D01*
X190620714Y-61870796D02*
X190620714Y-61918415D01*
X190620714Y-61918415D02*
X190573095Y-62013653D01*
X190573095Y-62013653D02*
X190525476Y-62061272D01*
X190525476Y-62061272D02*
X190430238Y-62108891D01*
X190430238Y-62108891D02*
X190239762Y-62108891D01*
X190239762Y-62108891D02*
X190144524Y-62156510D01*
X190144524Y-62156510D02*
X190096905Y-62204129D01*
X190096905Y-62204129D02*
X190049286Y-62299367D01*
X190049286Y-62299367D02*
X190049286Y-62489843D01*
X190049286Y-62489843D02*
X190096905Y-62585081D01*
X190096905Y-62585081D02*
X190144524Y-62632701D01*
X190144524Y-62632701D02*
X190239762Y-62680320D01*
X190239762Y-62680320D02*
X190430238Y-62680320D01*
X190430238Y-62680320D02*
X190525476Y-62632701D01*
X190525476Y-62632701D02*
X190573095Y-62585081D01*
X190573095Y-62585081D02*
X190620714Y-62489843D01*
X190620714Y-62489843D02*
X190620714Y-62299367D01*
X190620714Y-62299367D02*
X190573095Y-62204129D01*
X190573095Y-62204129D02*
X190525476Y-62156510D01*
X190525476Y-62156510D02*
X190430238Y-62108891D01*
X200133333Y-85834580D02*
X200085714Y-85882200D01*
X200085714Y-85882200D02*
X199942857Y-85929819D01*
X199942857Y-85929819D02*
X199847619Y-85929819D01*
X199847619Y-85929819D02*
X199704762Y-85882200D01*
X199704762Y-85882200D02*
X199609524Y-85786961D01*
X199609524Y-85786961D02*
X199561905Y-85691723D01*
X199561905Y-85691723D02*
X199514286Y-85501247D01*
X199514286Y-85501247D02*
X199514286Y-85358390D01*
X199514286Y-85358390D02*
X199561905Y-85167914D01*
X199561905Y-85167914D02*
X199609524Y-85072676D01*
X199609524Y-85072676D02*
X199704762Y-84977438D01*
X199704762Y-84977438D02*
X199847619Y-84929819D01*
X199847619Y-84929819D02*
X199942857Y-84929819D01*
X199942857Y-84929819D02*
X200085714Y-84977438D01*
X200085714Y-84977438D02*
X200133333Y-85025057D01*
X200609524Y-85929819D02*
X200800000Y-85929819D01*
X200800000Y-85929819D02*
X200895238Y-85882200D01*
X200895238Y-85882200D02*
X200942857Y-85834580D01*
X200942857Y-85834580D02*
X201038095Y-85691723D01*
X201038095Y-85691723D02*
X201085714Y-85501247D01*
X201085714Y-85501247D02*
X201085714Y-85120295D01*
X201085714Y-85120295D02*
X201038095Y-85025057D01*
X201038095Y-85025057D02*
X200990476Y-84977438D01*
X200990476Y-84977438D02*
X200895238Y-84929819D01*
X200895238Y-84929819D02*
X200704762Y-84929819D01*
X200704762Y-84929819D02*
X200609524Y-84977438D01*
X200609524Y-84977438D02*
X200561905Y-85025057D01*
X200561905Y-85025057D02*
X200514286Y-85120295D01*
X200514286Y-85120295D02*
X200514286Y-85358390D01*
X200514286Y-85358390D02*
X200561905Y-85453628D01*
X200561905Y-85453628D02*
X200609524Y-85501247D01*
X200609524Y-85501247D02*
X200704762Y-85548866D01*
X200704762Y-85548866D02*
X200895238Y-85548866D01*
X200895238Y-85548866D02*
X200990476Y-85501247D01*
X200990476Y-85501247D02*
X201038095Y-85453628D01*
X201038095Y-85453628D02*
X201085714Y-85358390D01*
X195104761Y-65634557D02*
X195009523Y-65586938D01*
X195009523Y-65586938D02*
X194914285Y-65491700D01*
X194914285Y-65491700D02*
X194771428Y-65348842D01*
X194771428Y-65348842D02*
X194676190Y-65301223D01*
X194676190Y-65301223D02*
X194580952Y-65301223D01*
X194628571Y-65539319D02*
X194533333Y-65491700D01*
X194533333Y-65491700D02*
X194438095Y-65396461D01*
X194438095Y-65396461D02*
X194390476Y-65205985D01*
X194390476Y-65205985D02*
X194390476Y-64872652D01*
X194390476Y-64872652D02*
X194438095Y-64682176D01*
X194438095Y-64682176D02*
X194533333Y-64586938D01*
X194533333Y-64586938D02*
X194628571Y-64539319D01*
X194628571Y-64539319D02*
X194819047Y-64539319D01*
X194819047Y-64539319D02*
X194914285Y-64586938D01*
X194914285Y-64586938D02*
X195009523Y-64682176D01*
X195009523Y-64682176D02*
X195057142Y-64872652D01*
X195057142Y-64872652D02*
X195057142Y-65205985D01*
X195057142Y-65205985D02*
X195009523Y-65396461D01*
X195009523Y-65396461D02*
X194914285Y-65491700D01*
X194914285Y-65491700D02*
X194819047Y-65539319D01*
X194819047Y-65539319D02*
X194628571Y-65539319D01*
X195390476Y-64539319D02*
X196009523Y-64539319D01*
X196009523Y-64539319D02*
X195676190Y-64920271D01*
X195676190Y-64920271D02*
X195819047Y-64920271D01*
X195819047Y-64920271D02*
X195914285Y-64967890D01*
X195914285Y-64967890D02*
X195961904Y-65015509D01*
X195961904Y-65015509D02*
X196009523Y-65110747D01*
X196009523Y-65110747D02*
X196009523Y-65348842D01*
X196009523Y-65348842D02*
X195961904Y-65444080D01*
X195961904Y-65444080D02*
X195914285Y-65491700D01*
X195914285Y-65491700D02*
X195819047Y-65539319D01*
X195819047Y-65539319D02*
X195533333Y-65539319D01*
X195533333Y-65539319D02*
X195438095Y-65491700D01*
X195438095Y-65491700D02*
X195390476Y-65444080D01*
X197072142Y-71845080D02*
X197024523Y-71892700D01*
X197024523Y-71892700D02*
X196881666Y-71940319D01*
X196881666Y-71940319D02*
X196786428Y-71940319D01*
X196786428Y-71940319D02*
X196643571Y-71892700D01*
X196643571Y-71892700D02*
X196548333Y-71797461D01*
X196548333Y-71797461D02*
X196500714Y-71702223D01*
X196500714Y-71702223D02*
X196453095Y-71511747D01*
X196453095Y-71511747D02*
X196453095Y-71368890D01*
X196453095Y-71368890D02*
X196500714Y-71178414D01*
X196500714Y-71178414D02*
X196548333Y-71083176D01*
X196548333Y-71083176D02*
X196643571Y-70987938D01*
X196643571Y-70987938D02*
X196786428Y-70940319D01*
X196786428Y-70940319D02*
X196881666Y-70940319D01*
X196881666Y-70940319D02*
X197024523Y-70987938D01*
X197024523Y-70987938D02*
X197072142Y-71035557D01*
X197405476Y-70940319D02*
X198024523Y-70940319D01*
X198024523Y-70940319D02*
X197691190Y-71321271D01*
X197691190Y-71321271D02*
X197834047Y-71321271D01*
X197834047Y-71321271D02*
X197929285Y-71368890D01*
X197929285Y-71368890D02*
X197976904Y-71416509D01*
X197976904Y-71416509D02*
X198024523Y-71511747D01*
X198024523Y-71511747D02*
X198024523Y-71749842D01*
X198024523Y-71749842D02*
X197976904Y-71845080D01*
X197976904Y-71845080D02*
X197929285Y-71892700D01*
X197929285Y-71892700D02*
X197834047Y-71940319D01*
X197834047Y-71940319D02*
X197548333Y-71940319D01*
X197548333Y-71940319D02*
X197453095Y-71892700D01*
X197453095Y-71892700D02*
X197405476Y-71845080D01*
X198595952Y-71368890D02*
X198500714Y-71321271D01*
X198500714Y-71321271D02*
X198453095Y-71273652D01*
X198453095Y-71273652D02*
X198405476Y-71178414D01*
X198405476Y-71178414D02*
X198405476Y-71130795D01*
X198405476Y-71130795D02*
X198453095Y-71035557D01*
X198453095Y-71035557D02*
X198500714Y-70987938D01*
X198500714Y-70987938D02*
X198595952Y-70940319D01*
X198595952Y-70940319D02*
X198786428Y-70940319D01*
X198786428Y-70940319D02*
X198881666Y-70987938D01*
X198881666Y-70987938D02*
X198929285Y-71035557D01*
X198929285Y-71035557D02*
X198976904Y-71130795D01*
X198976904Y-71130795D02*
X198976904Y-71178414D01*
X198976904Y-71178414D02*
X198929285Y-71273652D01*
X198929285Y-71273652D02*
X198881666Y-71321271D01*
X198881666Y-71321271D02*
X198786428Y-71368890D01*
X198786428Y-71368890D02*
X198595952Y-71368890D01*
X198595952Y-71368890D02*
X198500714Y-71416509D01*
X198500714Y-71416509D02*
X198453095Y-71464128D01*
X198453095Y-71464128D02*
X198405476Y-71559366D01*
X198405476Y-71559366D02*
X198405476Y-71749842D01*
X198405476Y-71749842D02*
X198453095Y-71845080D01*
X198453095Y-71845080D02*
X198500714Y-71892700D01*
X198500714Y-71892700D02*
X198595952Y-71940319D01*
X198595952Y-71940319D02*
X198786428Y-71940319D01*
X198786428Y-71940319D02*
X198881666Y-71892700D01*
X198881666Y-71892700D02*
X198929285Y-71845080D01*
X198929285Y-71845080D02*
X198976904Y-71749842D01*
X198976904Y-71749842D02*
X198976904Y-71559366D01*
X198976904Y-71559366D02*
X198929285Y-71464128D01*
X198929285Y-71464128D02*
X198881666Y-71416509D01*
X198881666Y-71416509D02*
X198786428Y-71368890D01*
X197938095Y-56600319D02*
X198509523Y-56600319D01*
X198223809Y-57600319D02*
X198223809Y-56600319D01*
X198842857Y-57600319D02*
X198842857Y-56600319D01*
X198842857Y-56600319D02*
X199223809Y-56600319D01*
X199223809Y-56600319D02*
X199319047Y-56647938D01*
X199319047Y-56647938D02*
X199366666Y-56695557D01*
X199366666Y-56695557D02*
X199414285Y-56790795D01*
X199414285Y-56790795D02*
X199414285Y-56933652D01*
X199414285Y-56933652D02*
X199366666Y-57028890D01*
X199366666Y-57028890D02*
X199319047Y-57076509D01*
X199319047Y-57076509D02*
X199223809Y-57124128D01*
X199223809Y-57124128D02*
X198842857Y-57124128D01*
X199747619Y-56600319D02*
X200414285Y-56600319D01*
X200414285Y-56600319D02*
X199985714Y-57600319D01*
X191422142Y-77039319D02*
X191088809Y-76563128D01*
X190850714Y-77039319D02*
X190850714Y-76039319D01*
X190850714Y-76039319D02*
X191231666Y-76039319D01*
X191231666Y-76039319D02*
X191326904Y-76086938D01*
X191326904Y-76086938D02*
X191374523Y-76134557D01*
X191374523Y-76134557D02*
X191422142Y-76229795D01*
X191422142Y-76229795D02*
X191422142Y-76372652D01*
X191422142Y-76372652D02*
X191374523Y-76467890D01*
X191374523Y-76467890D02*
X191326904Y-76515509D01*
X191326904Y-76515509D02*
X191231666Y-76563128D01*
X191231666Y-76563128D02*
X190850714Y-76563128D01*
X192374523Y-77039319D02*
X191803095Y-77039319D01*
X192088809Y-77039319D02*
X192088809Y-76039319D01*
X192088809Y-76039319D02*
X191993571Y-76182176D01*
X191993571Y-76182176D02*
X191898333Y-76277414D01*
X191898333Y-76277414D02*
X191803095Y-76325033D01*
X192945952Y-76467890D02*
X192850714Y-76420271D01*
X192850714Y-76420271D02*
X192803095Y-76372652D01*
X192803095Y-76372652D02*
X192755476Y-76277414D01*
X192755476Y-76277414D02*
X192755476Y-76229795D01*
X192755476Y-76229795D02*
X192803095Y-76134557D01*
X192803095Y-76134557D02*
X192850714Y-76086938D01*
X192850714Y-76086938D02*
X192945952Y-76039319D01*
X192945952Y-76039319D02*
X193136428Y-76039319D01*
X193136428Y-76039319D02*
X193231666Y-76086938D01*
X193231666Y-76086938D02*
X193279285Y-76134557D01*
X193279285Y-76134557D02*
X193326904Y-76229795D01*
X193326904Y-76229795D02*
X193326904Y-76277414D01*
X193326904Y-76277414D02*
X193279285Y-76372652D01*
X193279285Y-76372652D02*
X193231666Y-76420271D01*
X193231666Y-76420271D02*
X193136428Y-76467890D01*
X193136428Y-76467890D02*
X192945952Y-76467890D01*
X192945952Y-76467890D02*
X192850714Y-76515509D01*
X192850714Y-76515509D02*
X192803095Y-76563128D01*
X192803095Y-76563128D02*
X192755476Y-76658366D01*
X192755476Y-76658366D02*
X192755476Y-76848842D01*
X192755476Y-76848842D02*
X192803095Y-76944080D01*
X192803095Y-76944080D02*
X192850714Y-76991700D01*
X192850714Y-76991700D02*
X192945952Y-77039319D01*
X192945952Y-77039319D02*
X193136428Y-77039319D01*
X193136428Y-77039319D02*
X193231666Y-76991700D01*
X193231666Y-76991700D02*
X193279285Y-76944080D01*
X193279285Y-76944080D02*
X193326904Y-76848842D01*
X193326904Y-76848842D02*
X193326904Y-76658366D01*
X193326904Y-76658366D02*
X193279285Y-76563128D01*
X193279285Y-76563128D02*
X193231666Y-76515509D01*
X193231666Y-76515509D02*
X193136428Y-76467890D01*
X196654642Y-94542080D02*
X196607023Y-94589700D01*
X196607023Y-94589700D02*
X196464166Y-94637319D01*
X196464166Y-94637319D02*
X196368928Y-94637319D01*
X196368928Y-94637319D02*
X196226071Y-94589700D01*
X196226071Y-94589700D02*
X196130833Y-94494461D01*
X196130833Y-94494461D02*
X196083214Y-94399223D01*
X196083214Y-94399223D02*
X196035595Y-94208747D01*
X196035595Y-94208747D02*
X196035595Y-94065890D01*
X196035595Y-94065890D02*
X196083214Y-93875414D01*
X196083214Y-93875414D02*
X196130833Y-93780176D01*
X196130833Y-93780176D02*
X196226071Y-93684938D01*
X196226071Y-93684938D02*
X196368928Y-93637319D01*
X196368928Y-93637319D02*
X196464166Y-93637319D01*
X196464166Y-93637319D02*
X196607023Y-93684938D01*
X196607023Y-93684938D02*
X196654642Y-93732557D01*
X197607023Y-94637319D02*
X197035595Y-94637319D01*
X197321309Y-94637319D02*
X197321309Y-93637319D01*
X197321309Y-93637319D02*
X197226071Y-93780176D01*
X197226071Y-93780176D02*
X197130833Y-93875414D01*
X197130833Y-93875414D02*
X197035595Y-93923033D01*
X198178452Y-94065890D02*
X198083214Y-94018271D01*
X198083214Y-94018271D02*
X198035595Y-93970652D01*
X198035595Y-93970652D02*
X197987976Y-93875414D01*
X197987976Y-93875414D02*
X197987976Y-93827795D01*
X197987976Y-93827795D02*
X198035595Y-93732557D01*
X198035595Y-93732557D02*
X198083214Y-93684938D01*
X198083214Y-93684938D02*
X198178452Y-93637319D01*
X198178452Y-93637319D02*
X198368928Y-93637319D01*
X198368928Y-93637319D02*
X198464166Y-93684938D01*
X198464166Y-93684938D02*
X198511785Y-93732557D01*
X198511785Y-93732557D02*
X198559404Y-93827795D01*
X198559404Y-93827795D02*
X198559404Y-93875414D01*
X198559404Y-93875414D02*
X198511785Y-93970652D01*
X198511785Y-93970652D02*
X198464166Y-94018271D01*
X198464166Y-94018271D02*
X198368928Y-94065890D01*
X198368928Y-94065890D02*
X198178452Y-94065890D01*
X198178452Y-94065890D02*
X198083214Y-94113509D01*
X198083214Y-94113509D02*
X198035595Y-94161128D01*
X198035595Y-94161128D02*
X197987976Y-94256366D01*
X197987976Y-94256366D02*
X197987976Y-94446842D01*
X197987976Y-94446842D02*
X198035595Y-94542080D01*
X198035595Y-94542080D02*
X198083214Y-94589700D01*
X198083214Y-94589700D02*
X198178452Y-94637319D01*
X198178452Y-94637319D02*
X198368928Y-94637319D01*
X198368928Y-94637319D02*
X198464166Y-94589700D01*
X198464166Y-94589700D02*
X198511785Y-94542080D01*
X198511785Y-94542080D02*
X198559404Y-94446842D01*
X198559404Y-94446842D02*
X198559404Y-94256366D01*
X198559404Y-94256366D02*
X198511785Y-94161128D01*
X198511785Y-94161128D02*
X198464166Y-94113509D01*
X198464166Y-94113509D02*
X198368928Y-94065890D01*
D10*
X205353641Y-60740000D02*
X205046359Y-60740000D01*
X205353641Y-61500001D02*
X205046359Y-61500001D01*
X190615000Y-56340000D02*
X190615000Y-58260000D01*
X190615000Y-58260000D02*
X193300000Y-58260000D01*
X193300000Y-56340000D02*
X190615000Y-56340000D01*
X204892164Y-79540000D02*
X205107836Y-79540000D01*
X204892164Y-80260000D02*
X205107836Y-80260000D01*
X192920000Y-74646359D02*
X192920000Y-74953640D01*
X193680000Y-74646359D02*
X193680000Y-74953640D01*
X203260000Y-74740000D02*
X205080000Y-74740000D01*
X203260000Y-74789999D02*
X203260000Y-74740000D01*
X203260000Y-77860000D02*
X203260000Y-77810000D01*
X205080000Y-74740000D02*
X205080000Y-74789999D01*
X205080000Y-75910000D02*
X205080000Y-76690000D01*
X205080000Y-77810000D02*
X205080000Y-77860000D01*
X205080000Y-77860000D02*
X203260000Y-77860000D01*
X202720000Y-74789999D02*
X202480000Y-74460000D01*
X202960000Y-74460000D01*
X202720000Y-74789999D01*
G36*
X202720000Y-74789999D02*
G01*
X202480000Y-74460000D01*
X202960000Y-74460000D01*
X202720000Y-74789999D01*
G37*
X193920000Y-74646359D02*
X193920000Y-74953640D01*
X194680000Y-74646359D02*
X194680000Y-74953640D01*
X188307837Y-94240000D02*
X188092164Y-94240000D01*
X188307837Y-94960000D02*
X188092164Y-94960000D01*
X179840000Y-97692164D02*
X179840000Y-97907836D01*
X180560000Y-97692164D02*
X180560000Y-97907836D01*
X186915000Y-56340000D02*
X186915000Y-58260000D01*
X186915000Y-58260000D02*
X189600000Y-58260000D01*
X189600000Y-56340000D02*
X186915000Y-56340000D01*
X212540000Y-90392164D02*
X212540000Y-90607836D01*
X213260000Y-90392164D02*
X213260000Y-90607836D01*
X198540000Y-75807836D02*
X198540000Y-75592164D01*
X199260000Y-75807836D02*
X199260000Y-75592164D01*
X187590000Y-100173000D02*
X187590000Y-101627000D01*
X189410000Y-100173000D02*
X189410000Y-101627000D01*
X190392164Y-94940000D02*
X190607836Y-94940000D01*
X190392164Y-95660000D02*
X190607836Y-95660000D01*
X202140000Y-98907836D02*
X202140000Y-98692164D01*
X202860000Y-98907836D02*
X202860000Y-98692164D01*
X187020000Y-62446359D02*
X187020000Y-62753641D01*
X187780000Y-62446359D02*
X187780000Y-62753641D01*
X203892164Y-97740000D02*
X204107836Y-97740000D01*
X203892164Y-98460001D02*
X204107836Y-98460001D01*
X205040000Y-97707836D02*
X205040000Y-97492164D01*
X205760000Y-97707836D02*
X205760000Y-97492164D01*
X181210000Y-59739999D02*
X182590000Y-59739999D01*
X181210000Y-61120000D02*
X181210000Y-59739999D01*
X181210000Y-62390000D02*
X181210000Y-105680000D01*
X181210000Y-62390000D02*
X183860000Y-62390000D01*
X181210000Y-105680000D02*
X186510000Y-105680000D01*
X183860000Y-59739999D02*
X186510000Y-59739999D01*
X183860000Y-62390000D02*
X183860000Y-59739999D01*
X186510000Y-59739999D02*
X186510000Y-105680000D01*
X187846359Y-89620000D02*
X188153641Y-89620000D01*
X187846359Y-90380000D02*
X188153641Y-90380000D01*
X204653640Y-73520000D02*
X204346359Y-73520000D01*
X204653640Y-74280000D02*
X204346359Y-74280000D01*
X200640000Y-61540000D02*
X201640000Y-61540000D01*
X200640000Y-63060000D02*
X200640000Y-61540000D01*
X200690000Y-63060000D02*
X200640000Y-63060000D01*
X202590000Y-63060000D02*
X201810000Y-63060000D01*
X202760000Y-61540000D02*
X203760000Y-61540000D01*
X203760000Y-61540000D02*
X203760000Y-63060000D01*
X203760000Y-63060000D02*
X203710000Y-63060000D01*
X201820000Y-63600000D02*
X202150000Y-63360000D01*
X202150000Y-63840000D01*
X201820000Y-63600000D01*
G36*
X202150000Y-63840000D02*
G01*
X201820000Y-63600000D01*
X202150000Y-63360000D01*
X202150000Y-63840000D01*
G37*
X197340000Y-76292164D02*
X197340000Y-76507836D01*
X198060000Y-76292164D02*
X198060000Y-76507836D01*
X204257836Y-87840000D02*
X204042164Y-87840000D01*
X204257836Y-88560000D02*
X204042164Y-88560000D01*
X189053641Y-79820000D02*
X188746359Y-79820000D01*
X189053641Y-80580000D02*
X188746359Y-80580000D01*
X204892164Y-80540000D02*
X205107836Y-80540000D01*
X204892164Y-81260000D02*
X205107836Y-81260000D01*
X204292164Y-78540000D02*
X204507836Y-78540000D01*
X204292164Y-79260001D02*
X204507836Y-79260001D01*
X206610000Y-59739999D02*
X207990000Y-59739999D01*
X206610000Y-61120000D02*
X206610000Y-59739999D01*
X206610000Y-62390000D02*
X206610000Y-105680000D01*
X206610000Y-62390000D02*
X209260000Y-62390000D01*
X206610000Y-105680000D02*
X211910000Y-105680000D01*
X209260000Y-59739999D02*
X211910000Y-59739999D01*
X209260000Y-62390000D02*
X209260000Y-59739999D01*
X211910000Y-59739999D02*
X211910000Y-105680000D01*
X203240000Y-100189000D02*
X203240000Y-101611000D01*
X205960000Y-100189000D02*
X205960000Y-101611000D01*
X188292164Y-95240000D02*
X188507837Y-95240000D01*
X188292164Y-95960001D02*
X188507837Y-95960001D01*
X212540000Y-97807836D02*
X212540000Y-97592164D01*
X213260000Y-97807836D02*
X213260000Y-97592164D01*
X204892164Y-81540000D02*
X205107836Y-81540000D01*
X204892164Y-82260000D02*
X205107836Y-82260000D01*
X191492164Y-91540000D02*
X191707836Y-91540000D01*
X191492164Y-92260000D02*
X191707836Y-92260000D01*
X203590000Y-90080000D02*
X203590000Y-90720000D01*
X204860000Y-91760000D02*
X204530000Y-91760000D01*
X204870000Y-89040000D02*
X204530000Y-89040000D01*
X205080000Y-91960000D02*
X205770000Y-91960000D01*
X205810000Y-90080000D02*
X205810000Y-90720000D01*
X205080000Y-91960000D02*
G75*
G02*
X204859999Y-91760000I90001J320002D01*
G01*
X204592164Y-92240000D02*
X204807835Y-92240000D01*
X204592164Y-92960000D02*
X204807835Y-92960000D01*
X188292164Y-93040000D02*
X188507836Y-93040000D01*
X188292164Y-93760001D02*
X188507836Y-93760001D01*
X187846359Y-90820000D02*
X188153641Y-90820000D01*
X187846359Y-91580000D02*
X188153641Y-91580000D01*
X205353641Y-84070000D02*
X205046359Y-84070000D01*
X205353641Y-84830000D02*
X205046359Y-84830000D01*
X190920000Y-74646359D02*
X190920000Y-74953640D01*
X191680000Y-74646359D02*
X191680000Y-74953640D01*
X189053641Y-84020000D02*
X188746359Y-84020000D01*
X189053641Y-84780000D02*
X188746359Y-84780000D01*
X201207837Y-74140000D02*
X200992164Y-74140000D01*
X201207837Y-74860000D02*
X200992164Y-74860000D01*
X212540000Y-95807836D02*
X212540000Y-95592164D01*
X213260000Y-95807836D02*
X213260000Y-95592164D01*
X188696359Y-75420000D02*
X189003641Y-75420000D01*
X188696359Y-76180000D02*
X189003641Y-76180000D01*
X179887083Y-60263919D02*
G75*
G02*
X181250000Y-58310000I9172967J-4946121D01*
G01*
X201307835Y-77090000D02*
X201092164Y-77090000D01*
X201307835Y-77810000D02*
X201092164Y-77810000D01*
X189540000Y-92492164D02*
X189540000Y-92707836D01*
X190260000Y-92492164D02*
X190260000Y-92707836D01*
X203842164Y-96790000D02*
X204057836Y-96790000D01*
X203842164Y-97510000D02*
X204057836Y-97510000D01*
X202940000Y-93340000D02*
X204760000Y-93340000D01*
X202940000Y-93390000D02*
X202940000Y-93340000D01*
X202940000Y-95290000D02*
X202940000Y-94510000D01*
X202940000Y-96460000D02*
X202940000Y-96410000D01*
X204760000Y-93340000D02*
X204760000Y-93390000D01*
X204760000Y-96410000D02*
X204760000Y-96460000D01*
X204760000Y-96460000D02*
X202940000Y-96460000D01*
X205300000Y-96410000D02*
X205540000Y-96740000D01*
X205060000Y-96740000D01*
X205300000Y-96410000D01*
G36*
X205540000Y-96740000D02*
G01*
X205060000Y-96740000D01*
X205300000Y-96410000D01*
X205540000Y-96740000D01*
G37*
X205353641Y-63280001D02*
X205046359Y-63280001D01*
X205353641Y-64040001D02*
X205046359Y-64040001D01*
X179570000Y-100653641D02*
X179570000Y-100346359D01*
X180330000Y-100653641D02*
X180330000Y-100346359D01*
X188307836Y-92040000D02*
X188092164Y-92040000D01*
X188307836Y-92760000D02*
X188092164Y-92760000D01*
X190453641Y-64920001D02*
X190146360Y-64920001D01*
X190453641Y-65680000D02*
X190146360Y-65680000D01*
X191450000Y-79615000D02*
X191450000Y-80325000D01*
X191450000Y-89835000D02*
X191450000Y-89125000D01*
X192160000Y-79615000D02*
X191450000Y-79615000D01*
X192160000Y-89835000D02*
X191450000Y-89835000D01*
X200960000Y-79615000D02*
X201670000Y-79615000D01*
X200960000Y-89835000D02*
X201670000Y-89835000D01*
X201670000Y-79615000D02*
X201670000Y-80325000D01*
X201670000Y-89835000D02*
X201670000Y-89125000D01*
X190660000Y-90450000D02*
X190228000Y-90750000D01*
X190228000Y-90150000D01*
X190660000Y-90450000D01*
G36*
X190660000Y-90450000D02*
G01*
X190228000Y-90750000D01*
X190228000Y-90150000D01*
X190660000Y-90450000D01*
G37*
X196092164Y-91840000D02*
X196307836Y-91840000D01*
X196092164Y-92560000D02*
X196307836Y-92560000D01*
X189920000Y-74646359D02*
X189920000Y-74953640D01*
X190680000Y-74646359D02*
X190680000Y-74953640D01*
X201300000Y-58300000D02*
X202700000Y-58300000D01*
X201300000Y-59700000D02*
X201300000Y-58300000D01*
X202700000Y-58300000D02*
X202700000Y-59700000D01*
X202700000Y-59700000D02*
X201300000Y-59700000D01*
X196153641Y-58919999D02*
X195846359Y-58919999D01*
X196153641Y-59680000D02*
X195846359Y-59680000D01*
X189040000Y-89692164D02*
X189040000Y-89907836D01*
X189760000Y-89692164D02*
X189760000Y-89907836D01*
X205353641Y-69630000D02*
X205046359Y-69630000D01*
X205353641Y-70390000D02*
X205046359Y-70390000D01*
X188753641Y-58919999D02*
X188446359Y-58919999D01*
X188753641Y-59680000D02*
X188446359Y-59680000D01*
X201307835Y-76140000D02*
X201092164Y-76140000D01*
X201307835Y-76860000D02*
X201092164Y-76860000D01*
X197140000Y-61540000D02*
X198140000Y-61540000D01*
X197140000Y-63060000D02*
X197140000Y-61540000D01*
X197190000Y-63060000D02*
X197140000Y-63060000D01*
X199090000Y-63060000D02*
X198310000Y-63060000D01*
X199260000Y-61540000D02*
X200260000Y-61540000D01*
X200260000Y-61540000D02*
X200260000Y-63060000D01*
X200260000Y-63060000D02*
X200210000Y-63060000D01*
X198320000Y-63600000D02*
X198650000Y-63360000D01*
X198650000Y-63840000D01*
X198320000Y-63600000D01*
G36*
X198650000Y-63840000D02*
G01*
X198320000Y-63600000D01*
X198650000Y-63360000D01*
X198650000Y-63840000D01*
G37*
X194920000Y-74646359D02*
X194920000Y-74953640D01*
X195680000Y-74646359D02*
X195680000Y-74953640D01*
X212540000Y-92392164D02*
X212540000Y-92607836D01*
X213260000Y-92392164D02*
X213260000Y-92607836D01*
X212540000Y-101592164D02*
X212540000Y-101807836D01*
X213260000Y-101592164D02*
X213260000Y-101807836D01*
X188540000Y-97107836D02*
X188540000Y-96892164D01*
X189260000Y-97107836D02*
X189260000Y-96892164D01*
X201196359Y-91570000D02*
X201503641Y-91570000D01*
X201196359Y-92330000D02*
X201503641Y-92330000D01*
X190146359Y-63520001D02*
X190453641Y-63520001D01*
X190146359Y-64280001D02*
X190453641Y-64280001D01*
X192453641Y-58919999D02*
X192146359Y-58919999D01*
X192453641Y-59680000D02*
X192146359Y-59680000D01*
X204092164Y-85115000D02*
X204307836Y-85115000D01*
X204092164Y-85835000D02*
X204307836Y-85835000D01*
X187039999Y-97307836D02*
X187039999Y-97092164D01*
X187760000Y-97307836D02*
X187760000Y-97092164D01*
X193640000Y-61540000D02*
X194640000Y-61540000D01*
X193640000Y-63060000D02*
X193640000Y-61540000D01*
X193690000Y-63060000D02*
X193640000Y-63060000D01*
X195590000Y-63060000D02*
X194810000Y-63060000D01*
X195760000Y-61540000D02*
X196760000Y-61540000D01*
X196760000Y-61540000D02*
X196760000Y-63060000D01*
X196760000Y-63060000D02*
X196710000Y-63060000D01*
X194820000Y-63600000D02*
X195150000Y-63360000D01*
X195150000Y-63840000D01*
X194820000Y-63600000D01*
G36*
X195150000Y-63840000D02*
G01*
X194820000Y-63600000D01*
X195150000Y-63360000D01*
X195150000Y-63840000D01*
G37*
X197239999Y-74607836D02*
X197239999Y-74392164D01*
X197960000Y-74607836D02*
X197960000Y-74392164D01*
X198500000Y-58300000D02*
X199900000Y-58300000D01*
X198500000Y-59700000D02*
X198500000Y-58300000D01*
X199900000Y-58300000D02*
X199900000Y-59700000D01*
X199900000Y-59700000D02*
X198500000Y-59700000D01*
X196239999Y-73392164D02*
X196239999Y-73607836D01*
X196960000Y-73392164D02*
X196960000Y-73607836D01*
X212540000Y-99592164D02*
X212540000Y-99807836D01*
X213260000Y-99592164D02*
X213260000Y-99807836D01*
X191920000Y-74646359D02*
X191920000Y-74953640D01*
X192680000Y-74646359D02*
X192680000Y-74953640D01*
X200839999Y-93607836D02*
X200839999Y-93392164D01*
X201560000Y-93607836D02*
X201560000Y-93392164D01*
X194315000Y-56340000D02*
X194315000Y-58260000D01*
X194315000Y-58260000D02*
X197000000Y-58260000D01*
X197000000Y-56340000D02*
X194315000Y-56340000D01*
%LPC*%
D13*
X205710000Y-61120000D03*
X204690000Y-61120000D03*
D14*
X191362500Y-57300000D03*
X193237500Y-57300000D03*
D15*
X204520000Y-79900000D03*
X205480000Y-79900000D03*
D16*
X193300000Y-74289999D03*
X193300000Y-75310000D03*
D17*
X203032500Y-75350000D03*
X203032500Y-76300000D03*
X203032500Y-77250000D03*
X205307499Y-77250000D03*
X205307499Y-75350000D03*
D16*
X194300000Y-74289999D03*
X194300000Y-75310000D03*
D18*
X188680001Y-94600000D03*
X187720000Y-94600000D03*
D19*
X180200000Y-97320000D03*
X180200000Y-98280000D03*
D14*
X187662500Y-57300000D03*
X189537500Y-57300000D03*
D19*
X212900000Y-90020000D03*
X212900000Y-90980000D03*
D20*
X198900000Y-76180000D03*
X198900000Y-75220000D03*
D21*
X188500000Y-99437500D03*
X188500000Y-102362500D03*
D15*
X190020000Y-95300000D03*
X190980000Y-95300000D03*
D20*
X202500000Y-99280000D03*
X202500000Y-98320000D03*
D16*
X187400000Y-62090000D03*
X187400000Y-63110000D03*
D15*
X203520000Y-98100000D03*
X204480000Y-98100000D03*
D20*
X205400000Y-98080000D03*
X205400000Y-97120000D03*
D22*
X182590000Y-61120000D03*
D23*
X185130000Y-61120000D03*
X182590000Y-63660000D03*
X185130000Y-63660000D03*
X182590000Y-66200000D03*
X185130000Y-66200000D03*
X182590000Y-68740000D03*
X185130000Y-68740000D03*
X182590000Y-71280000D03*
X185130000Y-71280000D03*
X182590000Y-73820000D03*
X185130000Y-73820000D03*
X182590000Y-76360000D03*
X185130000Y-76360000D03*
X182590000Y-78900000D03*
X185130000Y-78900000D03*
X182590000Y-81440000D03*
X185130000Y-81440000D03*
X182590000Y-83979999D03*
X185130000Y-83979999D03*
X182590000Y-86520000D03*
X185130000Y-86520000D03*
X182590000Y-89060000D03*
X185130000Y-89060000D03*
X182590000Y-91600000D03*
X185130000Y-91600000D03*
X182590000Y-94140000D03*
X185130000Y-94140000D03*
X182590000Y-96680000D03*
X185130000Y-96680000D03*
X182590000Y-99220000D03*
X185130000Y-99220000D03*
X182590000Y-101759999D03*
X185130000Y-101759999D03*
X182590000Y-104300000D03*
X185130000Y-104300000D03*
D24*
X187490000Y-90000000D03*
X188510000Y-90000000D03*
D13*
X205010000Y-73900000D03*
X203989999Y-73900000D03*
D25*
X201250000Y-63237500D03*
X203150000Y-63237500D03*
X202200000Y-61362500D03*
D19*
X197700000Y-75920001D03*
X197700000Y-76880000D03*
D18*
X204630000Y-88200000D03*
X203670000Y-88200000D03*
D13*
X189410000Y-80200000D03*
X188390000Y-80200000D03*
D15*
X204520000Y-80900000D03*
X205480000Y-80900000D03*
X203920000Y-78900000D03*
X204880000Y-78900000D03*
D22*
X207990000Y-61120000D03*
D23*
X210530000Y-61120000D03*
X207990000Y-63660000D03*
X210530000Y-63660000D03*
X207990000Y-66200000D03*
X210530000Y-66200000D03*
X207990000Y-68740000D03*
X210530000Y-68740000D03*
X207990000Y-71280000D03*
X210530000Y-71280000D03*
X207990000Y-73820000D03*
X210530000Y-73820000D03*
X207990000Y-76360000D03*
X210530000Y-76360000D03*
X207990000Y-78900000D03*
X210530000Y-78900000D03*
X207990000Y-81440000D03*
X210530000Y-81440000D03*
X207990000Y-83979999D03*
X210530000Y-83979999D03*
X207990000Y-86520000D03*
X210530000Y-86520000D03*
X207990000Y-89060000D03*
X210530000Y-89060000D03*
X207990000Y-91600000D03*
X210530000Y-91600000D03*
X207990000Y-94140000D03*
X210530000Y-94140000D03*
X207990000Y-96680000D03*
X210530000Y-96680000D03*
X207990000Y-99220000D03*
X210530000Y-99220000D03*
X207990000Y-101759999D03*
X210530000Y-101759999D03*
X207990000Y-104300000D03*
X210530000Y-104300000D03*
D26*
X204600000Y-99425000D03*
X204600000Y-102375000D03*
D15*
X187920000Y-95600000D03*
X188880001Y-95600000D03*
D20*
X212900000Y-98180000D03*
X212900000Y-97220000D03*
D15*
X204520000Y-81900000D03*
X205480000Y-81900000D03*
X191120000Y-91900000D03*
X192080000Y-91900000D03*
D27*
X205425000Y-91325000D03*
X205425000Y-89475000D03*
X203975000Y-89475000D03*
X203975000Y-91325000D03*
D15*
X204220000Y-92600000D03*
X205179999Y-92600000D03*
X187920000Y-93400000D03*
X188880000Y-93400000D03*
D24*
X187490000Y-91200000D03*
X188510000Y-91200000D03*
D13*
X205710000Y-84450000D03*
X204690000Y-84450000D03*
D16*
X191300000Y-74289999D03*
X191300000Y-75310000D03*
D13*
X189410000Y-84400000D03*
X188390000Y-84400000D03*
D18*
X201580000Y-74500000D03*
X200620000Y-74500000D03*
D20*
X212900000Y-96180000D03*
X212900000Y-95220000D03*
D24*
X188340000Y-75800000D03*
X189360000Y-75800000D03*
D22*
X182590000Y-61120000D03*
D28*
X185130000Y-61120000D03*
X182590000Y-63660000D03*
X185130000Y-63660000D03*
X182590000Y-66200000D03*
X185130000Y-66200000D03*
X182590000Y-68740000D03*
X185130000Y-68740000D03*
X182590000Y-71280000D03*
X185130000Y-71280000D03*
X182590000Y-73820000D03*
X185130000Y-73820000D03*
X182590000Y-76360000D03*
X185130000Y-76360000D03*
X182590000Y-78900000D03*
X185130000Y-78900000D03*
X182590000Y-81440000D03*
X185130000Y-81440000D03*
X182590000Y-83980000D03*
X185130000Y-83980000D03*
X182590000Y-86520000D03*
X185130000Y-86520000D03*
X182590000Y-89060000D03*
X185130000Y-89060000D03*
X182590000Y-91600000D03*
X185130000Y-91600000D03*
X182590000Y-94140000D03*
X185130000Y-94140000D03*
X182590000Y-96680000D03*
X185130000Y-96680000D03*
X182590000Y-99220000D03*
X185130000Y-99220000D03*
X182590000Y-101760000D03*
X185130000Y-101760000D03*
X182590000Y-104300000D03*
X185130000Y-104300000D03*
D23*
X207990000Y-61120000D03*
D28*
X210530000Y-61120000D03*
X207990000Y-63660000D03*
X210530000Y-63660000D03*
X207990000Y-66200000D03*
X210530000Y-66200000D03*
X207990000Y-68740000D03*
X210530000Y-68740000D03*
X207990000Y-71280000D03*
X210530000Y-71280000D03*
X207990000Y-73820000D03*
X210530000Y-73820000D03*
X207990000Y-76360000D03*
X210530000Y-76360000D03*
X207990000Y-78900000D03*
X210530000Y-78900000D03*
X207990000Y-81440000D03*
X210530000Y-81440000D03*
X207990000Y-83980000D03*
X210530000Y-83980000D03*
X207990000Y-86520000D03*
X210530000Y-86520000D03*
X207990000Y-89060000D03*
X210530000Y-89060000D03*
X207990000Y-91600000D03*
X210530000Y-91600000D03*
X207990000Y-94140000D03*
X210530000Y-94140000D03*
X207990000Y-96680000D03*
X210530000Y-96680000D03*
X207990000Y-99220000D03*
X210530000Y-99220000D03*
X207990000Y-101760000D03*
X210530000Y-101760000D03*
X207990000Y-104300000D03*
X210530000Y-104300000D03*
D18*
X201679999Y-77450000D03*
X200720000Y-77450000D03*
D19*
X189900000Y-92120000D03*
X189900000Y-93080000D03*
D15*
X203470000Y-97150000D03*
X204430000Y-97150000D03*
D29*
X204987500Y-95850000D03*
X204987500Y-94900000D03*
X204987500Y-93950000D03*
X202712500Y-93950000D03*
X202712500Y-95850000D03*
D13*
X205710000Y-63660000D03*
X204690000Y-63660000D03*
D30*
X179950000Y-101010000D03*
X179950000Y-99990000D03*
D18*
X188680000Y-92400000D03*
X187720000Y-92400000D03*
D13*
X190810001Y-65300000D03*
X189790000Y-65300000D03*
D31*
X192810000Y-90450000D03*
X193309999Y-90450000D03*
X193810000Y-90450000D03*
X194309999Y-90450000D03*
X194810001Y-90450000D03*
X195310000Y-90450000D03*
X195809999Y-90450000D03*
X196310000Y-90450000D03*
X196810000Y-90450000D03*
X197310001Y-90450000D03*
X197810000Y-90450000D03*
X198309999Y-90450000D03*
X198810001Y-90450000D03*
X199310000Y-90450000D03*
X199810001Y-90450000D03*
X200310000Y-90450000D03*
D32*
X202285000Y-88475000D03*
X202285000Y-87975001D03*
X202285000Y-87475000D03*
X202285000Y-86975001D03*
X202285000Y-86474999D03*
X202285000Y-85975000D03*
X202285000Y-85475001D03*
X202285000Y-84975000D03*
X202285000Y-84475000D03*
X202285000Y-83974999D03*
X202285000Y-83475000D03*
X202285000Y-82975001D03*
X202285000Y-82474999D03*
X202285000Y-81975000D03*
X202285000Y-81474999D03*
X202285000Y-80975000D03*
D31*
X200310000Y-79000000D03*
X199810001Y-79000000D03*
X199310000Y-79000000D03*
X198810001Y-79000000D03*
X198309999Y-79000000D03*
X197810000Y-79000000D03*
X197310001Y-79000000D03*
X196810000Y-79000000D03*
X196310000Y-79000000D03*
X195809999Y-79000000D03*
X195310000Y-79000000D03*
X194810001Y-79000000D03*
X194309999Y-79000000D03*
X193810000Y-79000000D03*
X193309999Y-79000000D03*
X192810000Y-79000000D03*
D32*
X190835000Y-80975000D03*
X190835000Y-81474999D03*
X190835000Y-81975000D03*
X190835000Y-82474999D03*
X190835000Y-82975001D03*
X190835000Y-83475000D03*
X190835000Y-83974999D03*
X190835000Y-84475000D03*
X190835000Y-84975000D03*
X190835000Y-85475001D03*
X190835000Y-85975000D03*
X190835000Y-86474999D03*
X190835000Y-86975001D03*
X190835000Y-87475000D03*
X190835000Y-87975001D03*
X190835000Y-88475000D03*
D33*
X196560000Y-84725000D03*
D34*
X194609999Y-86675001D03*
X195909999Y-86675001D03*
X197210001Y-86675001D03*
X198510001Y-86675001D03*
X194609999Y-85375001D03*
X195909999Y-85375001D03*
X197210001Y-85375001D03*
X198510001Y-85375001D03*
X195909999Y-84074999D03*
X197210001Y-84074999D03*
X198510001Y-84074999D03*
X194609999Y-84050000D03*
X194635000Y-82774999D03*
X195909999Y-82774999D03*
X197210001Y-82774999D03*
X198510001Y-82774999D03*
D15*
X195720000Y-92200000D03*
X196680000Y-92200000D03*
D16*
X190300000Y-74289999D03*
X190300000Y-75310000D03*
D35*
X202000000Y-59000000D03*
D13*
X196510000Y-59300000D03*
X195490000Y-59300000D03*
D19*
X189400000Y-89320000D03*
X189400000Y-90280000D03*
D13*
X205710000Y-70010000D03*
X204690000Y-70010000D03*
X189110000Y-59300000D03*
X188090000Y-59300000D03*
D18*
X201679999Y-76500000D03*
X200720000Y-76500000D03*
D25*
X197750000Y-63237500D03*
X199650000Y-63237500D03*
X198700000Y-61362500D03*
D16*
X195300000Y-74289999D03*
X195300000Y-75310000D03*
D19*
X212900000Y-92020000D03*
X212900000Y-92980000D03*
X212900000Y-101220000D03*
X212900000Y-102179999D03*
D20*
X188900000Y-97480000D03*
X188900000Y-96520000D03*
D24*
X200840000Y-91950000D03*
X201860000Y-91950000D03*
X189790000Y-63900000D03*
X190810000Y-63900000D03*
D13*
X192810000Y-59300000D03*
X191790000Y-59300000D03*
D15*
X203720000Y-85475000D03*
X204680000Y-85475000D03*
D20*
X187400000Y-97680000D03*
X187400000Y-96720000D03*
D25*
X194250000Y-63237500D03*
X196150000Y-63237500D03*
X195200000Y-61362500D03*
D20*
X197600000Y-74980000D03*
X197600000Y-74020000D03*
D35*
X199200000Y-59000000D03*
D19*
X196600000Y-73020000D03*
X196600000Y-73980000D03*
X212900000Y-99220000D03*
X212900000Y-100180000D03*
D16*
X192300000Y-74289999D03*
X192300000Y-75310000D03*
D20*
X201200000Y-93980000D03*
X201200000Y-93020000D03*
D14*
X195062500Y-57300000D03*
X196937500Y-57300000D03*
D36*
X202276811Y-106011310D03*
X190846811Y-106011310D03*
D37*
X202276811Y-97121310D03*
D38*
X201006812Y-99661310D03*
X199736812Y-97121310D03*
X198466811Y-99661310D03*
X197196811Y-97121310D03*
X195926812Y-99661310D03*
X194656811Y-97121310D03*
X193386811Y-99661310D03*
X192116811Y-97121310D03*
X190846811Y-99661310D03*
D39*
X204306812Y-102971310D03*
X188816811Y-102971310D03*
%LPD*%
M02*
