%TF.GenerationSoftware,KiCad,Pcbnew,10.0.6*%
%TF.CreationDate,2026-09-25T17:42:10+02:00*%
%TF.ProjectId,pocketbeagle2_ethernet_cap,706f636b-6574-4626-9561-676c65325f65,rev?*%
%TF.SameCoordinates,Original*%
%TF.FileFunction,Legend,Bot*%
%TF.FilePolarity,Positive*%
%FSLAX46Y46*%
G04 Gerber Fmt 4.6, Leading zero omitted, Abs format (unit mm)*
G04 Created by KiCad (PCBNEW 10.0.6) date 2026-09-25 17:42:10*
%MOMM*%
%LPD*%
G01*
G04 APERTURE LIST*
%ADD10C,0.150000*%
%ADD11C,0.120000*%
%ADD12R,1.700000X1.700000*%
%ADD13C,1.700000*%
%ADD14O,1.700000X1.700000*%
%ADD15C,0.499999*%
%ADD16R,1.000000X1.000000*%
%ADD17C,3.250000*%
%ADD18R,1.478000X1.478000*%
%ADD19C,1.478000*%
%ADD20C,2.475000*%
G04 APERTURE END LIST*
D10*
X204170238Y-88079819D02*
X203798809Y-88079819D01*
X203984523Y-89079819D02*
X203984523Y-88079819D01*
X203582143Y-89079819D02*
X203582143Y-88079819D01*
X203582143Y-88079819D02*
X203334524Y-88079819D01*
X203334524Y-88079819D02*
X203272619Y-88127438D01*
X203272619Y-88127438D02*
X203241666Y-88175057D01*
X203241666Y-88175057D02*
X203210714Y-88270295D01*
X203210714Y-88270295D02*
X203210714Y-88413152D01*
X203210714Y-88413152D02*
X203241666Y-88508390D01*
X203241666Y-88508390D02*
X203272619Y-88556009D01*
X203272619Y-88556009D02*
X203334524Y-88603628D01*
X203334524Y-88603628D02*
X203582143Y-88603628D01*
X202653571Y-88413152D02*
X202653571Y-89079819D01*
X202808333Y-88032200D02*
X202963095Y-88746485D01*
X202963095Y-88746485D02*
X202560714Y-88746485D01*
X193320238Y-91579819D02*
X192948809Y-91579819D01*
X193134523Y-92579819D02*
X193134523Y-91579819D01*
X192732143Y-92579819D02*
X192732143Y-91579819D01*
X192732143Y-91579819D02*
X192484524Y-91579819D01*
X192484524Y-91579819D02*
X192422619Y-91627438D01*
X192422619Y-91627438D02*
X192391666Y-91675057D01*
X192391666Y-91675057D02*
X192360714Y-91770295D01*
X192360714Y-91770295D02*
X192360714Y-91913152D01*
X192360714Y-91913152D02*
X192391666Y-92008390D01*
X192391666Y-92008390D02*
X192422619Y-92056009D01*
X192422619Y-92056009D02*
X192484524Y-92103628D01*
X192484524Y-92103628D02*
X192732143Y-92103628D01*
X191803571Y-91579819D02*
X191927381Y-91579819D01*
X191927381Y-91579819D02*
X191989285Y-91627438D01*
X191989285Y-91627438D02*
X192020238Y-91675057D01*
X192020238Y-91675057D02*
X192082143Y-91817914D01*
X192082143Y-91817914D02*
X192113095Y-92008390D01*
X192113095Y-92008390D02*
X192113095Y-92389342D01*
X192113095Y-92389342D02*
X192082143Y-92484580D01*
X192082143Y-92484580D02*
X192051190Y-92532200D01*
X192051190Y-92532200D02*
X191989285Y-92579819D01*
X191989285Y-92579819D02*
X191865476Y-92579819D01*
X191865476Y-92579819D02*
X191803571Y-92532200D01*
X191803571Y-92532200D02*
X191772619Y-92484580D01*
X191772619Y-92484580D02*
X191741666Y-92389342D01*
X191741666Y-92389342D02*
X191741666Y-92151247D01*
X191741666Y-92151247D02*
X191772619Y-92056009D01*
X191772619Y-92056009D02*
X191803571Y-92008390D01*
X191803571Y-92008390D02*
X191865476Y-91960771D01*
X191865476Y-91960771D02*
X191989285Y-91960771D01*
X191989285Y-91960771D02*
X192051190Y-92008390D01*
X192051190Y-92008390D02*
X192082143Y-92056009D01*
X192082143Y-92056009D02*
X192113095Y-92151247D01*
X196778477Y-105441129D02*
X196778477Y-106155414D01*
X196778477Y-106155414D02*
X196809430Y-106298271D01*
X196809430Y-106298271D02*
X196871334Y-106393510D01*
X196871334Y-106393510D02*
X196964192Y-106441129D01*
X196964192Y-106441129D02*
X197026096Y-106441129D01*
X196128477Y-106441129D02*
X196499906Y-106441129D01*
X196314192Y-106441129D02*
X196314192Y-105441129D01*
X196314192Y-105441129D02*
X196376096Y-105583986D01*
X196376096Y-105583986D02*
X196438001Y-105679224D01*
X196438001Y-105679224D02*
X196499906Y-105726843D01*
X206620238Y-78379819D02*
X206248809Y-78379819D01*
X206434523Y-79379819D02*
X206434523Y-78379819D01*
X206032143Y-79379819D02*
X206032143Y-78379819D01*
X206032143Y-78379819D02*
X205784524Y-78379819D01*
X205784524Y-78379819D02*
X205722619Y-78427438D01*
X205722619Y-78427438D02*
X205691666Y-78475057D01*
X205691666Y-78475057D02*
X205660714Y-78570295D01*
X205660714Y-78570295D02*
X205660714Y-78713152D01*
X205660714Y-78713152D02*
X205691666Y-78808390D01*
X205691666Y-78808390D02*
X205722619Y-78856009D01*
X205722619Y-78856009D02*
X205784524Y-78903628D01*
X205784524Y-78903628D02*
X206032143Y-78903628D01*
X205289285Y-78808390D02*
X205351190Y-78760771D01*
X205351190Y-78760771D02*
X205382143Y-78713152D01*
X205382143Y-78713152D02*
X205413095Y-78617914D01*
X205413095Y-78617914D02*
X205413095Y-78570295D01*
X205413095Y-78570295D02*
X205382143Y-78475057D01*
X205382143Y-78475057D02*
X205351190Y-78427438D01*
X205351190Y-78427438D02*
X205289285Y-78379819D01*
X205289285Y-78379819D02*
X205165476Y-78379819D01*
X205165476Y-78379819D02*
X205103571Y-78427438D01*
X205103571Y-78427438D02*
X205072619Y-78475057D01*
X205072619Y-78475057D02*
X205041666Y-78570295D01*
X205041666Y-78570295D02*
X205041666Y-78617914D01*
X205041666Y-78617914D02*
X205072619Y-78713152D01*
X205072619Y-78713152D02*
X205103571Y-78760771D01*
X205103571Y-78760771D02*
X205165476Y-78808390D01*
X205165476Y-78808390D02*
X205289285Y-78808390D01*
X205289285Y-78808390D02*
X205351190Y-78856009D01*
X205351190Y-78856009D02*
X205382143Y-78903628D01*
X205382143Y-78903628D02*
X205413095Y-78998866D01*
X205413095Y-78998866D02*
X205413095Y-79189342D01*
X205413095Y-79189342D02*
X205382143Y-79284580D01*
X205382143Y-79284580D02*
X205351190Y-79332200D01*
X205351190Y-79332200D02*
X205289285Y-79379819D01*
X205289285Y-79379819D02*
X205165476Y-79379819D01*
X205165476Y-79379819D02*
X205103571Y-79332200D01*
X205103571Y-79332200D02*
X205072619Y-79284580D01*
X205072619Y-79284580D02*
X205041666Y-79189342D01*
X205041666Y-79189342D02*
X205041666Y-78998866D01*
X205041666Y-78998866D02*
X205072619Y-78903628D01*
X205072619Y-78903628D02*
X205103571Y-78856009D01*
X205103571Y-78856009D02*
X205165476Y-78808390D01*
X200920238Y-83329819D02*
X200548809Y-83329819D01*
X200734523Y-84329819D02*
X200734523Y-83329819D01*
X200332143Y-84329819D02*
X200332143Y-83329819D01*
X200332143Y-83329819D02*
X200084524Y-83329819D01*
X200084524Y-83329819D02*
X200022619Y-83377438D01*
X200022619Y-83377438D02*
X199991666Y-83425057D01*
X199991666Y-83425057D02*
X199960714Y-83520295D01*
X199960714Y-83520295D02*
X199960714Y-83663152D01*
X199960714Y-83663152D02*
X199991666Y-83758390D01*
X199991666Y-83758390D02*
X200022619Y-83806009D01*
X200022619Y-83806009D02*
X200084524Y-83853628D01*
X200084524Y-83853628D02*
X200332143Y-83853628D01*
X199713095Y-83425057D02*
X199682143Y-83377438D01*
X199682143Y-83377438D02*
X199620238Y-83329819D01*
X199620238Y-83329819D02*
X199465476Y-83329819D01*
X199465476Y-83329819D02*
X199403571Y-83377438D01*
X199403571Y-83377438D02*
X199372619Y-83425057D01*
X199372619Y-83425057D02*
X199341666Y-83520295D01*
X199341666Y-83520295D02*
X199341666Y-83615533D01*
X199341666Y-83615533D02*
X199372619Y-83758390D01*
X199372619Y-83758390D02*
X199744047Y-84329819D01*
X199744047Y-84329819D02*
X199341666Y-84329819D01*
X196820238Y-89679819D02*
X196448809Y-89679819D01*
X196634523Y-90679819D02*
X196634523Y-89679819D01*
X196232143Y-90679819D02*
X196232143Y-89679819D01*
X196232143Y-89679819D02*
X195984524Y-89679819D01*
X195984524Y-89679819D02*
X195922619Y-89727438D01*
X195922619Y-89727438D02*
X195891666Y-89775057D01*
X195891666Y-89775057D02*
X195860714Y-89870295D01*
X195860714Y-89870295D02*
X195860714Y-90013152D01*
X195860714Y-90013152D02*
X195891666Y-90108390D01*
X195891666Y-90108390D02*
X195922619Y-90156009D01*
X195922619Y-90156009D02*
X195984524Y-90203628D01*
X195984524Y-90203628D02*
X196232143Y-90203628D01*
X195241666Y-90679819D02*
X195613095Y-90679819D01*
X195427381Y-90679819D02*
X195427381Y-89679819D01*
X195427381Y-89679819D02*
X195489285Y-89822676D01*
X195489285Y-89822676D02*
X195551190Y-89917914D01*
X195551190Y-89917914D02*
X195613095Y-89965533D01*
D11*
X202650000Y-89600000D02*
X202650000Y-91000000D01*
X202650000Y-91000000D02*
X204050000Y-91000000D01*
X204050000Y-89600000D02*
X202650000Y-89600000D01*
X204050000Y-91000000D02*
X204050000Y-89600000D01*
X191800000Y-93100000D02*
X191800000Y-94500000D01*
X191800000Y-94500000D02*
X193200000Y-94500000D01*
X193200000Y-93100000D02*
X191800000Y-93100000D01*
X193200000Y-94500000D02*
X193200000Y-93100000D01*
X187226811Y-95161310D02*
X187226811Y-116811310D01*
X187226811Y-116811310D02*
X205896812Y-116811310D01*
X205896812Y-95161310D02*
X187226811Y-95161310D01*
X205896812Y-116811310D02*
X205896812Y-95161310D01*
X205600000Y-79900000D02*
X205600000Y-81300000D01*
X205600000Y-81300000D02*
X207000000Y-81300000D01*
X207000000Y-79900000D02*
X205600000Y-79900000D01*
X207000000Y-81300000D02*
X207000000Y-79900000D01*
X198900000Y-84850000D02*
X198900000Y-86250000D01*
X198900000Y-86250000D02*
X200300000Y-86250000D01*
X200300000Y-84850000D02*
X198900000Y-84850000D01*
X200300000Y-86250000D02*
X200300000Y-84850000D01*
X195300000Y-91200000D02*
X195300000Y-92600000D01*
X195300000Y-92600000D02*
X196700000Y-92600000D01*
X196700000Y-91200000D02*
X195300000Y-91200000D01*
X196700000Y-92600000D02*
X196700000Y-91200000D01*
%LPC*%
D12*
X182590000Y-61120000D03*
D13*
X185130000Y-61120000D03*
X182590000Y-63660000D03*
X185130000Y-63660000D03*
X182590000Y-66200000D03*
X185130000Y-66200000D03*
X182590000Y-68740000D03*
X185130000Y-68740000D03*
X182590000Y-71280000D03*
X185130000Y-71280000D03*
X182590000Y-73820000D03*
X185130000Y-73820000D03*
X182590000Y-76360000D03*
X185130000Y-76360000D03*
X182590000Y-78900000D03*
X185130000Y-78900000D03*
X182590000Y-81440000D03*
X185130000Y-81440000D03*
X182590000Y-83979999D03*
X185130000Y-83979999D03*
X182590000Y-86520000D03*
X185130000Y-86520000D03*
X182590000Y-89060000D03*
X185130000Y-89060000D03*
X182590000Y-91600000D03*
X185130000Y-91600000D03*
X182590000Y-94140000D03*
X185130000Y-94140000D03*
X182590000Y-96680000D03*
X185130000Y-96680000D03*
X182590000Y-99220000D03*
X185130000Y-99220000D03*
X182590000Y-101759999D03*
X185130000Y-101759999D03*
X182590000Y-104300000D03*
X185130000Y-104300000D03*
D12*
X207990000Y-61120000D03*
D13*
X210530000Y-61120000D03*
X207990000Y-63660000D03*
X210530000Y-63660000D03*
X207990000Y-66200000D03*
X210530000Y-66200000D03*
X207990000Y-68740000D03*
X210530000Y-68740000D03*
X207990000Y-71280000D03*
X210530000Y-71280000D03*
X207990000Y-73820000D03*
X210530000Y-73820000D03*
X207990000Y-76360000D03*
X210530000Y-76360000D03*
X207990000Y-78900000D03*
X210530000Y-78900000D03*
X207990000Y-81440000D03*
X210530000Y-81440000D03*
X207990000Y-83979999D03*
X210530000Y-83979999D03*
X207990000Y-86520000D03*
X210530000Y-86520000D03*
X207990000Y-89060000D03*
X210530000Y-89060000D03*
X207990000Y-91600000D03*
X210530000Y-91600000D03*
X207990000Y-94140000D03*
X210530000Y-94140000D03*
X207990000Y-96680000D03*
X210530000Y-96680000D03*
X207990000Y-99220000D03*
X210530000Y-99220000D03*
X207990000Y-101759999D03*
X210530000Y-101759999D03*
X207990000Y-104300000D03*
X210530000Y-104300000D03*
D12*
X182590000Y-61120000D03*
D14*
X185130000Y-61120000D03*
X182590000Y-63660000D03*
X185130000Y-63660000D03*
X182590000Y-66200000D03*
X185130000Y-66200000D03*
X182590000Y-68740000D03*
X185130000Y-68740000D03*
X182590000Y-71280000D03*
X185130000Y-71280000D03*
X182590000Y-73820000D03*
X185130000Y-73820000D03*
X182590000Y-76360000D03*
X185130000Y-76360000D03*
X182590000Y-78900000D03*
X185130000Y-78900000D03*
X182590000Y-81440000D03*
X185130000Y-81440000D03*
X182590000Y-83980000D03*
X185130000Y-83980000D03*
X182590000Y-86520000D03*
X185130000Y-86520000D03*
X182590000Y-89060000D03*
X185130000Y-89060000D03*
X182590000Y-91600000D03*
X185130000Y-91600000D03*
X182590000Y-94140000D03*
X185130000Y-94140000D03*
X182590000Y-96680000D03*
X185130000Y-96680000D03*
X182590000Y-99220000D03*
X185130000Y-99220000D03*
X182590000Y-101760000D03*
X185130000Y-101760000D03*
X182590000Y-104300000D03*
X185130000Y-104300000D03*
D13*
X207990000Y-61120000D03*
D14*
X210530000Y-61120000D03*
X207990000Y-63660000D03*
X210530000Y-63660000D03*
X207990000Y-66200000D03*
X210530000Y-66200000D03*
X207990000Y-68740000D03*
X210530000Y-68740000D03*
X207990000Y-71280000D03*
X210530000Y-71280000D03*
X207990000Y-73820000D03*
X210530000Y-73820000D03*
X207990000Y-76360000D03*
X210530000Y-76360000D03*
X207990000Y-78900000D03*
X210530000Y-78900000D03*
X207990000Y-81440000D03*
X210530000Y-81440000D03*
X207990000Y-83980000D03*
X210530000Y-83980000D03*
X207990000Y-86520000D03*
X210530000Y-86520000D03*
X207990000Y-89060000D03*
X210530000Y-89060000D03*
X207990000Y-91600000D03*
X210530000Y-91600000D03*
X207990000Y-94140000D03*
X210530000Y-94140000D03*
X207990000Y-96680000D03*
X210530000Y-96680000D03*
X207990000Y-99220000D03*
X210530000Y-99220000D03*
X207990000Y-101760000D03*
X210530000Y-101760000D03*
X207990000Y-104300000D03*
X210530000Y-104300000D03*
D15*
X194609999Y-86675001D03*
X195909999Y-86675001D03*
X197210001Y-86675001D03*
X198510001Y-86675001D03*
X194609999Y-85375001D03*
X195909999Y-85375001D03*
X197210001Y-85375001D03*
X198510001Y-85375001D03*
X195909999Y-84074999D03*
X197210001Y-84074999D03*
X198510001Y-84074999D03*
X194609999Y-84050000D03*
X194635000Y-82774999D03*
X195909999Y-82774999D03*
X197210001Y-82774999D03*
X198510001Y-82774999D03*
D16*
X203350000Y-90300000D03*
X192500000Y-93800000D03*
D17*
X202276811Y-106011310D03*
X190846811Y-106011310D03*
D18*
X202276811Y-97121310D03*
D19*
X201006812Y-99661310D03*
X199736812Y-97121310D03*
X198466811Y-99661310D03*
X197196811Y-97121310D03*
X195926812Y-99661310D03*
X194656811Y-97121310D03*
X193386811Y-99661310D03*
X192116811Y-97121310D03*
X190846811Y-99661310D03*
D20*
X204306812Y-102971310D03*
X188816811Y-102971310D03*
D16*
X206300000Y-80600000D03*
X199600000Y-85550000D03*
X196000000Y-91900000D03*
%LPD*%
M02*
