%TF.GenerationSoftware,KiCad,Pcbnew,10.0.6*%
%TF.CreationDate,2026-09-25T18:12:47+02:00*%
%TF.ProjectId,pocketbeagle2_ethernet_cap,706f636b-6574-4626-9561-676c65325f65,rev?*%
%TF.SameCoordinates,Original*%
%TF.FileFunction,Drillmap*%
%TF.FilePolarity,Positive*%
%FSLAX45Y45*%
G04 Gerber Fmt 4.5, Leading zero omitted, Abs format (unit mm)*
G04 Created by KiCad (PCBNEW 10.0.6) date 2026-09-25 18:12:47*
%MOMM*%
%LPD*%
G01*
G04 APERTURE LIST*
%ADD10C,0.050000*%
%ADD11C,0.200000*%
%ADD12C,0.100000*%
%ADD13C,0.165000*%
G04 APERTURE END LIST*
D10*
X17895760Y-6525000D02*
G75*
G02*
X18920760Y-5500000I1025000J0D01*
G01*
X17895760Y-10002250D02*
X17895760Y-6525000D01*
X18920760Y-5500000D02*
X20400000Y-5500000D01*
X18920760Y-11027250D02*
G75*
G02*
X17895760Y-10002250I0J1025000D01*
G01*
X20400000Y-5500000D02*
G75*
G02*
X21425000Y-6525000I0J-1025000D01*
G01*
X20400000Y-11027250D02*
X18920760Y-11027250D01*
X21425000Y-6525000D02*
X21425000Y-10002250D01*
X21425000Y-10002250D02*
G75*
G02*
X20400000Y-11027250I-1025000J0D01*
G01*
D11*
D12*
X17965000Y-7480000D02*
X17985000Y-7500000D01*
X17985000Y-7480000D02*
X17965000Y-7500000D01*
X17990000Y-7840000D02*
X18010000Y-7860000D01*
X18010000Y-7840000D02*
X17990000Y-7860000D01*
X17990000Y-8040000D02*
X18010000Y-8060000D01*
X18010000Y-8040000D02*
X17990000Y-8060000D01*
X17990000Y-8240000D02*
X18010000Y-8260000D01*
X18010000Y-8240000D02*
X17990000Y-8260000D01*
X17990000Y-8440000D02*
X18010000Y-8460000D01*
X18010000Y-8440000D02*
X17990000Y-8460000D01*
X17990000Y-8640000D02*
X18010000Y-8660000D01*
X18010000Y-8640000D02*
X17990000Y-8660000D01*
X17990000Y-8840000D02*
X18010000Y-8860000D01*
X18010000Y-8840000D02*
X17990000Y-8860000D01*
X17990000Y-9040000D02*
X18010000Y-9060000D01*
X18010000Y-9040000D02*
X17990000Y-9060000D01*
X17990000Y-9240000D02*
X18010000Y-9260000D01*
X18010000Y-9240000D02*
X17990000Y-9260000D01*
X17990000Y-9440000D02*
X18010000Y-9460000D01*
X18010000Y-9440000D02*
X17990000Y-9460000D01*
X17990000Y-9640000D02*
X18010000Y-9660000D01*
X18010000Y-9640000D02*
X17990000Y-9660000D01*
X17990000Y-9840000D02*
X18010000Y-9860000D01*
X18010000Y-9840000D02*
X17990000Y-9860000D01*
X18035000Y-7420000D02*
X18055000Y-7440000D01*
X18055000Y-7420000D02*
X18035000Y-7440000D01*
X18055000Y-10039000D02*
X18075000Y-10059000D01*
X18075000Y-10039000D02*
X18055000Y-10059000D01*
X18105000Y-7360000D02*
X18125000Y-7380000D01*
X18125000Y-7360000D02*
X18105000Y-7380000D01*
X18190000Y-10590000D02*
X18210000Y-10610000D01*
X18210000Y-10590000D02*
X18190000Y-10610000D01*
X18340000Y-7740000D02*
X18360000Y-7760000D01*
X18360000Y-7740000D02*
X18340000Y-7760000D01*
X18340000Y-9540000D02*
X18360000Y-9560000D01*
X18360000Y-9540000D02*
X18340000Y-9560000D01*
X18340000Y-10290000D02*
X18360000Y-10310000D01*
X18360000Y-10290000D02*
X18340000Y-10310000D01*
X18340000Y-10740000D02*
X18360000Y-10760000D01*
X18360000Y-10740000D02*
X18340000Y-10760000D01*
X18376000Y-6035000D02*
X18396000Y-6055000D01*
X18396000Y-6035000D02*
X18376000Y-6055000D01*
X18390000Y-5740000D02*
X18410000Y-5760000D01*
X18410000Y-5740000D02*
X18390000Y-5760000D01*
X18390000Y-8040000D02*
X18410000Y-8060000D01*
X18410000Y-8040000D02*
X18390000Y-8060000D01*
X18540000Y-10840000D02*
X18560000Y-10860000D01*
X18560000Y-10840000D02*
X18540000Y-10860000D01*
X18590000Y-5740000D02*
X18610000Y-5760000D01*
X18610000Y-5740000D02*
X18590000Y-5760000D01*
X18670000Y-6990000D02*
X18690000Y-7010000D01*
X18690000Y-6990000D02*
X18670000Y-7010000D01*
X18690000Y-9390000D02*
X18710000Y-9410000D01*
X18710000Y-9390000D02*
X18690000Y-9410000D01*
X18697000Y-9440000D02*
X18717000Y-9460000D01*
X18717000Y-9440000D02*
X18697000Y-9460000D01*
X18712000Y-9325000D02*
X18732000Y-9345000D01*
X18732000Y-9325000D02*
X18712000Y-9345000D01*
X18740000Y-5590000D02*
X18760000Y-5610000D01*
X18760000Y-5590000D02*
X18740000Y-5610000D01*
X18740000Y-9690000D02*
X18760000Y-9710000D01*
X18760000Y-9690000D02*
X18740000Y-9710000D01*
X18795000Y-6520000D02*
X18815000Y-6540000D01*
X18815000Y-6520000D02*
X18795000Y-6540000D01*
X18810000Y-9680000D02*
X18830000Y-9700000D01*
X18830000Y-9680000D02*
X18810000Y-9700000D01*
X18830000Y-5840000D02*
X18850000Y-5860000D01*
X18850000Y-5840000D02*
X18830000Y-5860000D01*
X18840000Y-9810000D02*
X18860000Y-9830000D01*
X18860000Y-9810000D02*
X18840000Y-9830000D01*
X18878000Y-9610000D02*
X18898000Y-9630000D01*
X18898000Y-9610000D02*
X18878000Y-9630000D01*
X18890000Y-7390000D02*
X18910000Y-7410000D01*
X18910000Y-7390000D02*
X18890000Y-7410000D01*
X18900000Y-6350000D02*
X18920000Y-6370000D01*
X18920000Y-6350000D02*
X18900000Y-6370000D01*
X18910000Y-7120000D02*
X18930000Y-7140000D01*
X18930000Y-7120000D02*
X18910000Y-7140000D01*
X18927000Y-9420000D02*
X18947000Y-9440000D01*
X18947000Y-9420000D02*
X18927000Y-9440000D01*
X18930000Y-7910000D02*
X18950000Y-7930000D01*
X18950000Y-7910000D02*
X18930000Y-7930000D01*
X18932000Y-9485000D02*
X18952000Y-9505000D01*
X18952000Y-9485000D02*
X18932000Y-9505000D01*
X18938000Y-9330000D02*
X18958000Y-9350000D01*
X18958000Y-9330000D02*
X18938000Y-9350000D01*
X18965000Y-8990000D02*
X18985000Y-9010000D01*
X18985000Y-8990000D02*
X18965000Y-9010000D01*
X18965000Y-9120000D02*
X18985000Y-9140000D01*
X18985000Y-9120000D02*
X18965000Y-9140000D01*
X18990000Y-5590000D02*
X19010000Y-5610000D01*
X19010000Y-5590000D02*
X18990000Y-5610000D01*
X18990000Y-9290000D02*
X19010000Y-9310000D01*
X19010000Y-9290000D02*
X18990000Y-9310000D01*
X19035000Y-8893000D02*
X19055000Y-8913000D01*
X19055000Y-8893000D02*
X19035000Y-8913000D01*
X19040000Y-7160000D02*
X19060000Y-7180000D01*
X19060000Y-7160000D02*
X19040000Y-7180000D01*
X19063000Y-9250000D02*
X19083000Y-9270000D01*
X19083000Y-9250000D02*
X19063000Y-9270000D01*
X19070000Y-7350000D02*
X19090000Y-7370000D01*
X19090000Y-7350000D02*
X19070000Y-7370000D01*
X19090000Y-7740000D02*
X19110000Y-7760000D01*
X19110000Y-7740000D02*
X19090000Y-7760000D01*
X19095000Y-6270000D02*
X19115000Y-6290000D01*
X19115000Y-6270000D02*
X19095000Y-6290000D01*
X19170000Y-7200000D02*
X19190000Y-7220000D01*
X19190000Y-7200000D02*
X19170000Y-7220000D01*
X19177000Y-9105000D02*
X19197000Y-9125000D01*
X19197000Y-9105000D02*
X19177000Y-9125000D01*
X19186000Y-8435000D02*
X19206000Y-8455000D01*
X19206000Y-8435000D02*
X19186000Y-8455000D01*
X19190000Y-8563000D02*
X19210000Y-8583000D01*
X19210000Y-8563000D02*
X19190000Y-8583000D01*
X19200000Y-5840000D02*
X19220000Y-5860000D01*
X19220000Y-5840000D02*
X19200000Y-5860000D01*
X19245000Y-8210000D02*
X19265000Y-8230000D01*
X19265000Y-8210000D02*
X19245000Y-8230000D01*
X19270000Y-7350000D02*
X19290000Y-7370000D01*
X19290000Y-7350000D02*
X19270000Y-7370000D01*
X19290000Y-8290000D02*
X19310000Y-8310000D01*
X19310000Y-8290000D02*
X19290000Y-8310000D01*
X19300000Y-7240000D02*
X19320000Y-7260000D01*
X19320000Y-7240000D02*
X19300000Y-7260000D01*
X19322000Y-8840000D02*
X19342000Y-8860000D01*
X19342000Y-8840000D02*
X19322000Y-8860000D01*
X19340000Y-5590000D02*
X19360000Y-5610000D01*
X19360000Y-5590000D02*
X19340000Y-5610000D01*
X19415000Y-6200000D02*
X19435000Y-6220000D01*
X19435000Y-6200000D02*
X19415000Y-6220000D01*
X19421000Y-8920000D02*
X19441000Y-8940000D01*
X19441000Y-8920000D02*
X19421000Y-8940000D01*
X19430000Y-7280000D02*
X19450000Y-7300000D01*
X19450000Y-7280000D02*
X19430000Y-7300000D01*
X19443000Y-8750000D02*
X19463000Y-8770000D01*
X19463000Y-8750000D02*
X19443000Y-8770000D01*
X19475000Y-7350000D02*
X19495000Y-7370000D01*
X19495000Y-7350000D02*
X19475000Y-7370000D01*
X19498000Y-8165800D02*
X19518000Y-8185800D01*
X19518000Y-8165800D02*
X19498000Y-8185800D01*
X19511100Y-8923400D02*
X19531100Y-8943400D01*
X19531100Y-8923400D02*
X19511100Y-8943400D01*
X19570000Y-5840000D02*
X19590000Y-5860000D01*
X19590000Y-5840000D02*
X19570000Y-5860000D01*
X19570000Y-6065000D02*
X19590000Y-6085000D01*
X19590000Y-6065000D02*
X19570000Y-6085000D01*
X19571000Y-8025000D02*
X19591000Y-8045000D01*
X19591000Y-8025000D02*
X19571000Y-8045000D01*
X19580000Y-7720000D02*
X19600000Y-7740000D01*
X19600000Y-7720000D02*
X19580000Y-7740000D01*
X19605000Y-6200000D02*
X19625000Y-6220000D01*
X19625000Y-6200000D02*
X19605000Y-6220000D01*
X19605000Y-7777000D02*
X19625000Y-7797000D01*
X19625000Y-7777000D02*
X19605000Y-7797000D01*
X19610000Y-7630000D02*
X19630000Y-7650000D01*
X19630000Y-7630000D02*
X19610000Y-7650000D01*
X19621000Y-8920000D02*
X19641000Y-8940000D01*
X19641000Y-8920000D02*
X19621000Y-8940000D01*
X19658000Y-9270000D02*
X19678000Y-9290000D01*
X19678000Y-9270000D02*
X19658000Y-9290000D01*
X19671000Y-7420000D02*
X19691000Y-7440000D01*
X19691000Y-7420000D02*
X19671000Y-7440000D01*
X19671000Y-7510000D02*
X19691000Y-7530000D01*
X19691000Y-7510000D02*
X19671000Y-7530000D01*
X19690000Y-5590000D02*
X19710000Y-5610000D01*
X19710000Y-5590000D02*
X19690000Y-5610000D01*
X19690000Y-7372000D02*
X19710000Y-7392000D01*
X19710000Y-7372000D02*
X19690000Y-7392000D01*
X19693000Y-8165800D02*
X19713000Y-8185800D01*
X19713000Y-8165800D02*
X19693000Y-8185800D01*
X19720000Y-7472000D02*
X19740000Y-7492000D01*
X19740000Y-7472000D02*
X19720000Y-7492000D01*
X19720000Y-8025000D02*
X19740000Y-8045000D01*
X19740000Y-8025000D02*
X19720000Y-8045000D01*
X19721000Y-7680000D02*
X19741000Y-7700000D01*
X19741000Y-7680000D02*
X19721000Y-7700000D01*
X19724000Y-8800000D02*
X19744000Y-8820000D01*
X19744000Y-8800000D02*
X19724000Y-8820000D01*
X19765000Y-6200000D02*
X19785000Y-6220000D01*
X19785000Y-6200000D02*
X19765000Y-6220000D01*
X19771000Y-7750000D02*
X19791000Y-7770000D01*
X19791000Y-7750000D02*
X19771000Y-7770000D01*
X19790000Y-5890000D02*
X19810000Y-5910000D01*
X19810000Y-5890000D02*
X19790000Y-5910000D01*
X19821000Y-8925000D02*
X19841000Y-8945000D01*
X19841000Y-8925000D02*
X19821000Y-8945000D01*
X19871000Y-7750000D02*
X19891000Y-7770000D01*
X19891000Y-7750000D02*
X19871000Y-7770000D01*
X19890000Y-5590000D02*
X19910000Y-5610000D01*
X19910000Y-5590000D02*
X19890000Y-5610000D01*
X19911100Y-8923400D02*
X19931100Y-8943400D01*
X19931100Y-8923400D02*
X19911100Y-8943400D01*
X19920000Y-6065000D02*
X19940000Y-6085000D01*
X19940000Y-6065000D02*
X19920000Y-6085000D01*
X19920000Y-7032000D02*
X19940000Y-7052000D01*
X19940000Y-7032000D02*
X19920000Y-7052000D01*
X19920000Y-7412000D02*
X19940000Y-7432000D01*
X19940000Y-7412000D02*
X19920000Y-7432000D01*
X19921000Y-7680000D02*
X19941000Y-7700000D01*
X19941000Y-7680000D02*
X19921000Y-7700000D01*
X19940000Y-7512000D02*
X19960000Y-7532000D01*
X19960000Y-7512000D02*
X19940000Y-7532000D01*
X19953000Y-8200000D02*
X19973000Y-8220000D01*
X19973000Y-8200000D02*
X19953000Y-8220000D01*
X19955000Y-6200000D02*
X19975000Y-6220000D01*
X19975000Y-6200000D02*
X19955000Y-6220000D01*
X19990000Y-8340000D02*
X20010000Y-8360000D01*
X20010000Y-8340000D02*
X19990000Y-8360000D01*
X19990000Y-8640000D02*
X20010000Y-8660000D01*
X20010000Y-8640000D02*
X19990000Y-8660000D01*
X20000000Y-7730000D02*
X20020000Y-7750000D01*
X20020000Y-7730000D02*
X20000000Y-7750000D01*
X20015000Y-8570000D02*
X20035000Y-8590000D01*
X20035000Y-8570000D02*
X20015000Y-8590000D01*
X20046000Y-9440000D02*
X20066000Y-9460000D01*
X20066000Y-9440000D02*
X20046000Y-9460000D01*
X20083000Y-7785800D02*
X20103000Y-7805800D01*
X20103000Y-7785800D02*
X20083000Y-7805800D01*
X20090000Y-5590000D02*
X20110000Y-5610000D01*
X20110000Y-5590000D02*
X20090000Y-5610000D01*
X20090000Y-8040000D02*
X20110000Y-8060000D01*
X20110000Y-8040000D02*
X20090000Y-8060000D01*
X20100000Y-8237000D02*
X20120000Y-8257000D01*
X20120000Y-8237000D02*
X20100000Y-8257000D01*
X20107000Y-9550000D02*
X20127000Y-9570000D01*
X20127000Y-9550000D02*
X20107000Y-9570000D01*
X20115000Y-6200000D02*
X20135000Y-6220000D01*
X20135000Y-6200000D02*
X20115000Y-6220000D01*
X20130000Y-9440000D02*
X20150000Y-9460000D01*
X20150000Y-9440000D02*
X20130000Y-9460000D01*
X20160000Y-9120000D02*
X20180000Y-9140000D01*
X20180000Y-9120000D02*
X20160000Y-9140000D01*
X20170000Y-9267000D02*
X20190000Y-9287000D01*
X20190000Y-9267000D02*
X20170000Y-9287000D01*
X20185000Y-7920000D02*
X20205000Y-7940000D01*
X20205000Y-7920000D02*
X20185000Y-7940000D01*
X20190000Y-8990000D02*
X20210000Y-9010000D01*
X20210000Y-8990000D02*
X20190000Y-9010000D01*
X20199000Y-8900800D02*
X20219000Y-8920800D01*
X20219000Y-8900800D02*
X20199000Y-8920800D01*
X20270000Y-6065000D02*
X20290000Y-6085000D01*
X20290000Y-6065000D02*
X20270000Y-6085000D01*
X20290000Y-5590000D02*
X20310000Y-5610000D01*
X20310000Y-5590000D02*
X20290000Y-5610000D01*
X20295000Y-10025000D02*
X20315000Y-10045000D01*
X20315000Y-10025000D02*
X20295000Y-10045000D01*
X20305000Y-6200000D02*
X20325000Y-6220000D01*
X20325000Y-6200000D02*
X20305000Y-6220000D01*
X20310000Y-8915000D02*
X20330000Y-8935000D01*
X20330000Y-8915000D02*
X20310000Y-8935000D01*
X20350000Y-8450000D02*
X20370000Y-8470000D01*
X20370000Y-8450000D02*
X20350000Y-8470000D01*
X20375000Y-7020000D02*
X20395000Y-7040000D01*
X20395000Y-7020000D02*
X20375000Y-7040000D01*
X20380000Y-9550000D02*
X20400000Y-9570000D01*
X20400000Y-9550000D02*
X20380000Y-9570000D01*
X20388750Y-9440000D02*
X20408750Y-9460000D01*
X20408750Y-9440000D02*
X20388750Y-9460000D01*
X20390000Y-5890000D02*
X20410000Y-5910000D01*
X20410000Y-5890000D02*
X20390000Y-5910000D01*
X20390000Y-8380000D02*
X20410000Y-8400000D01*
X20410000Y-8380000D02*
X20390000Y-8400000D01*
X20433000Y-9645000D02*
X20453000Y-9665000D01*
X20453000Y-9645000D02*
X20433000Y-9665000D01*
X20450000Y-9800000D02*
X20470000Y-9820000D01*
X20470000Y-9800000D02*
X20450000Y-9820000D01*
X20490000Y-9647000D02*
X20510000Y-9667000D01*
X20510000Y-9647000D02*
X20490000Y-9667000D01*
X20523000Y-8517500D02*
X20543000Y-8537500D01*
X20543000Y-8517500D02*
X20523000Y-8537500D01*
X20529000Y-8325000D02*
X20549000Y-8345000D01*
X20549000Y-8325000D02*
X20529000Y-8345000D01*
X20539000Y-6010000D02*
X20559000Y-6030000D01*
X20559000Y-6010000D02*
X20539000Y-6030000D01*
X20539000Y-6737000D02*
X20559000Y-6757000D01*
X20559000Y-6737000D02*
X20539000Y-6757000D01*
X20540000Y-5590000D02*
X20560000Y-5610000D01*
X20560000Y-5590000D02*
X20540000Y-5610000D01*
X20568000Y-8760000D02*
X20588000Y-8780000D01*
X20588000Y-8760000D02*
X20568000Y-8780000D01*
X20580000Y-7850000D02*
X20600000Y-7870000D01*
X20600000Y-7850000D02*
X20580000Y-7870000D01*
X20583300Y-8958500D02*
X20603300Y-8978500D01*
X20603300Y-8958500D02*
X20583300Y-8978500D01*
X20590000Y-9765000D02*
X20610000Y-9785000D01*
X20610000Y-9765000D02*
X20590000Y-9785000D01*
X20600000Y-9123000D02*
X20620000Y-9143000D01*
X20620000Y-9123000D02*
X20600000Y-9143000D01*
X20610000Y-9300000D02*
X20630000Y-9320000D01*
X20630000Y-9300000D02*
X20610000Y-9320000D01*
X20620000Y-9495000D02*
X20640000Y-9515000D01*
X20640000Y-9495000D02*
X20620000Y-9515000D01*
X20625000Y-8435000D02*
X20645000Y-8455000D01*
X20645000Y-8435000D02*
X20625000Y-8455000D01*
X20635000Y-7950000D02*
X20655000Y-7970000D01*
X20655000Y-7950000D02*
X20635000Y-7970000D01*
X20635000Y-8560000D02*
X20655000Y-8580000D01*
X20655000Y-8560000D02*
X20635000Y-8580000D01*
X20635000Y-8760000D02*
X20655000Y-8780000D01*
X20655000Y-8760000D02*
X20635000Y-8780000D01*
X20640000Y-6840000D02*
X20660000Y-6860000D01*
X20660000Y-6840000D02*
X20640000Y-6860000D01*
X20640000Y-7140000D02*
X20660000Y-7160000D01*
X20660000Y-7140000D02*
X20640000Y-7160000D01*
X20640000Y-9990000D02*
X20660000Y-10010000D01*
X20660000Y-9990000D02*
X20640000Y-10010000D01*
X20690000Y-5940000D02*
X20710000Y-5960000D01*
X20710000Y-5940000D02*
X20690000Y-5960000D01*
X20690000Y-6490000D02*
X20710000Y-6510000D01*
X20710000Y-6490000D02*
X20690000Y-6510000D01*
X20740000Y-5640000D02*
X20760000Y-5660000D01*
X20760000Y-5640000D02*
X20740000Y-5660000D01*
X20890000Y-10790000D02*
X20910000Y-10810000D01*
X20910000Y-10790000D02*
X20890000Y-10810000D01*
X20940000Y-7240000D02*
X20960000Y-7260000D01*
X20960000Y-7240000D02*
X20940000Y-7260000D01*
X20940000Y-7740000D02*
X20960000Y-7760000D01*
X20960000Y-7740000D02*
X20940000Y-7760000D01*
X20940000Y-8240000D02*
X20960000Y-8260000D01*
X20960000Y-8240000D02*
X20940000Y-8260000D01*
X20940000Y-9290000D02*
X20960000Y-9310000D01*
X20960000Y-9290000D02*
X20940000Y-9310000D01*
X20940000Y-9790000D02*
X20960000Y-9810000D01*
X20960000Y-9790000D02*
X20940000Y-9810000D01*
X20940000Y-10290000D02*
X20960000Y-10310000D01*
X20960000Y-10290000D02*
X20940000Y-10310000D01*
X20990000Y-5790000D02*
X21010000Y-5810000D01*
X21010000Y-5790000D02*
X20990000Y-5810000D01*
X21040000Y-10640000D02*
X21060000Y-10660000D01*
X21060000Y-10640000D02*
X21040000Y-10660000D01*
X21190000Y-6040000D02*
X21210000Y-6060000D01*
X21210000Y-6040000D02*
X21190000Y-6060000D01*
X21190000Y-10490000D02*
X21210000Y-10510000D01*
X21210000Y-10490000D02*
X21190000Y-10510000D01*
X21200000Y-9540000D02*
X21220000Y-9560000D01*
X21220000Y-9540000D02*
X21200000Y-9560000D01*
X21220000Y-9088000D02*
X21240000Y-9108000D01*
X21240000Y-9088000D02*
X21220000Y-9108000D01*
X21220000Y-9288000D02*
X21240000Y-9308000D01*
X21240000Y-9288000D02*
X21220000Y-9308000D01*
X21290000Y-9090000D02*
X21310000Y-9110000D01*
X21310000Y-9090000D02*
X21290000Y-9110000D01*
X21290000Y-9290000D02*
X21310000Y-9310000D01*
X21310000Y-9290000D02*
X21290000Y-9310000D01*
X21290000Y-9490000D02*
X21310000Y-9510000D01*
X21310000Y-9490000D02*
X21290000Y-9510000D01*
X21290000Y-9690000D02*
X21310000Y-9710000D01*
X21310000Y-9690000D02*
X21290000Y-9710000D01*
X21290000Y-10040000D02*
X21310000Y-10060000D01*
X21310000Y-10040000D02*
X21290000Y-10060000D01*
X21290000Y-10240000D02*
X21310000Y-10260000D01*
X21310000Y-10240000D02*
X21290000Y-10260000D01*
X19471160Y-8405000D02*
G75*
G02*
X19450840Y-8405000I-10160J0D01*
G01*
X19450840Y-8405000D02*
G75*
G02*
X19471160Y-8405000I10160J0D01*
G01*
X19471160Y-8537500D02*
G75*
G02*
X19450840Y-8537500I-10160J0D01*
G01*
X19450840Y-8537500D02*
G75*
G02*
X19471160Y-8537500I10160J0D01*
G01*
X19471160Y-8667500D02*
G75*
G02*
X19450840Y-8667500I-10160J0D01*
G01*
X19450840Y-8667500D02*
G75*
G02*
X19471160Y-8667500I10160J0D01*
G01*
X19473660Y-8277500D02*
G75*
G02*
X19453340Y-8277500I-10160J0D01*
G01*
X19453340Y-8277500D02*
G75*
G02*
X19473660Y-8277500I10160J0D01*
G01*
X19601160Y-8277500D02*
G75*
G02*
X19580840Y-8277500I-10160J0D01*
G01*
X19580840Y-8277500D02*
G75*
G02*
X19601160Y-8277500I10160J0D01*
G01*
X19601160Y-8407500D02*
G75*
G02*
X19580840Y-8407500I-10160J0D01*
G01*
X19580840Y-8407500D02*
G75*
G02*
X19601160Y-8407500I10160J0D01*
G01*
X19601160Y-8537500D02*
G75*
G02*
X19580840Y-8537500I-10160J0D01*
G01*
X19580840Y-8537500D02*
G75*
G02*
X19601160Y-8537500I10160J0D01*
G01*
X19601160Y-8667500D02*
G75*
G02*
X19580840Y-8667500I-10160J0D01*
G01*
X19580840Y-8667500D02*
G75*
G02*
X19601160Y-8667500I10160J0D01*
G01*
X19731160Y-8277500D02*
G75*
G02*
X19710840Y-8277500I-10160J0D01*
G01*
X19710840Y-8277500D02*
G75*
G02*
X19731160Y-8277500I10160J0D01*
G01*
X19731160Y-8407500D02*
G75*
G02*
X19710840Y-8407500I-10160J0D01*
G01*
X19710840Y-8407500D02*
G75*
G02*
X19731160Y-8407500I10160J0D01*
G01*
X19731160Y-8537500D02*
G75*
G02*
X19710840Y-8537500I-10160J0D01*
G01*
X19710840Y-8537500D02*
G75*
G02*
X19731160Y-8537500I10160J0D01*
G01*
X19731160Y-8667500D02*
G75*
G02*
X19710840Y-8667500I-10160J0D01*
G01*
X19710840Y-8667500D02*
G75*
G02*
X19731160Y-8667500I10160J0D01*
G01*
X19861160Y-8277500D02*
G75*
G02*
X19840840Y-8277500I-10160J0D01*
G01*
X19840840Y-8277500D02*
G75*
G02*
X19861160Y-8277500I10160J0D01*
G01*
X19861160Y-8407500D02*
G75*
G02*
X19840840Y-8407500I-10160J0D01*
G01*
X19840840Y-8407500D02*
G75*
G02*
X19861160Y-8407500I10160J0D01*
G01*
X19861160Y-8537500D02*
G75*
G02*
X19840840Y-8537500I-10160J0D01*
G01*
X19840840Y-8537500D02*
G75*
G02*
X19861160Y-8537500I10160J0D01*
G01*
X19861160Y-8667500D02*
G75*
G02*
X19840840Y-8667500I-10160J0D01*
G01*
X19840840Y-8667500D02*
G75*
G02*
X19861160Y-8667500I10160J0D01*
G01*
X19084681Y-9917631D02*
X19084681Y-10014631D01*
X19036181Y-9966131D02*
X19133181Y-9966131D01*
X19211681Y-9663631D02*
X19211681Y-9760631D01*
X19163181Y-9712131D02*
X19260181Y-9712131D01*
X19338681Y-9917631D02*
X19338681Y-10014631D01*
X19290181Y-9966131D02*
X19387181Y-9966131D01*
X19465681Y-9663631D02*
X19465681Y-9760631D01*
X19417181Y-9712131D02*
X19514181Y-9712131D01*
X19592681Y-9917631D02*
X19592681Y-10014631D01*
X19544181Y-9966131D02*
X19641181Y-9966131D01*
X19719681Y-9663631D02*
X19719681Y-9760631D01*
X19671181Y-9712131D02*
X19768181Y-9712131D01*
X19846681Y-9917631D02*
X19846681Y-10014631D01*
X19798181Y-9966131D02*
X19895181Y-9966131D01*
X19973681Y-9663631D02*
X19973681Y-9760631D01*
X19925181Y-9712131D02*
X20022181Y-9712131D01*
X20100681Y-9917631D02*
X20100681Y-10014631D01*
X20052181Y-9966131D02*
X20149181Y-9966131D01*
X20227681Y-9663631D02*
X20227681Y-9760631D01*
X20179181Y-9712131D02*
X20276181Y-9712131D01*
X18294356Y-6147356D02*
X18294356Y-6076644D01*
X18223644Y-6076644D01*
X18223644Y-6147356D01*
X18294356Y-6147356D01*
X18294356Y-6147356D02*
X18294356Y-6076644D01*
X18223644Y-6076644D01*
X18223644Y-6147356D01*
X18294356Y-6147356D01*
X18294356Y-6401356D02*
X18294356Y-6330644D01*
X18223644Y-6330644D01*
X18223644Y-6401356D01*
X18294356Y-6401356D01*
X18294356Y-6401356D02*
X18294356Y-6330644D01*
X18223644Y-6330644D01*
X18223644Y-6401356D01*
X18294356Y-6401356D01*
X18294356Y-6655356D02*
X18294356Y-6584644D01*
X18223644Y-6584644D01*
X18223644Y-6655356D01*
X18294356Y-6655356D01*
X18294356Y-6655356D02*
X18294356Y-6584644D01*
X18223644Y-6584644D01*
X18223644Y-6655356D01*
X18294356Y-6655356D01*
X18294356Y-6909356D02*
X18294356Y-6838644D01*
X18223644Y-6838644D01*
X18223644Y-6909356D01*
X18294356Y-6909356D01*
X18294356Y-6909356D02*
X18294356Y-6838644D01*
X18223644Y-6838644D01*
X18223644Y-6909356D01*
X18294356Y-6909356D01*
X18294356Y-7163356D02*
X18294356Y-7092644D01*
X18223644Y-7092644D01*
X18223644Y-7163356D01*
X18294356Y-7163356D01*
X18294356Y-7163356D02*
X18294356Y-7092644D01*
X18223644Y-7092644D01*
X18223644Y-7163356D01*
X18294356Y-7163356D01*
X18294356Y-7417356D02*
X18294356Y-7346644D01*
X18223644Y-7346644D01*
X18223644Y-7417356D01*
X18294356Y-7417356D01*
X18294356Y-7417356D02*
X18294356Y-7346644D01*
X18223644Y-7346644D01*
X18223644Y-7417356D01*
X18294356Y-7417356D01*
X18294356Y-7671356D02*
X18294356Y-7600644D01*
X18223644Y-7600644D01*
X18223644Y-7671356D01*
X18294356Y-7671356D01*
X18294356Y-7671356D02*
X18294356Y-7600644D01*
X18223644Y-7600644D01*
X18223644Y-7671356D01*
X18294356Y-7671356D01*
X18294356Y-7925356D02*
X18294356Y-7854644D01*
X18223644Y-7854644D01*
X18223644Y-7925356D01*
X18294356Y-7925356D01*
X18294356Y-7925356D02*
X18294356Y-7854644D01*
X18223644Y-7854644D01*
X18223644Y-7925356D01*
X18294356Y-7925356D01*
X18294356Y-8179356D02*
X18294356Y-8108644D01*
X18223644Y-8108644D01*
X18223644Y-8179356D01*
X18294356Y-8179356D01*
X18294356Y-8179356D02*
X18294356Y-8108644D01*
X18223644Y-8108644D01*
X18223644Y-8179356D01*
X18294356Y-8179356D01*
X18294356Y-8433356D02*
X18294356Y-8362644D01*
X18223644Y-8362644D01*
X18223644Y-8433356D01*
X18294356Y-8433356D01*
X18294356Y-8433356D02*
X18294356Y-8362644D01*
X18223644Y-8362644D01*
X18223644Y-8433356D01*
X18294356Y-8433356D01*
X18294356Y-8687356D02*
X18294356Y-8616644D01*
X18223644Y-8616644D01*
X18223644Y-8687356D01*
X18294356Y-8687356D01*
X18294356Y-8687356D02*
X18294356Y-8616644D01*
X18223644Y-8616644D01*
X18223644Y-8687356D01*
X18294356Y-8687356D01*
X18294356Y-8941356D02*
X18294356Y-8870644D01*
X18223644Y-8870644D01*
X18223644Y-8941356D01*
X18294356Y-8941356D01*
X18294356Y-8941356D02*
X18294356Y-8870644D01*
X18223644Y-8870644D01*
X18223644Y-8941356D01*
X18294356Y-8941356D01*
X18294356Y-9195356D02*
X18294356Y-9124644D01*
X18223644Y-9124644D01*
X18223644Y-9195356D01*
X18294356Y-9195356D01*
X18294356Y-9195356D02*
X18294356Y-9124644D01*
X18223644Y-9124644D01*
X18223644Y-9195356D01*
X18294356Y-9195356D01*
X18294356Y-9449356D02*
X18294356Y-9378644D01*
X18223644Y-9378644D01*
X18223644Y-9449356D01*
X18294356Y-9449356D01*
X18294356Y-9449356D02*
X18294356Y-9378644D01*
X18223644Y-9378644D01*
X18223644Y-9449356D01*
X18294356Y-9449356D01*
X18294356Y-9703356D02*
X18294356Y-9632644D01*
X18223644Y-9632644D01*
X18223644Y-9703356D01*
X18294356Y-9703356D01*
X18294356Y-9703356D02*
X18294356Y-9632644D01*
X18223644Y-9632644D01*
X18223644Y-9703356D01*
X18294356Y-9703356D01*
X18294356Y-9957356D02*
X18294356Y-9886644D01*
X18223644Y-9886644D01*
X18223644Y-9957356D01*
X18294356Y-9957356D01*
X18294356Y-9957356D02*
X18294356Y-9886644D01*
X18223644Y-9886644D01*
X18223644Y-9957356D01*
X18294356Y-9957356D01*
X18294356Y-10211356D02*
X18294356Y-10140644D01*
X18223644Y-10140644D01*
X18223644Y-10211356D01*
X18294356Y-10211356D01*
X18294356Y-10211356D02*
X18294356Y-10140644D01*
X18223644Y-10140644D01*
X18223644Y-10211356D01*
X18294356Y-10211356D01*
X18294356Y-10465356D02*
X18294356Y-10394644D01*
X18223644Y-10394644D01*
X18223644Y-10465356D01*
X18294356Y-10465356D01*
X18294356Y-10465356D02*
X18294356Y-10394644D01*
X18223644Y-10394644D01*
X18223644Y-10465356D01*
X18294356Y-10465356D01*
X18548356Y-6147356D02*
X18548356Y-6076644D01*
X18477644Y-6076644D01*
X18477644Y-6147356D01*
X18548356Y-6147356D01*
X18548356Y-6147356D02*
X18548356Y-6076644D01*
X18477644Y-6076644D01*
X18477644Y-6147356D01*
X18548356Y-6147356D01*
X18548356Y-6401356D02*
X18548356Y-6330644D01*
X18477644Y-6330644D01*
X18477644Y-6401356D01*
X18548356Y-6401356D01*
X18548356Y-6401356D02*
X18548356Y-6330644D01*
X18477644Y-6330644D01*
X18477644Y-6401356D01*
X18548356Y-6401356D01*
X18548356Y-6655356D02*
X18548356Y-6584644D01*
X18477644Y-6584644D01*
X18477644Y-6655356D01*
X18548356Y-6655356D01*
X18548356Y-6655356D02*
X18548356Y-6584644D01*
X18477644Y-6584644D01*
X18477644Y-6655356D01*
X18548356Y-6655356D01*
X18548356Y-6909356D02*
X18548356Y-6838644D01*
X18477644Y-6838644D01*
X18477644Y-6909356D01*
X18548356Y-6909356D01*
X18548356Y-6909356D02*
X18548356Y-6838644D01*
X18477644Y-6838644D01*
X18477644Y-6909356D01*
X18548356Y-6909356D01*
X18548356Y-7163356D02*
X18548356Y-7092644D01*
X18477644Y-7092644D01*
X18477644Y-7163356D01*
X18548356Y-7163356D01*
X18548356Y-7163356D02*
X18548356Y-7092644D01*
X18477644Y-7092644D01*
X18477644Y-7163356D01*
X18548356Y-7163356D01*
X18548356Y-7417356D02*
X18548356Y-7346644D01*
X18477644Y-7346644D01*
X18477644Y-7417356D01*
X18548356Y-7417356D01*
X18548356Y-7417356D02*
X18548356Y-7346644D01*
X18477644Y-7346644D01*
X18477644Y-7417356D01*
X18548356Y-7417356D01*
X18548356Y-7671356D02*
X18548356Y-7600644D01*
X18477644Y-7600644D01*
X18477644Y-7671356D01*
X18548356Y-7671356D01*
X18548356Y-7671356D02*
X18548356Y-7600644D01*
X18477644Y-7600644D01*
X18477644Y-7671356D01*
X18548356Y-7671356D01*
X18548356Y-7925356D02*
X18548356Y-7854644D01*
X18477644Y-7854644D01*
X18477644Y-7925356D01*
X18548356Y-7925356D01*
X18548356Y-7925356D02*
X18548356Y-7854644D01*
X18477644Y-7854644D01*
X18477644Y-7925356D01*
X18548356Y-7925356D01*
X18548356Y-8179356D02*
X18548356Y-8108644D01*
X18477644Y-8108644D01*
X18477644Y-8179356D01*
X18548356Y-8179356D01*
X18548356Y-8179356D02*
X18548356Y-8108644D01*
X18477644Y-8108644D01*
X18477644Y-8179356D01*
X18548356Y-8179356D01*
X18548356Y-8433356D02*
X18548356Y-8362644D01*
X18477644Y-8362644D01*
X18477644Y-8433356D01*
X18548356Y-8433356D01*
X18548356Y-8433356D02*
X18548356Y-8362644D01*
X18477644Y-8362644D01*
X18477644Y-8433356D01*
X18548356Y-8433356D01*
X18548356Y-8687356D02*
X18548356Y-8616644D01*
X18477644Y-8616644D01*
X18477644Y-8687356D01*
X18548356Y-8687356D01*
X18548356Y-8687356D02*
X18548356Y-8616644D01*
X18477644Y-8616644D01*
X18477644Y-8687356D01*
X18548356Y-8687356D01*
X18548356Y-8941356D02*
X18548356Y-8870644D01*
X18477644Y-8870644D01*
X18477644Y-8941356D01*
X18548356Y-8941356D01*
X18548356Y-8941356D02*
X18548356Y-8870644D01*
X18477644Y-8870644D01*
X18477644Y-8941356D01*
X18548356Y-8941356D01*
X18548356Y-9195356D02*
X18548356Y-9124644D01*
X18477644Y-9124644D01*
X18477644Y-9195356D01*
X18548356Y-9195356D01*
X18548356Y-9195356D02*
X18548356Y-9124644D01*
X18477644Y-9124644D01*
X18477644Y-9195356D01*
X18548356Y-9195356D01*
X18548356Y-9449356D02*
X18548356Y-9378644D01*
X18477644Y-9378644D01*
X18477644Y-9449356D01*
X18548356Y-9449356D01*
X18548356Y-9449356D02*
X18548356Y-9378644D01*
X18477644Y-9378644D01*
X18477644Y-9449356D01*
X18548356Y-9449356D01*
X18548356Y-9703356D02*
X18548356Y-9632644D01*
X18477644Y-9632644D01*
X18477644Y-9703356D01*
X18548356Y-9703356D01*
X18548356Y-9703356D02*
X18548356Y-9632644D01*
X18477644Y-9632644D01*
X18477644Y-9703356D01*
X18548356Y-9703356D01*
X18548356Y-9957356D02*
X18548356Y-9886644D01*
X18477644Y-9886644D01*
X18477644Y-9957356D01*
X18548356Y-9957356D01*
X18548356Y-9957356D02*
X18548356Y-9886644D01*
X18477644Y-9886644D01*
X18477644Y-9957356D01*
X18548356Y-9957356D01*
X18548356Y-10211356D02*
X18548356Y-10140644D01*
X18477644Y-10140644D01*
X18477644Y-10211356D01*
X18548356Y-10211356D01*
X18548356Y-10211356D02*
X18548356Y-10140644D01*
X18477644Y-10140644D01*
X18477644Y-10211356D01*
X18548356Y-10211356D01*
X18548356Y-10465356D02*
X18548356Y-10394644D01*
X18477644Y-10394644D01*
X18477644Y-10465356D01*
X18548356Y-10465356D01*
X18548356Y-10465356D02*
X18548356Y-10394644D01*
X18477644Y-10394644D01*
X18477644Y-10465356D01*
X18548356Y-10465356D01*
X20834356Y-6147356D02*
X20834356Y-6076644D01*
X20763644Y-6076644D01*
X20763644Y-6147356D01*
X20834356Y-6147356D01*
X20834356Y-6147356D02*
X20834356Y-6076644D01*
X20763644Y-6076644D01*
X20763644Y-6147356D01*
X20834356Y-6147356D01*
X20834356Y-6401356D02*
X20834356Y-6330644D01*
X20763644Y-6330644D01*
X20763644Y-6401356D01*
X20834356Y-6401356D01*
X20834356Y-6401356D02*
X20834356Y-6330644D01*
X20763644Y-6330644D01*
X20763644Y-6401356D01*
X20834356Y-6401356D01*
X20834356Y-6655356D02*
X20834356Y-6584644D01*
X20763644Y-6584644D01*
X20763644Y-6655356D01*
X20834356Y-6655356D01*
X20834356Y-6655356D02*
X20834356Y-6584644D01*
X20763644Y-6584644D01*
X20763644Y-6655356D01*
X20834356Y-6655356D01*
X20834356Y-6909356D02*
X20834356Y-6838644D01*
X20763644Y-6838644D01*
X20763644Y-6909356D01*
X20834356Y-6909356D01*
X20834356Y-6909356D02*
X20834356Y-6838644D01*
X20763644Y-6838644D01*
X20763644Y-6909356D01*
X20834356Y-6909356D01*
X20834356Y-7163356D02*
X20834356Y-7092644D01*
X20763644Y-7092644D01*
X20763644Y-7163356D01*
X20834356Y-7163356D01*
X20834356Y-7163356D02*
X20834356Y-7092644D01*
X20763644Y-7092644D01*
X20763644Y-7163356D01*
X20834356Y-7163356D01*
X20834356Y-7417356D02*
X20834356Y-7346644D01*
X20763644Y-7346644D01*
X20763644Y-7417356D01*
X20834356Y-7417356D01*
X20834356Y-7417356D02*
X20834356Y-7346644D01*
X20763644Y-7346644D01*
X20763644Y-7417356D01*
X20834356Y-7417356D01*
X20834356Y-7671356D02*
X20834356Y-7600644D01*
X20763644Y-7600644D01*
X20763644Y-7671356D01*
X20834356Y-7671356D01*
X20834356Y-7671356D02*
X20834356Y-7600644D01*
X20763644Y-7600644D01*
X20763644Y-7671356D01*
X20834356Y-7671356D01*
X20834356Y-7925356D02*
X20834356Y-7854644D01*
X20763644Y-7854644D01*
X20763644Y-7925356D01*
X20834356Y-7925356D01*
X20834356Y-7925356D02*
X20834356Y-7854644D01*
X20763644Y-7854644D01*
X20763644Y-7925356D01*
X20834356Y-7925356D01*
X20834356Y-8179356D02*
X20834356Y-8108644D01*
X20763644Y-8108644D01*
X20763644Y-8179356D01*
X20834356Y-8179356D01*
X20834356Y-8179356D02*
X20834356Y-8108644D01*
X20763644Y-8108644D01*
X20763644Y-8179356D01*
X20834356Y-8179356D01*
X20834356Y-8433356D02*
X20834356Y-8362644D01*
X20763644Y-8362644D01*
X20763644Y-8433356D01*
X20834356Y-8433356D01*
X20834356Y-8433356D02*
X20834356Y-8362644D01*
X20763644Y-8362644D01*
X20763644Y-8433356D01*
X20834356Y-8433356D01*
X20834356Y-8687356D02*
X20834356Y-8616644D01*
X20763644Y-8616644D01*
X20763644Y-8687356D01*
X20834356Y-8687356D01*
X20834356Y-8687356D02*
X20834356Y-8616644D01*
X20763644Y-8616644D01*
X20763644Y-8687356D01*
X20834356Y-8687356D01*
X20834356Y-8941356D02*
X20834356Y-8870644D01*
X20763644Y-8870644D01*
X20763644Y-8941356D01*
X20834356Y-8941356D01*
X20834356Y-8941356D02*
X20834356Y-8870644D01*
X20763644Y-8870644D01*
X20763644Y-8941356D01*
X20834356Y-8941356D01*
X20834356Y-9195356D02*
X20834356Y-9124644D01*
X20763644Y-9124644D01*
X20763644Y-9195356D01*
X20834356Y-9195356D01*
X20834356Y-9195356D02*
X20834356Y-9124644D01*
X20763644Y-9124644D01*
X20763644Y-9195356D01*
X20834356Y-9195356D01*
X20834356Y-9449356D02*
X20834356Y-9378644D01*
X20763644Y-9378644D01*
X20763644Y-9449356D01*
X20834356Y-9449356D01*
X20834356Y-9449356D02*
X20834356Y-9378644D01*
X20763644Y-9378644D01*
X20763644Y-9449356D01*
X20834356Y-9449356D01*
X20834356Y-9703356D02*
X20834356Y-9632644D01*
X20763644Y-9632644D01*
X20763644Y-9703356D01*
X20834356Y-9703356D01*
X20834356Y-9703356D02*
X20834356Y-9632644D01*
X20763644Y-9632644D01*
X20763644Y-9703356D01*
X20834356Y-9703356D01*
X20834356Y-9957356D02*
X20834356Y-9886644D01*
X20763644Y-9886644D01*
X20763644Y-9957356D01*
X20834356Y-9957356D01*
X20834356Y-9957356D02*
X20834356Y-9886644D01*
X20763644Y-9886644D01*
X20763644Y-9957356D01*
X20834356Y-9957356D01*
X20834356Y-10211356D02*
X20834356Y-10140644D01*
X20763644Y-10140644D01*
X20763644Y-10211356D01*
X20834356Y-10211356D01*
X20834356Y-10211356D02*
X20834356Y-10140644D01*
X20763644Y-10140644D01*
X20763644Y-10211356D01*
X20834356Y-10211356D01*
X20834356Y-10465356D02*
X20834356Y-10394644D01*
X20763644Y-10394644D01*
X20763644Y-10465356D01*
X20834356Y-10465356D01*
X20834356Y-10465356D02*
X20834356Y-10394644D01*
X20763644Y-10394644D01*
X20763644Y-10465356D01*
X20834356Y-10465356D01*
X21088356Y-6147356D02*
X21088356Y-6076644D01*
X21017644Y-6076644D01*
X21017644Y-6147356D01*
X21088356Y-6147356D01*
X21088356Y-6147356D02*
X21088356Y-6076644D01*
X21017644Y-6076644D01*
X21017644Y-6147356D01*
X21088356Y-6147356D01*
X21088356Y-6401356D02*
X21088356Y-6330644D01*
X21017644Y-6330644D01*
X21017644Y-6401356D01*
X21088356Y-6401356D01*
X21088356Y-6401356D02*
X21088356Y-6330644D01*
X21017644Y-6330644D01*
X21017644Y-6401356D01*
X21088356Y-6401356D01*
X21088356Y-6655356D02*
X21088356Y-6584644D01*
X21017644Y-6584644D01*
X21017644Y-6655356D01*
X21088356Y-6655356D01*
X21088356Y-6655356D02*
X21088356Y-6584644D01*
X21017644Y-6584644D01*
X21017644Y-6655356D01*
X21088356Y-6655356D01*
X21088356Y-6909356D02*
X21088356Y-6838644D01*
X21017644Y-6838644D01*
X21017644Y-6909356D01*
X21088356Y-6909356D01*
X21088356Y-6909356D02*
X21088356Y-6838644D01*
X21017644Y-6838644D01*
X21017644Y-6909356D01*
X21088356Y-6909356D01*
X21088356Y-7163356D02*
X21088356Y-7092644D01*
X21017644Y-7092644D01*
X21017644Y-7163356D01*
X21088356Y-7163356D01*
X21088356Y-7163356D02*
X21088356Y-7092644D01*
X21017644Y-7092644D01*
X21017644Y-7163356D01*
X21088356Y-7163356D01*
X21088356Y-7417356D02*
X21088356Y-7346644D01*
X21017644Y-7346644D01*
X21017644Y-7417356D01*
X21088356Y-7417356D01*
X21088356Y-7417356D02*
X21088356Y-7346644D01*
X21017644Y-7346644D01*
X21017644Y-7417356D01*
X21088356Y-7417356D01*
X21088356Y-7671356D02*
X21088356Y-7600644D01*
X21017644Y-7600644D01*
X21017644Y-7671356D01*
X21088356Y-7671356D01*
X21088356Y-7671356D02*
X21088356Y-7600644D01*
X21017644Y-7600644D01*
X21017644Y-7671356D01*
X21088356Y-7671356D01*
X21088356Y-7925356D02*
X21088356Y-7854644D01*
X21017644Y-7854644D01*
X21017644Y-7925356D01*
X21088356Y-7925356D01*
X21088356Y-7925356D02*
X21088356Y-7854644D01*
X21017644Y-7854644D01*
X21017644Y-7925356D01*
X21088356Y-7925356D01*
X21088356Y-8179356D02*
X21088356Y-8108644D01*
X21017644Y-8108644D01*
X21017644Y-8179356D01*
X21088356Y-8179356D01*
X21088356Y-8179356D02*
X21088356Y-8108644D01*
X21017644Y-8108644D01*
X21017644Y-8179356D01*
X21088356Y-8179356D01*
X21088356Y-8433356D02*
X21088356Y-8362644D01*
X21017644Y-8362644D01*
X21017644Y-8433356D01*
X21088356Y-8433356D01*
X21088356Y-8433356D02*
X21088356Y-8362644D01*
X21017644Y-8362644D01*
X21017644Y-8433356D01*
X21088356Y-8433356D01*
X21088356Y-8687356D02*
X21088356Y-8616644D01*
X21017644Y-8616644D01*
X21017644Y-8687356D01*
X21088356Y-8687356D01*
X21088356Y-8687356D02*
X21088356Y-8616644D01*
X21017644Y-8616644D01*
X21017644Y-8687356D01*
X21088356Y-8687356D01*
X21088356Y-8941356D02*
X21088356Y-8870644D01*
X21017644Y-8870644D01*
X21017644Y-8941356D01*
X21088356Y-8941356D01*
X21088356Y-8941356D02*
X21088356Y-8870644D01*
X21017644Y-8870644D01*
X21017644Y-8941356D01*
X21088356Y-8941356D01*
X21088356Y-9195356D02*
X21088356Y-9124644D01*
X21017644Y-9124644D01*
X21017644Y-9195356D01*
X21088356Y-9195356D01*
X21088356Y-9195356D02*
X21088356Y-9124644D01*
X21017644Y-9124644D01*
X21017644Y-9195356D01*
X21088356Y-9195356D01*
X21088356Y-9449356D02*
X21088356Y-9378644D01*
X21017644Y-9378644D01*
X21017644Y-9449356D01*
X21088356Y-9449356D01*
X21088356Y-9449356D02*
X21088356Y-9378644D01*
X21017644Y-9378644D01*
X21017644Y-9449356D01*
X21088356Y-9449356D01*
X21088356Y-9703356D02*
X21088356Y-9632644D01*
X21017644Y-9632644D01*
X21017644Y-9703356D01*
X21088356Y-9703356D01*
X21088356Y-9703356D02*
X21088356Y-9632644D01*
X21017644Y-9632644D01*
X21017644Y-9703356D01*
X21088356Y-9703356D01*
X21088356Y-9957356D02*
X21088356Y-9886644D01*
X21017644Y-9886644D01*
X21017644Y-9957356D01*
X21088356Y-9957356D01*
X21088356Y-9957356D02*
X21088356Y-9886644D01*
X21017644Y-9886644D01*
X21017644Y-9957356D01*
X21088356Y-9957356D01*
X21088356Y-10211356D02*
X21088356Y-10140644D01*
X21017644Y-10140644D01*
X21017644Y-10211356D01*
X21088356Y-10211356D01*
X21088356Y-10211356D02*
X21088356Y-10140644D01*
X21017644Y-10140644D01*
X21017644Y-10211356D01*
X21088356Y-10211356D01*
X21088356Y-10465356D02*
X21088356Y-10394644D01*
X21017644Y-10394644D01*
X21017644Y-10465356D01*
X21088356Y-10465356D01*
X21088356Y-10465356D02*
X21088356Y-10394644D01*
X21017644Y-10394644D01*
X21017644Y-10465356D01*
X21088356Y-10465356D01*
D13*
X18881681Y-10379631D02*
X18964181Y-10297131D01*
X18881681Y-10214631D01*
X18799181Y-10297131D01*
X18881681Y-10379631D01*
X20430681Y-10379631D02*
X20513181Y-10297131D01*
X20430681Y-10214631D01*
X20348181Y-10297131D01*
X20430681Y-10379631D01*
D11*
X18154037Y-11341234D02*
X18154037Y-11141234D01*
X18154037Y-11141234D02*
X18201656Y-11141234D01*
X18201656Y-11141234D02*
X18230227Y-11150758D01*
X18230227Y-11150758D02*
X18249275Y-11169805D01*
X18249275Y-11169805D02*
X18258799Y-11188853D01*
X18258799Y-11188853D02*
X18268323Y-11226948D01*
X18268323Y-11226948D02*
X18268323Y-11255519D01*
X18268323Y-11255519D02*
X18258799Y-11293615D01*
X18258799Y-11293615D02*
X18249275Y-11312662D01*
X18249275Y-11312662D02*
X18230227Y-11331710D01*
X18230227Y-11331710D02*
X18201656Y-11341234D01*
X18201656Y-11341234D02*
X18154037Y-11341234D01*
X18354037Y-11341234D02*
X18354037Y-11207900D01*
X18354037Y-11245996D02*
X18363561Y-11226948D01*
X18363561Y-11226948D02*
X18373084Y-11217424D01*
X18373084Y-11217424D02*
X18392132Y-11207900D01*
X18392132Y-11207900D02*
X18411180Y-11207900D01*
X18477846Y-11341234D02*
X18477846Y-11207900D01*
X18477846Y-11141234D02*
X18468323Y-11150758D01*
X18468323Y-11150758D02*
X18477846Y-11160281D01*
X18477846Y-11160281D02*
X18487370Y-11150758D01*
X18487370Y-11150758D02*
X18477846Y-11141234D01*
X18477846Y-11141234D02*
X18477846Y-11160281D01*
X18601656Y-11341234D02*
X18582608Y-11331710D01*
X18582608Y-11331710D02*
X18573084Y-11312662D01*
X18573084Y-11312662D02*
X18573084Y-11141234D01*
X18706418Y-11341234D02*
X18687370Y-11331710D01*
X18687370Y-11331710D02*
X18677846Y-11312662D01*
X18677846Y-11312662D02*
X18677846Y-11141234D01*
X18934989Y-11341234D02*
X18934989Y-11141234D01*
X18934989Y-11141234D02*
X19001656Y-11284091D01*
X19001656Y-11284091D02*
X19068323Y-11141234D01*
X19068323Y-11141234D02*
X19068323Y-11341234D01*
X19249275Y-11341234D02*
X19249275Y-11236472D01*
X19249275Y-11236472D02*
X19239751Y-11217424D01*
X19239751Y-11217424D02*
X19220704Y-11207900D01*
X19220704Y-11207900D02*
X19182608Y-11207900D01*
X19182608Y-11207900D02*
X19163561Y-11217424D01*
X19249275Y-11331710D02*
X19230227Y-11341234D01*
X19230227Y-11341234D02*
X19182608Y-11341234D01*
X19182608Y-11341234D02*
X19163561Y-11331710D01*
X19163561Y-11331710D02*
X19154037Y-11312662D01*
X19154037Y-11312662D02*
X19154037Y-11293615D01*
X19154037Y-11293615D02*
X19163561Y-11274567D01*
X19163561Y-11274567D02*
X19182608Y-11265043D01*
X19182608Y-11265043D02*
X19230227Y-11265043D01*
X19230227Y-11265043D02*
X19249275Y-11255519D01*
X19344513Y-11207900D02*
X19344513Y-11407900D01*
X19344513Y-11217424D02*
X19363561Y-11207900D01*
X19363561Y-11207900D02*
X19401656Y-11207900D01*
X19401656Y-11207900D02*
X19420704Y-11217424D01*
X19420704Y-11217424D02*
X19430227Y-11226948D01*
X19430227Y-11226948D02*
X19439751Y-11245996D01*
X19439751Y-11245996D02*
X19439751Y-11303138D01*
X19439751Y-11303138D02*
X19430227Y-11322186D01*
X19430227Y-11322186D02*
X19420704Y-11331710D01*
X19420704Y-11331710D02*
X19401656Y-11341234D01*
X19401656Y-11341234D02*
X19363561Y-11341234D01*
X19363561Y-11341234D02*
X19344513Y-11331710D01*
X19525465Y-11322186D02*
X19534989Y-11331710D01*
X19534989Y-11331710D02*
X19525465Y-11341234D01*
X19525465Y-11341234D02*
X19515942Y-11331710D01*
X19515942Y-11331710D02*
X19525465Y-11322186D01*
X19525465Y-11322186D02*
X19525465Y-11341234D01*
X19525465Y-11217424D02*
X19534989Y-11226948D01*
X19534989Y-11226948D02*
X19525465Y-11236472D01*
X19525465Y-11236472D02*
X19515942Y-11226948D01*
X19515942Y-11226948D02*
X19525465Y-11217424D01*
X19525465Y-11217424D02*
X19525465Y-11236472D01*
D12*
X17873260Y-11659750D02*
X17893260Y-11679750D01*
X17893260Y-11659750D02*
X17873260Y-11679750D01*
D11*
X18192132Y-11561234D02*
X18211180Y-11561234D01*
X18211180Y-11561234D02*
X18230227Y-11570758D01*
X18230227Y-11570758D02*
X18239751Y-11580281D01*
X18239751Y-11580281D02*
X18249275Y-11599329D01*
X18249275Y-11599329D02*
X18258799Y-11637424D01*
X18258799Y-11637424D02*
X18258799Y-11685043D01*
X18258799Y-11685043D02*
X18249275Y-11723138D01*
X18249275Y-11723138D02*
X18239751Y-11742186D01*
X18239751Y-11742186D02*
X18230227Y-11751710D01*
X18230227Y-11751710D02*
X18211180Y-11761234D01*
X18211180Y-11761234D02*
X18192132Y-11761234D01*
X18192132Y-11761234D02*
X18173084Y-11751710D01*
X18173084Y-11751710D02*
X18163561Y-11742186D01*
X18163561Y-11742186D02*
X18154037Y-11723138D01*
X18154037Y-11723138D02*
X18144513Y-11685043D01*
X18144513Y-11685043D02*
X18144513Y-11637424D01*
X18144513Y-11637424D02*
X18154037Y-11599329D01*
X18154037Y-11599329D02*
X18163561Y-11580281D01*
X18163561Y-11580281D02*
X18173084Y-11570758D01*
X18173084Y-11570758D02*
X18192132Y-11561234D01*
X18344513Y-11742186D02*
X18354037Y-11751710D01*
X18354037Y-11751710D02*
X18344513Y-11761234D01*
X18344513Y-11761234D02*
X18334989Y-11751710D01*
X18334989Y-11751710D02*
X18344513Y-11742186D01*
X18344513Y-11742186D02*
X18344513Y-11761234D01*
X18430227Y-11580281D02*
X18439751Y-11570758D01*
X18439751Y-11570758D02*
X18458799Y-11561234D01*
X18458799Y-11561234D02*
X18506418Y-11561234D01*
X18506418Y-11561234D02*
X18525465Y-11570758D01*
X18525465Y-11570758D02*
X18534989Y-11580281D01*
X18534989Y-11580281D02*
X18544513Y-11599329D01*
X18544513Y-11599329D02*
X18544513Y-11618377D01*
X18544513Y-11618377D02*
X18534989Y-11646948D01*
X18534989Y-11646948D02*
X18420704Y-11761234D01*
X18420704Y-11761234D02*
X18544513Y-11761234D01*
X18668323Y-11561234D02*
X18687370Y-11561234D01*
X18687370Y-11561234D02*
X18706418Y-11570758D01*
X18706418Y-11570758D02*
X18715942Y-11580281D01*
X18715942Y-11580281D02*
X18725465Y-11599329D01*
X18725465Y-11599329D02*
X18734989Y-11637424D01*
X18734989Y-11637424D02*
X18734989Y-11685043D01*
X18734989Y-11685043D02*
X18725465Y-11723138D01*
X18725465Y-11723138D02*
X18715942Y-11742186D01*
X18715942Y-11742186D02*
X18706418Y-11751710D01*
X18706418Y-11751710D02*
X18687370Y-11761234D01*
X18687370Y-11761234D02*
X18668323Y-11761234D01*
X18668323Y-11761234D02*
X18649275Y-11751710D01*
X18649275Y-11751710D02*
X18639751Y-11742186D01*
X18639751Y-11742186D02*
X18630227Y-11723138D01*
X18630227Y-11723138D02*
X18620704Y-11685043D01*
X18620704Y-11685043D02*
X18620704Y-11637424D01*
X18620704Y-11637424D02*
X18630227Y-11599329D01*
X18630227Y-11599329D02*
X18639751Y-11580281D01*
X18639751Y-11580281D02*
X18649275Y-11570758D01*
X18649275Y-11570758D02*
X18668323Y-11561234D01*
X18858799Y-11561234D02*
X18877846Y-11561234D01*
X18877846Y-11561234D02*
X18896894Y-11570758D01*
X18896894Y-11570758D02*
X18906418Y-11580281D01*
X18906418Y-11580281D02*
X18915942Y-11599329D01*
X18915942Y-11599329D02*
X18925465Y-11637424D01*
X18925465Y-11637424D02*
X18925465Y-11685043D01*
X18925465Y-11685043D02*
X18915942Y-11723138D01*
X18915942Y-11723138D02*
X18906418Y-11742186D01*
X18906418Y-11742186D02*
X18896894Y-11751710D01*
X18896894Y-11751710D02*
X18877846Y-11761234D01*
X18877846Y-11761234D02*
X18858799Y-11761234D01*
X18858799Y-11761234D02*
X18839751Y-11751710D01*
X18839751Y-11751710D02*
X18830227Y-11742186D01*
X18830227Y-11742186D02*
X18820704Y-11723138D01*
X18820704Y-11723138D02*
X18811180Y-11685043D01*
X18811180Y-11685043D02*
X18811180Y-11637424D01*
X18811180Y-11637424D02*
X18820704Y-11599329D01*
X18820704Y-11599329D02*
X18830227Y-11580281D01*
X18830227Y-11580281D02*
X18839751Y-11570758D01*
X18839751Y-11570758D02*
X18858799Y-11561234D01*
X19011180Y-11761234D02*
X19011180Y-11627900D01*
X19011180Y-11646948D02*
X19020704Y-11637424D01*
X19020704Y-11637424D02*
X19039751Y-11627900D01*
X19039751Y-11627900D02*
X19068323Y-11627900D01*
X19068323Y-11627900D02*
X19087370Y-11637424D01*
X19087370Y-11637424D02*
X19096894Y-11656472D01*
X19096894Y-11656472D02*
X19096894Y-11761234D01*
X19096894Y-11656472D02*
X19106418Y-11637424D01*
X19106418Y-11637424D02*
X19125465Y-11627900D01*
X19125465Y-11627900D02*
X19154037Y-11627900D01*
X19154037Y-11627900D02*
X19173085Y-11637424D01*
X19173085Y-11637424D02*
X19182608Y-11656472D01*
X19182608Y-11656472D02*
X19182608Y-11761234D01*
X19277846Y-11761234D02*
X19277846Y-11627900D01*
X19277846Y-11646948D02*
X19287370Y-11637424D01*
X19287370Y-11637424D02*
X19306418Y-11627900D01*
X19306418Y-11627900D02*
X19334989Y-11627900D01*
X19334989Y-11627900D02*
X19354037Y-11637424D01*
X19354037Y-11637424D02*
X19363561Y-11656472D01*
X19363561Y-11656472D02*
X19363561Y-11761234D01*
X19363561Y-11656472D02*
X19373085Y-11637424D01*
X19373085Y-11637424D02*
X19392132Y-11627900D01*
X19392132Y-11627900D02*
X19420704Y-11627900D01*
X19420704Y-11627900D02*
X19439751Y-11637424D01*
X19439751Y-11637424D02*
X19449275Y-11656472D01*
X19449275Y-11656472D02*
X19449275Y-11761234D01*
X19839751Y-11551710D02*
X19668323Y-11808853D01*
X20096894Y-11561234D02*
X20115942Y-11561234D01*
X20115942Y-11561234D02*
X20134989Y-11570758D01*
X20134989Y-11570758D02*
X20144513Y-11580281D01*
X20144513Y-11580281D02*
X20154037Y-11599329D01*
X20154037Y-11599329D02*
X20163561Y-11637424D01*
X20163561Y-11637424D02*
X20163561Y-11685043D01*
X20163561Y-11685043D02*
X20154037Y-11723138D01*
X20154037Y-11723138D02*
X20144513Y-11742186D01*
X20144513Y-11742186D02*
X20134989Y-11751710D01*
X20134989Y-11751710D02*
X20115942Y-11761234D01*
X20115942Y-11761234D02*
X20096894Y-11761234D01*
X20096894Y-11761234D02*
X20077847Y-11751710D01*
X20077847Y-11751710D02*
X20068323Y-11742186D01*
X20068323Y-11742186D02*
X20058799Y-11723138D01*
X20058799Y-11723138D02*
X20049275Y-11685043D01*
X20049275Y-11685043D02*
X20049275Y-11637424D01*
X20049275Y-11637424D02*
X20058799Y-11599329D01*
X20058799Y-11599329D02*
X20068323Y-11580281D01*
X20068323Y-11580281D02*
X20077847Y-11570758D01*
X20077847Y-11570758D02*
X20096894Y-11561234D01*
X20249275Y-11742186D02*
X20258799Y-11751710D01*
X20258799Y-11751710D02*
X20249275Y-11761234D01*
X20249275Y-11761234D02*
X20239751Y-11751710D01*
X20239751Y-11751710D02*
X20249275Y-11742186D01*
X20249275Y-11742186D02*
X20249275Y-11761234D01*
X20382608Y-11561234D02*
X20401656Y-11561234D01*
X20401656Y-11561234D02*
X20420704Y-11570758D01*
X20420704Y-11570758D02*
X20430228Y-11580281D01*
X20430228Y-11580281D02*
X20439751Y-11599329D01*
X20439751Y-11599329D02*
X20449275Y-11637424D01*
X20449275Y-11637424D02*
X20449275Y-11685043D01*
X20449275Y-11685043D02*
X20439751Y-11723138D01*
X20439751Y-11723138D02*
X20430228Y-11742186D01*
X20430228Y-11742186D02*
X20420704Y-11751710D01*
X20420704Y-11751710D02*
X20401656Y-11761234D01*
X20401656Y-11761234D02*
X20382608Y-11761234D01*
X20382608Y-11761234D02*
X20363561Y-11751710D01*
X20363561Y-11751710D02*
X20354037Y-11742186D01*
X20354037Y-11742186D02*
X20344513Y-11723138D01*
X20344513Y-11723138D02*
X20334989Y-11685043D01*
X20334989Y-11685043D02*
X20334989Y-11637424D01*
X20334989Y-11637424D02*
X20344513Y-11599329D01*
X20344513Y-11599329D02*
X20354037Y-11580281D01*
X20354037Y-11580281D02*
X20363561Y-11570758D01*
X20363561Y-11570758D02*
X20382608Y-11561234D01*
X20573085Y-11561234D02*
X20592132Y-11561234D01*
X20592132Y-11561234D02*
X20611180Y-11570758D01*
X20611180Y-11570758D02*
X20620704Y-11580281D01*
X20620704Y-11580281D02*
X20630228Y-11599329D01*
X20630228Y-11599329D02*
X20639751Y-11637424D01*
X20639751Y-11637424D02*
X20639751Y-11685043D01*
X20639751Y-11685043D02*
X20630228Y-11723138D01*
X20630228Y-11723138D02*
X20620704Y-11742186D01*
X20620704Y-11742186D02*
X20611180Y-11751710D01*
X20611180Y-11751710D02*
X20592132Y-11761234D01*
X20592132Y-11761234D02*
X20573085Y-11761234D01*
X20573085Y-11761234D02*
X20554037Y-11751710D01*
X20554037Y-11751710D02*
X20544513Y-11742186D01*
X20544513Y-11742186D02*
X20534989Y-11723138D01*
X20534989Y-11723138D02*
X20525466Y-11685043D01*
X20525466Y-11685043D02*
X20525466Y-11637424D01*
X20525466Y-11637424D02*
X20534989Y-11599329D01*
X20534989Y-11599329D02*
X20544513Y-11580281D01*
X20544513Y-11580281D02*
X20554037Y-11570758D01*
X20554037Y-11570758D02*
X20573085Y-11561234D01*
X20706418Y-11561234D02*
X20839751Y-11561234D01*
X20839751Y-11561234D02*
X20754037Y-11761234D01*
X20925466Y-11761234D02*
X20963561Y-11761234D01*
X20963561Y-11761234D02*
X20982609Y-11751710D01*
X20982609Y-11751710D02*
X20992132Y-11742186D01*
X20992132Y-11742186D02*
X21011180Y-11713615D01*
X21011180Y-11713615D02*
X21020704Y-11675519D01*
X21020704Y-11675519D02*
X21020704Y-11599329D01*
X21020704Y-11599329D02*
X21011180Y-11580281D01*
X21011180Y-11580281D02*
X21001656Y-11570758D01*
X21001656Y-11570758D02*
X20982609Y-11561234D01*
X20982609Y-11561234D02*
X20944513Y-11561234D01*
X20944513Y-11561234D02*
X20925466Y-11570758D01*
X20925466Y-11570758D02*
X20915942Y-11580281D01*
X20915942Y-11580281D02*
X20906418Y-11599329D01*
X20906418Y-11599329D02*
X20906418Y-11646948D01*
X20906418Y-11646948D02*
X20915942Y-11665996D01*
X20915942Y-11665996D02*
X20925466Y-11675519D01*
X20925466Y-11675519D02*
X20944513Y-11685043D01*
X20944513Y-11685043D02*
X20982609Y-11685043D01*
X20982609Y-11685043D02*
X21001656Y-11675519D01*
X21001656Y-11675519D02*
X21011180Y-11665996D01*
X21011180Y-11665996D02*
X21020704Y-11646948D01*
X21096894Y-11561234D02*
X21096894Y-11599329D01*
X21173085Y-11561234D02*
X21173085Y-11599329D01*
X21468323Y-11837424D02*
X21458799Y-11827900D01*
X21458799Y-11827900D02*
X21439751Y-11799329D01*
X21439751Y-11799329D02*
X21430228Y-11780281D01*
X21430228Y-11780281D02*
X21420704Y-11751710D01*
X21420704Y-11751710D02*
X21411180Y-11704091D01*
X21411180Y-11704091D02*
X21411180Y-11665996D01*
X21411180Y-11665996D02*
X21420704Y-11618377D01*
X21420704Y-11618377D02*
X21430228Y-11589805D01*
X21430228Y-11589805D02*
X21439751Y-11570758D01*
X21439751Y-11570758D02*
X21458799Y-11542186D01*
X21458799Y-11542186D02*
X21468323Y-11532662D01*
X21649275Y-11761234D02*
X21534990Y-11761234D01*
X21592132Y-11761234D02*
X21592132Y-11561234D01*
X21592132Y-11561234D02*
X21573085Y-11589805D01*
X21573085Y-11589805D02*
X21554037Y-11608853D01*
X21554037Y-11608853D02*
X21534990Y-11618377D01*
X21715942Y-11561234D02*
X21849275Y-11561234D01*
X21849275Y-11561234D02*
X21763561Y-11761234D01*
X22011180Y-11561234D02*
X21973085Y-11561234D01*
X21973085Y-11561234D02*
X21954037Y-11570758D01*
X21954037Y-11570758D02*
X21944513Y-11580281D01*
X21944513Y-11580281D02*
X21925466Y-11608853D01*
X21925466Y-11608853D02*
X21915942Y-11646948D01*
X21915942Y-11646948D02*
X21915942Y-11723138D01*
X21915942Y-11723138D02*
X21925466Y-11742186D01*
X21925466Y-11742186D02*
X21934990Y-11751710D01*
X21934990Y-11751710D02*
X21954037Y-11761234D01*
X21954037Y-11761234D02*
X21992132Y-11761234D01*
X21992132Y-11761234D02*
X22011180Y-11751710D01*
X22011180Y-11751710D02*
X22020704Y-11742186D01*
X22020704Y-11742186D02*
X22030228Y-11723138D01*
X22030228Y-11723138D02*
X22030228Y-11675519D01*
X22030228Y-11675519D02*
X22020704Y-11656472D01*
X22020704Y-11656472D02*
X22011180Y-11646948D01*
X22011180Y-11646948D02*
X21992132Y-11637424D01*
X21992132Y-11637424D02*
X21954037Y-11637424D01*
X21954037Y-11637424D02*
X21934990Y-11646948D01*
X21934990Y-11646948D02*
X21925466Y-11656472D01*
X21925466Y-11656472D02*
X21915942Y-11675519D01*
X22268323Y-11761234D02*
X22268323Y-11561234D01*
X22354037Y-11761234D02*
X22354037Y-11656472D01*
X22354037Y-11656472D02*
X22344513Y-11637424D01*
X22344513Y-11637424D02*
X22325466Y-11627900D01*
X22325466Y-11627900D02*
X22296894Y-11627900D01*
X22296894Y-11627900D02*
X22277847Y-11637424D01*
X22277847Y-11637424D02*
X22268323Y-11646948D01*
X22477847Y-11761234D02*
X22458799Y-11751710D01*
X22458799Y-11751710D02*
X22449275Y-11742186D01*
X22449275Y-11742186D02*
X22439751Y-11723138D01*
X22439751Y-11723138D02*
X22439751Y-11665996D01*
X22439751Y-11665996D02*
X22449275Y-11646948D01*
X22449275Y-11646948D02*
X22458799Y-11637424D01*
X22458799Y-11637424D02*
X22477847Y-11627900D01*
X22477847Y-11627900D02*
X22506418Y-11627900D01*
X22506418Y-11627900D02*
X22525466Y-11637424D01*
X22525466Y-11637424D02*
X22534990Y-11646948D01*
X22534990Y-11646948D02*
X22544513Y-11665996D01*
X22544513Y-11665996D02*
X22544513Y-11723138D01*
X22544513Y-11723138D02*
X22534990Y-11742186D01*
X22534990Y-11742186D02*
X22525466Y-11751710D01*
X22525466Y-11751710D02*
X22506418Y-11761234D01*
X22506418Y-11761234D02*
X22477847Y-11761234D01*
X22658799Y-11761234D02*
X22639751Y-11751710D01*
X22639751Y-11751710D02*
X22630228Y-11732662D01*
X22630228Y-11732662D02*
X22630228Y-11561234D01*
X22811180Y-11751710D02*
X22792132Y-11761234D01*
X22792132Y-11761234D02*
X22754037Y-11761234D01*
X22754037Y-11761234D02*
X22734990Y-11751710D01*
X22734990Y-11751710D02*
X22725466Y-11732662D01*
X22725466Y-11732662D02*
X22725466Y-11656472D01*
X22725466Y-11656472D02*
X22734990Y-11637424D01*
X22734990Y-11637424D02*
X22754037Y-11627900D01*
X22754037Y-11627900D02*
X22792132Y-11627900D01*
X22792132Y-11627900D02*
X22811180Y-11637424D01*
X22811180Y-11637424D02*
X22820704Y-11656472D01*
X22820704Y-11656472D02*
X22820704Y-11675519D01*
X22820704Y-11675519D02*
X22725466Y-11694567D01*
X22896894Y-11751710D02*
X22915942Y-11761234D01*
X22915942Y-11761234D02*
X22954037Y-11761234D01*
X22954037Y-11761234D02*
X22973085Y-11751710D01*
X22973085Y-11751710D02*
X22982609Y-11732662D01*
X22982609Y-11732662D02*
X22982609Y-11723138D01*
X22982609Y-11723138D02*
X22973085Y-11704091D01*
X22973085Y-11704091D02*
X22954037Y-11694567D01*
X22954037Y-11694567D02*
X22925466Y-11694567D01*
X22925466Y-11694567D02*
X22906418Y-11685043D01*
X22906418Y-11685043D02*
X22896894Y-11665996D01*
X22896894Y-11665996D02*
X22896894Y-11656472D01*
X22896894Y-11656472D02*
X22906418Y-11637424D01*
X22906418Y-11637424D02*
X22925466Y-11627900D01*
X22925466Y-11627900D02*
X22954037Y-11627900D01*
X22954037Y-11627900D02*
X22973085Y-11637424D01*
X23049275Y-11837424D02*
X23058799Y-11827900D01*
X23058799Y-11827900D02*
X23077847Y-11799329D01*
X23077847Y-11799329D02*
X23087371Y-11780281D01*
X23087371Y-11780281D02*
X23096894Y-11751710D01*
X23096894Y-11751710D02*
X23106418Y-11704091D01*
X23106418Y-11704091D02*
X23106418Y-11665996D01*
X23106418Y-11665996D02*
X23096894Y-11618377D01*
X23096894Y-11618377D02*
X23087371Y-11589805D01*
X23087371Y-11589805D02*
X23077847Y-11570758D01*
X23077847Y-11570758D02*
X23058799Y-11542186D01*
X23058799Y-11542186D02*
X23049275Y-11532662D01*
D12*
X17893260Y-11933750D02*
G75*
G02*
X17872940Y-11933750I-10160J0D01*
G01*
X17872940Y-11933750D02*
G75*
G02*
X17893260Y-11933750I10160J0D01*
G01*
D11*
X18192132Y-11825234D02*
X18211180Y-11825234D01*
X18211180Y-11825234D02*
X18230227Y-11834758D01*
X18230227Y-11834758D02*
X18239751Y-11844281D01*
X18239751Y-11844281D02*
X18249275Y-11863329D01*
X18249275Y-11863329D02*
X18258799Y-11901424D01*
X18258799Y-11901424D02*
X18258799Y-11949043D01*
X18258799Y-11949043D02*
X18249275Y-11987138D01*
X18249275Y-11987138D02*
X18239751Y-12006186D01*
X18239751Y-12006186D02*
X18230227Y-12015710D01*
X18230227Y-12015710D02*
X18211180Y-12025234D01*
X18211180Y-12025234D02*
X18192132Y-12025234D01*
X18192132Y-12025234D02*
X18173084Y-12015710D01*
X18173084Y-12015710D02*
X18163561Y-12006186D01*
X18163561Y-12006186D02*
X18154037Y-11987138D01*
X18154037Y-11987138D02*
X18144513Y-11949043D01*
X18144513Y-11949043D02*
X18144513Y-11901424D01*
X18144513Y-11901424D02*
X18154037Y-11863329D01*
X18154037Y-11863329D02*
X18163561Y-11844281D01*
X18163561Y-11844281D02*
X18173084Y-11834758D01*
X18173084Y-11834758D02*
X18192132Y-11825234D01*
X18344513Y-12006186D02*
X18354037Y-12015710D01*
X18354037Y-12015710D02*
X18344513Y-12025234D01*
X18344513Y-12025234D02*
X18334989Y-12015710D01*
X18334989Y-12015710D02*
X18344513Y-12006186D01*
X18344513Y-12006186D02*
X18344513Y-12025234D01*
X18430227Y-11844281D02*
X18439751Y-11834758D01*
X18439751Y-11834758D02*
X18458799Y-11825234D01*
X18458799Y-11825234D02*
X18506418Y-11825234D01*
X18506418Y-11825234D02*
X18525465Y-11834758D01*
X18525465Y-11834758D02*
X18534989Y-11844281D01*
X18534989Y-11844281D02*
X18544513Y-11863329D01*
X18544513Y-11863329D02*
X18544513Y-11882377D01*
X18544513Y-11882377D02*
X18534989Y-11910948D01*
X18534989Y-11910948D02*
X18420704Y-12025234D01*
X18420704Y-12025234D02*
X18544513Y-12025234D01*
X18668323Y-11825234D02*
X18687370Y-11825234D01*
X18687370Y-11825234D02*
X18706418Y-11834758D01*
X18706418Y-11834758D02*
X18715942Y-11844281D01*
X18715942Y-11844281D02*
X18725465Y-11863329D01*
X18725465Y-11863329D02*
X18734989Y-11901424D01*
X18734989Y-11901424D02*
X18734989Y-11949043D01*
X18734989Y-11949043D02*
X18725465Y-11987138D01*
X18725465Y-11987138D02*
X18715942Y-12006186D01*
X18715942Y-12006186D02*
X18706418Y-12015710D01*
X18706418Y-12015710D02*
X18687370Y-12025234D01*
X18687370Y-12025234D02*
X18668323Y-12025234D01*
X18668323Y-12025234D02*
X18649275Y-12015710D01*
X18649275Y-12015710D02*
X18639751Y-12006186D01*
X18639751Y-12006186D02*
X18630227Y-11987138D01*
X18630227Y-11987138D02*
X18620704Y-11949043D01*
X18620704Y-11949043D02*
X18620704Y-11901424D01*
X18620704Y-11901424D02*
X18630227Y-11863329D01*
X18630227Y-11863329D02*
X18639751Y-11844281D01*
X18639751Y-11844281D02*
X18649275Y-11834758D01*
X18649275Y-11834758D02*
X18668323Y-11825234D01*
X18801656Y-11825234D02*
X18925465Y-11825234D01*
X18925465Y-11825234D02*
X18858799Y-11901424D01*
X18858799Y-11901424D02*
X18887370Y-11901424D01*
X18887370Y-11901424D02*
X18906418Y-11910948D01*
X18906418Y-11910948D02*
X18915942Y-11920472D01*
X18915942Y-11920472D02*
X18925465Y-11939519D01*
X18925465Y-11939519D02*
X18925465Y-11987138D01*
X18925465Y-11987138D02*
X18915942Y-12006186D01*
X18915942Y-12006186D02*
X18906418Y-12015710D01*
X18906418Y-12015710D02*
X18887370Y-12025234D01*
X18887370Y-12025234D02*
X18830227Y-12025234D01*
X18830227Y-12025234D02*
X18811180Y-12015710D01*
X18811180Y-12015710D02*
X18801656Y-12006186D01*
X19011180Y-12025234D02*
X19011180Y-11891900D01*
X19011180Y-11910948D02*
X19020704Y-11901424D01*
X19020704Y-11901424D02*
X19039751Y-11891900D01*
X19039751Y-11891900D02*
X19068323Y-11891900D01*
X19068323Y-11891900D02*
X19087370Y-11901424D01*
X19087370Y-11901424D02*
X19096894Y-11920472D01*
X19096894Y-11920472D02*
X19096894Y-12025234D01*
X19096894Y-11920472D02*
X19106418Y-11901424D01*
X19106418Y-11901424D02*
X19125465Y-11891900D01*
X19125465Y-11891900D02*
X19154037Y-11891900D01*
X19154037Y-11891900D02*
X19173085Y-11901424D01*
X19173085Y-11901424D02*
X19182608Y-11920472D01*
X19182608Y-11920472D02*
X19182608Y-12025234D01*
X19277846Y-12025234D02*
X19277846Y-11891900D01*
X19277846Y-11910948D02*
X19287370Y-11901424D01*
X19287370Y-11901424D02*
X19306418Y-11891900D01*
X19306418Y-11891900D02*
X19334989Y-11891900D01*
X19334989Y-11891900D02*
X19354037Y-11901424D01*
X19354037Y-11901424D02*
X19363561Y-11920472D01*
X19363561Y-11920472D02*
X19363561Y-12025234D01*
X19363561Y-11920472D02*
X19373085Y-11901424D01*
X19373085Y-11901424D02*
X19392132Y-11891900D01*
X19392132Y-11891900D02*
X19420704Y-11891900D01*
X19420704Y-11891900D02*
X19439751Y-11901424D01*
X19439751Y-11901424D02*
X19449275Y-11920472D01*
X19449275Y-11920472D02*
X19449275Y-12025234D01*
X19839751Y-11815710D02*
X19668323Y-12072853D01*
X20096894Y-11825234D02*
X20115942Y-11825234D01*
X20115942Y-11825234D02*
X20134989Y-11834758D01*
X20134989Y-11834758D02*
X20144513Y-11844281D01*
X20144513Y-11844281D02*
X20154037Y-11863329D01*
X20154037Y-11863329D02*
X20163561Y-11901424D01*
X20163561Y-11901424D02*
X20163561Y-11949043D01*
X20163561Y-11949043D02*
X20154037Y-11987138D01*
X20154037Y-11987138D02*
X20144513Y-12006186D01*
X20144513Y-12006186D02*
X20134989Y-12015710D01*
X20134989Y-12015710D02*
X20115942Y-12025234D01*
X20115942Y-12025234D02*
X20096894Y-12025234D01*
X20096894Y-12025234D02*
X20077847Y-12015710D01*
X20077847Y-12015710D02*
X20068323Y-12006186D01*
X20068323Y-12006186D02*
X20058799Y-11987138D01*
X20058799Y-11987138D02*
X20049275Y-11949043D01*
X20049275Y-11949043D02*
X20049275Y-11901424D01*
X20049275Y-11901424D02*
X20058799Y-11863329D01*
X20058799Y-11863329D02*
X20068323Y-11844281D01*
X20068323Y-11844281D02*
X20077847Y-11834758D01*
X20077847Y-11834758D02*
X20096894Y-11825234D01*
X20249275Y-12006186D02*
X20258799Y-12015710D01*
X20258799Y-12015710D02*
X20249275Y-12025234D01*
X20249275Y-12025234D02*
X20239751Y-12015710D01*
X20239751Y-12015710D02*
X20249275Y-12006186D01*
X20249275Y-12006186D02*
X20249275Y-12025234D01*
X20382608Y-11825234D02*
X20401656Y-11825234D01*
X20401656Y-11825234D02*
X20420704Y-11834758D01*
X20420704Y-11834758D02*
X20430228Y-11844281D01*
X20430228Y-11844281D02*
X20439751Y-11863329D01*
X20439751Y-11863329D02*
X20449275Y-11901424D01*
X20449275Y-11901424D02*
X20449275Y-11949043D01*
X20449275Y-11949043D02*
X20439751Y-11987138D01*
X20439751Y-11987138D02*
X20430228Y-12006186D01*
X20430228Y-12006186D02*
X20420704Y-12015710D01*
X20420704Y-12015710D02*
X20401656Y-12025234D01*
X20401656Y-12025234D02*
X20382608Y-12025234D01*
X20382608Y-12025234D02*
X20363561Y-12015710D01*
X20363561Y-12015710D02*
X20354037Y-12006186D01*
X20354037Y-12006186D02*
X20344513Y-11987138D01*
X20344513Y-11987138D02*
X20334989Y-11949043D01*
X20334989Y-11949043D02*
X20334989Y-11901424D01*
X20334989Y-11901424D02*
X20344513Y-11863329D01*
X20344513Y-11863329D02*
X20354037Y-11844281D01*
X20354037Y-11844281D02*
X20363561Y-11834758D01*
X20363561Y-11834758D02*
X20382608Y-11825234D01*
X20573085Y-11825234D02*
X20592132Y-11825234D01*
X20592132Y-11825234D02*
X20611180Y-11834758D01*
X20611180Y-11834758D02*
X20620704Y-11844281D01*
X20620704Y-11844281D02*
X20630228Y-11863329D01*
X20630228Y-11863329D02*
X20639751Y-11901424D01*
X20639751Y-11901424D02*
X20639751Y-11949043D01*
X20639751Y-11949043D02*
X20630228Y-11987138D01*
X20630228Y-11987138D02*
X20620704Y-12006186D01*
X20620704Y-12006186D02*
X20611180Y-12015710D01*
X20611180Y-12015710D02*
X20592132Y-12025234D01*
X20592132Y-12025234D02*
X20573085Y-12025234D01*
X20573085Y-12025234D02*
X20554037Y-12015710D01*
X20554037Y-12015710D02*
X20544513Y-12006186D01*
X20544513Y-12006186D02*
X20534989Y-11987138D01*
X20534989Y-11987138D02*
X20525466Y-11949043D01*
X20525466Y-11949043D02*
X20525466Y-11901424D01*
X20525466Y-11901424D02*
X20534989Y-11863329D01*
X20534989Y-11863329D02*
X20544513Y-11844281D01*
X20544513Y-11844281D02*
X20554037Y-11834758D01*
X20554037Y-11834758D02*
X20573085Y-11825234D01*
X20754037Y-11910948D02*
X20734989Y-11901424D01*
X20734989Y-11901424D02*
X20725466Y-11891900D01*
X20725466Y-11891900D02*
X20715942Y-11872853D01*
X20715942Y-11872853D02*
X20715942Y-11863329D01*
X20715942Y-11863329D02*
X20725466Y-11844281D01*
X20725466Y-11844281D02*
X20734989Y-11834758D01*
X20734989Y-11834758D02*
X20754037Y-11825234D01*
X20754037Y-11825234D02*
X20792132Y-11825234D01*
X20792132Y-11825234D02*
X20811180Y-11834758D01*
X20811180Y-11834758D02*
X20820704Y-11844281D01*
X20820704Y-11844281D02*
X20830228Y-11863329D01*
X20830228Y-11863329D02*
X20830228Y-11872853D01*
X20830228Y-11872853D02*
X20820704Y-11891900D01*
X20820704Y-11891900D02*
X20811180Y-11901424D01*
X20811180Y-11901424D02*
X20792132Y-11910948D01*
X20792132Y-11910948D02*
X20754037Y-11910948D01*
X20754037Y-11910948D02*
X20734989Y-11920472D01*
X20734989Y-11920472D02*
X20725466Y-11929996D01*
X20725466Y-11929996D02*
X20715942Y-11949043D01*
X20715942Y-11949043D02*
X20715942Y-11987138D01*
X20715942Y-11987138D02*
X20725466Y-12006186D01*
X20725466Y-12006186D02*
X20734989Y-12015710D01*
X20734989Y-12015710D02*
X20754037Y-12025234D01*
X20754037Y-12025234D02*
X20792132Y-12025234D01*
X20792132Y-12025234D02*
X20811180Y-12015710D01*
X20811180Y-12015710D02*
X20820704Y-12006186D01*
X20820704Y-12006186D02*
X20830228Y-11987138D01*
X20830228Y-11987138D02*
X20830228Y-11949043D01*
X20830228Y-11949043D02*
X20820704Y-11929996D01*
X20820704Y-11929996D02*
X20811180Y-11920472D01*
X20811180Y-11920472D02*
X20792132Y-11910948D01*
X20954037Y-11825234D02*
X20973085Y-11825234D01*
X20973085Y-11825234D02*
X20992132Y-11834758D01*
X20992132Y-11834758D02*
X21001656Y-11844281D01*
X21001656Y-11844281D02*
X21011180Y-11863329D01*
X21011180Y-11863329D02*
X21020704Y-11901424D01*
X21020704Y-11901424D02*
X21020704Y-11949043D01*
X21020704Y-11949043D02*
X21011180Y-11987138D01*
X21011180Y-11987138D02*
X21001656Y-12006186D01*
X21001656Y-12006186D02*
X20992132Y-12015710D01*
X20992132Y-12015710D02*
X20973085Y-12025234D01*
X20973085Y-12025234D02*
X20954037Y-12025234D01*
X20954037Y-12025234D02*
X20934989Y-12015710D01*
X20934989Y-12015710D02*
X20925466Y-12006186D01*
X20925466Y-12006186D02*
X20915942Y-11987138D01*
X20915942Y-11987138D02*
X20906418Y-11949043D01*
X20906418Y-11949043D02*
X20906418Y-11901424D01*
X20906418Y-11901424D02*
X20915942Y-11863329D01*
X20915942Y-11863329D02*
X20925466Y-11844281D01*
X20925466Y-11844281D02*
X20934989Y-11834758D01*
X20934989Y-11834758D02*
X20954037Y-11825234D01*
X21096894Y-11825234D02*
X21096894Y-11863329D01*
X21173085Y-11825234D02*
X21173085Y-11863329D01*
X21468323Y-12101424D02*
X21458799Y-12091900D01*
X21458799Y-12091900D02*
X21439751Y-12063329D01*
X21439751Y-12063329D02*
X21430228Y-12044281D01*
X21430228Y-12044281D02*
X21420704Y-12015710D01*
X21420704Y-12015710D02*
X21411180Y-11968091D01*
X21411180Y-11968091D02*
X21411180Y-11929996D01*
X21411180Y-11929996D02*
X21420704Y-11882377D01*
X21420704Y-11882377D02*
X21430228Y-11853805D01*
X21430228Y-11853805D02*
X21439751Y-11834758D01*
X21439751Y-11834758D02*
X21458799Y-11806186D01*
X21458799Y-11806186D02*
X21468323Y-11796662D01*
X21649275Y-12025234D02*
X21534990Y-12025234D01*
X21592132Y-12025234D02*
X21592132Y-11825234D01*
X21592132Y-11825234D02*
X21573085Y-11853805D01*
X21573085Y-11853805D02*
X21554037Y-11872853D01*
X21554037Y-11872853D02*
X21534990Y-11882377D01*
X21820704Y-11825234D02*
X21782609Y-11825234D01*
X21782609Y-11825234D02*
X21763561Y-11834758D01*
X21763561Y-11834758D02*
X21754037Y-11844281D01*
X21754037Y-11844281D02*
X21734990Y-11872853D01*
X21734990Y-11872853D02*
X21725466Y-11910948D01*
X21725466Y-11910948D02*
X21725466Y-11987138D01*
X21725466Y-11987138D02*
X21734990Y-12006186D01*
X21734990Y-12006186D02*
X21744513Y-12015710D01*
X21744513Y-12015710D02*
X21763561Y-12025234D01*
X21763561Y-12025234D02*
X21801656Y-12025234D01*
X21801656Y-12025234D02*
X21820704Y-12015710D01*
X21820704Y-12015710D02*
X21830228Y-12006186D01*
X21830228Y-12006186D02*
X21839751Y-11987138D01*
X21839751Y-11987138D02*
X21839751Y-11939519D01*
X21839751Y-11939519D02*
X21830228Y-11920472D01*
X21830228Y-11920472D02*
X21820704Y-11910948D01*
X21820704Y-11910948D02*
X21801656Y-11901424D01*
X21801656Y-11901424D02*
X21763561Y-11901424D01*
X21763561Y-11901424D02*
X21744513Y-11910948D01*
X21744513Y-11910948D02*
X21734990Y-11920472D01*
X21734990Y-11920472D02*
X21725466Y-11939519D01*
X22077847Y-12025234D02*
X22077847Y-11825234D01*
X22163561Y-12025234D02*
X22163561Y-11920472D01*
X22163561Y-11920472D02*
X22154037Y-11901424D01*
X22154037Y-11901424D02*
X22134990Y-11891900D01*
X22134990Y-11891900D02*
X22106418Y-11891900D01*
X22106418Y-11891900D02*
X22087371Y-11901424D01*
X22087371Y-11901424D02*
X22077847Y-11910948D01*
X22287371Y-12025234D02*
X22268323Y-12015710D01*
X22268323Y-12015710D02*
X22258799Y-12006186D01*
X22258799Y-12006186D02*
X22249275Y-11987138D01*
X22249275Y-11987138D02*
X22249275Y-11929996D01*
X22249275Y-11929996D02*
X22258799Y-11910948D01*
X22258799Y-11910948D02*
X22268323Y-11901424D01*
X22268323Y-11901424D02*
X22287371Y-11891900D01*
X22287371Y-11891900D02*
X22315942Y-11891900D01*
X22315942Y-11891900D02*
X22334990Y-11901424D01*
X22334990Y-11901424D02*
X22344513Y-11910948D01*
X22344513Y-11910948D02*
X22354037Y-11929996D01*
X22354037Y-11929996D02*
X22354037Y-11987138D01*
X22354037Y-11987138D02*
X22344513Y-12006186D01*
X22344513Y-12006186D02*
X22334990Y-12015710D01*
X22334990Y-12015710D02*
X22315942Y-12025234D01*
X22315942Y-12025234D02*
X22287371Y-12025234D01*
X22468323Y-12025234D02*
X22449275Y-12015710D01*
X22449275Y-12015710D02*
X22439751Y-11996662D01*
X22439751Y-11996662D02*
X22439751Y-11825234D01*
X22620704Y-12015710D02*
X22601656Y-12025234D01*
X22601656Y-12025234D02*
X22563561Y-12025234D01*
X22563561Y-12025234D02*
X22544513Y-12015710D01*
X22544513Y-12015710D02*
X22534990Y-11996662D01*
X22534990Y-11996662D02*
X22534990Y-11920472D01*
X22534990Y-11920472D02*
X22544513Y-11901424D01*
X22544513Y-11901424D02*
X22563561Y-11891900D01*
X22563561Y-11891900D02*
X22601656Y-11891900D01*
X22601656Y-11891900D02*
X22620704Y-11901424D01*
X22620704Y-11901424D02*
X22630228Y-11920472D01*
X22630228Y-11920472D02*
X22630228Y-11939519D01*
X22630228Y-11939519D02*
X22534990Y-11958567D01*
X22706418Y-12015710D02*
X22725466Y-12025234D01*
X22725466Y-12025234D02*
X22763561Y-12025234D01*
X22763561Y-12025234D02*
X22782609Y-12015710D01*
X22782609Y-12015710D02*
X22792132Y-11996662D01*
X22792132Y-11996662D02*
X22792132Y-11987138D01*
X22792132Y-11987138D02*
X22782609Y-11968091D01*
X22782609Y-11968091D02*
X22763561Y-11958567D01*
X22763561Y-11958567D02*
X22734990Y-11958567D01*
X22734990Y-11958567D02*
X22715942Y-11949043D01*
X22715942Y-11949043D02*
X22706418Y-11929996D01*
X22706418Y-11929996D02*
X22706418Y-11920472D01*
X22706418Y-11920472D02*
X22715942Y-11901424D01*
X22715942Y-11901424D02*
X22734990Y-11891900D01*
X22734990Y-11891900D02*
X22763561Y-11891900D01*
X22763561Y-11891900D02*
X22782609Y-11901424D01*
X22858799Y-12101424D02*
X22868323Y-12091900D01*
X22868323Y-12091900D02*
X22887371Y-12063329D01*
X22887371Y-12063329D02*
X22896894Y-12044281D01*
X22896894Y-12044281D02*
X22906418Y-12015710D01*
X22906418Y-12015710D02*
X22915942Y-11968091D01*
X22915942Y-11968091D02*
X22915942Y-11929996D01*
X22915942Y-11929996D02*
X22906418Y-11882377D01*
X22906418Y-11882377D02*
X22896894Y-11853805D01*
X22896894Y-11853805D02*
X22887371Y-11834758D01*
X22887371Y-11834758D02*
X22868323Y-11806186D01*
X22868323Y-11806186D02*
X22858799Y-11796662D01*
D12*
X17844760Y-12149250D02*
X17844760Y-12246250D01*
X17796260Y-12197750D02*
X17893260Y-12197750D01*
D11*
X18192132Y-12089234D02*
X18211180Y-12089234D01*
X18211180Y-12089234D02*
X18230227Y-12098758D01*
X18230227Y-12098758D02*
X18239751Y-12108281D01*
X18239751Y-12108281D02*
X18249275Y-12127329D01*
X18249275Y-12127329D02*
X18258799Y-12165424D01*
X18258799Y-12165424D02*
X18258799Y-12213043D01*
X18258799Y-12213043D02*
X18249275Y-12251138D01*
X18249275Y-12251138D02*
X18239751Y-12270186D01*
X18239751Y-12270186D02*
X18230227Y-12279710D01*
X18230227Y-12279710D02*
X18211180Y-12289234D01*
X18211180Y-12289234D02*
X18192132Y-12289234D01*
X18192132Y-12289234D02*
X18173084Y-12279710D01*
X18173084Y-12279710D02*
X18163561Y-12270186D01*
X18163561Y-12270186D02*
X18154037Y-12251138D01*
X18154037Y-12251138D02*
X18144513Y-12213043D01*
X18144513Y-12213043D02*
X18144513Y-12165424D01*
X18144513Y-12165424D02*
X18154037Y-12127329D01*
X18154037Y-12127329D02*
X18163561Y-12108281D01*
X18163561Y-12108281D02*
X18173084Y-12098758D01*
X18173084Y-12098758D02*
X18192132Y-12089234D01*
X18344513Y-12270186D02*
X18354037Y-12279710D01*
X18354037Y-12279710D02*
X18344513Y-12289234D01*
X18344513Y-12289234D02*
X18334989Y-12279710D01*
X18334989Y-12279710D02*
X18344513Y-12270186D01*
X18344513Y-12270186D02*
X18344513Y-12289234D01*
X18449275Y-12289234D02*
X18487370Y-12289234D01*
X18487370Y-12289234D02*
X18506418Y-12279710D01*
X18506418Y-12279710D02*
X18515942Y-12270186D01*
X18515942Y-12270186D02*
X18534989Y-12241615D01*
X18534989Y-12241615D02*
X18544513Y-12203519D01*
X18544513Y-12203519D02*
X18544513Y-12127329D01*
X18544513Y-12127329D02*
X18534989Y-12108281D01*
X18534989Y-12108281D02*
X18525465Y-12098758D01*
X18525465Y-12098758D02*
X18506418Y-12089234D01*
X18506418Y-12089234D02*
X18468323Y-12089234D01*
X18468323Y-12089234D02*
X18449275Y-12098758D01*
X18449275Y-12098758D02*
X18439751Y-12108281D01*
X18439751Y-12108281D02*
X18430227Y-12127329D01*
X18430227Y-12127329D02*
X18430227Y-12174948D01*
X18430227Y-12174948D02*
X18439751Y-12193996D01*
X18439751Y-12193996D02*
X18449275Y-12203519D01*
X18449275Y-12203519D02*
X18468323Y-12213043D01*
X18468323Y-12213043D02*
X18506418Y-12213043D01*
X18506418Y-12213043D02*
X18525465Y-12203519D01*
X18525465Y-12203519D02*
X18534989Y-12193996D01*
X18534989Y-12193996D02*
X18544513Y-12174948D01*
X18611180Y-12089234D02*
X18744513Y-12089234D01*
X18744513Y-12089234D02*
X18658799Y-12289234D01*
X18858799Y-12089234D02*
X18877846Y-12089234D01*
X18877846Y-12089234D02*
X18896894Y-12098758D01*
X18896894Y-12098758D02*
X18906418Y-12108281D01*
X18906418Y-12108281D02*
X18915942Y-12127329D01*
X18915942Y-12127329D02*
X18925465Y-12165424D01*
X18925465Y-12165424D02*
X18925465Y-12213043D01*
X18925465Y-12213043D02*
X18915942Y-12251138D01*
X18915942Y-12251138D02*
X18906418Y-12270186D01*
X18906418Y-12270186D02*
X18896894Y-12279710D01*
X18896894Y-12279710D02*
X18877846Y-12289234D01*
X18877846Y-12289234D02*
X18858799Y-12289234D01*
X18858799Y-12289234D02*
X18839751Y-12279710D01*
X18839751Y-12279710D02*
X18830227Y-12270186D01*
X18830227Y-12270186D02*
X18820704Y-12251138D01*
X18820704Y-12251138D02*
X18811180Y-12213043D01*
X18811180Y-12213043D02*
X18811180Y-12165424D01*
X18811180Y-12165424D02*
X18820704Y-12127329D01*
X18820704Y-12127329D02*
X18830227Y-12108281D01*
X18830227Y-12108281D02*
X18839751Y-12098758D01*
X18839751Y-12098758D02*
X18858799Y-12089234D01*
X19011180Y-12289234D02*
X19011180Y-12155900D01*
X19011180Y-12174948D02*
X19020704Y-12165424D01*
X19020704Y-12165424D02*
X19039751Y-12155900D01*
X19039751Y-12155900D02*
X19068323Y-12155900D01*
X19068323Y-12155900D02*
X19087370Y-12165424D01*
X19087370Y-12165424D02*
X19096894Y-12184472D01*
X19096894Y-12184472D02*
X19096894Y-12289234D01*
X19096894Y-12184472D02*
X19106418Y-12165424D01*
X19106418Y-12165424D02*
X19125465Y-12155900D01*
X19125465Y-12155900D02*
X19154037Y-12155900D01*
X19154037Y-12155900D02*
X19173085Y-12165424D01*
X19173085Y-12165424D02*
X19182608Y-12184472D01*
X19182608Y-12184472D02*
X19182608Y-12289234D01*
X19277846Y-12289234D02*
X19277846Y-12155900D01*
X19277846Y-12174948D02*
X19287370Y-12165424D01*
X19287370Y-12165424D02*
X19306418Y-12155900D01*
X19306418Y-12155900D02*
X19334989Y-12155900D01*
X19334989Y-12155900D02*
X19354037Y-12165424D01*
X19354037Y-12165424D02*
X19363561Y-12184472D01*
X19363561Y-12184472D02*
X19363561Y-12289234D01*
X19363561Y-12184472D02*
X19373085Y-12165424D01*
X19373085Y-12165424D02*
X19392132Y-12155900D01*
X19392132Y-12155900D02*
X19420704Y-12155900D01*
X19420704Y-12155900D02*
X19439751Y-12165424D01*
X19439751Y-12165424D02*
X19449275Y-12184472D01*
X19449275Y-12184472D02*
X19449275Y-12289234D01*
X19839751Y-12079710D02*
X19668323Y-12336853D01*
X20096894Y-12089234D02*
X20115942Y-12089234D01*
X20115942Y-12089234D02*
X20134989Y-12098758D01*
X20134989Y-12098758D02*
X20144513Y-12108281D01*
X20144513Y-12108281D02*
X20154037Y-12127329D01*
X20154037Y-12127329D02*
X20163561Y-12165424D01*
X20163561Y-12165424D02*
X20163561Y-12213043D01*
X20163561Y-12213043D02*
X20154037Y-12251138D01*
X20154037Y-12251138D02*
X20144513Y-12270186D01*
X20144513Y-12270186D02*
X20134989Y-12279710D01*
X20134989Y-12279710D02*
X20115942Y-12289234D01*
X20115942Y-12289234D02*
X20096894Y-12289234D01*
X20096894Y-12289234D02*
X20077847Y-12279710D01*
X20077847Y-12279710D02*
X20068323Y-12270186D01*
X20068323Y-12270186D02*
X20058799Y-12251138D01*
X20058799Y-12251138D02*
X20049275Y-12213043D01*
X20049275Y-12213043D02*
X20049275Y-12165424D01*
X20049275Y-12165424D02*
X20058799Y-12127329D01*
X20058799Y-12127329D02*
X20068323Y-12108281D01*
X20068323Y-12108281D02*
X20077847Y-12098758D01*
X20077847Y-12098758D02*
X20096894Y-12089234D01*
X20249275Y-12270186D02*
X20258799Y-12279710D01*
X20258799Y-12279710D02*
X20249275Y-12289234D01*
X20249275Y-12289234D02*
X20239751Y-12279710D01*
X20239751Y-12279710D02*
X20249275Y-12270186D01*
X20249275Y-12270186D02*
X20249275Y-12289234D01*
X20382608Y-12089234D02*
X20401656Y-12089234D01*
X20401656Y-12089234D02*
X20420704Y-12098758D01*
X20420704Y-12098758D02*
X20430228Y-12108281D01*
X20430228Y-12108281D02*
X20439751Y-12127329D01*
X20439751Y-12127329D02*
X20449275Y-12165424D01*
X20449275Y-12165424D02*
X20449275Y-12213043D01*
X20449275Y-12213043D02*
X20439751Y-12251138D01*
X20439751Y-12251138D02*
X20430228Y-12270186D01*
X20430228Y-12270186D02*
X20420704Y-12279710D01*
X20420704Y-12279710D02*
X20401656Y-12289234D01*
X20401656Y-12289234D02*
X20382608Y-12289234D01*
X20382608Y-12289234D02*
X20363561Y-12279710D01*
X20363561Y-12279710D02*
X20354037Y-12270186D01*
X20354037Y-12270186D02*
X20344513Y-12251138D01*
X20344513Y-12251138D02*
X20334989Y-12213043D01*
X20334989Y-12213043D02*
X20334989Y-12165424D01*
X20334989Y-12165424D02*
X20344513Y-12127329D01*
X20344513Y-12127329D02*
X20354037Y-12108281D01*
X20354037Y-12108281D02*
X20363561Y-12098758D01*
X20363561Y-12098758D02*
X20382608Y-12089234D01*
X20515942Y-12089234D02*
X20639751Y-12089234D01*
X20639751Y-12089234D02*
X20573085Y-12165424D01*
X20573085Y-12165424D02*
X20601656Y-12165424D01*
X20601656Y-12165424D02*
X20620704Y-12174948D01*
X20620704Y-12174948D02*
X20630228Y-12184472D01*
X20630228Y-12184472D02*
X20639751Y-12203519D01*
X20639751Y-12203519D02*
X20639751Y-12251138D01*
X20639751Y-12251138D02*
X20630228Y-12270186D01*
X20630228Y-12270186D02*
X20620704Y-12279710D01*
X20620704Y-12279710D02*
X20601656Y-12289234D01*
X20601656Y-12289234D02*
X20544513Y-12289234D01*
X20544513Y-12289234D02*
X20525466Y-12279710D01*
X20525466Y-12279710D02*
X20515942Y-12270186D01*
X20754037Y-12174948D02*
X20734989Y-12165424D01*
X20734989Y-12165424D02*
X20725466Y-12155900D01*
X20725466Y-12155900D02*
X20715942Y-12136853D01*
X20715942Y-12136853D02*
X20715942Y-12127329D01*
X20715942Y-12127329D02*
X20725466Y-12108281D01*
X20725466Y-12108281D02*
X20734989Y-12098758D01*
X20734989Y-12098758D02*
X20754037Y-12089234D01*
X20754037Y-12089234D02*
X20792132Y-12089234D01*
X20792132Y-12089234D02*
X20811180Y-12098758D01*
X20811180Y-12098758D02*
X20820704Y-12108281D01*
X20820704Y-12108281D02*
X20830228Y-12127329D01*
X20830228Y-12127329D02*
X20830228Y-12136853D01*
X20830228Y-12136853D02*
X20820704Y-12155900D01*
X20820704Y-12155900D02*
X20811180Y-12165424D01*
X20811180Y-12165424D02*
X20792132Y-12174948D01*
X20792132Y-12174948D02*
X20754037Y-12174948D01*
X20754037Y-12174948D02*
X20734989Y-12184472D01*
X20734989Y-12184472D02*
X20725466Y-12193996D01*
X20725466Y-12193996D02*
X20715942Y-12213043D01*
X20715942Y-12213043D02*
X20715942Y-12251138D01*
X20715942Y-12251138D02*
X20725466Y-12270186D01*
X20725466Y-12270186D02*
X20734989Y-12279710D01*
X20734989Y-12279710D02*
X20754037Y-12289234D01*
X20754037Y-12289234D02*
X20792132Y-12289234D01*
X20792132Y-12289234D02*
X20811180Y-12279710D01*
X20811180Y-12279710D02*
X20820704Y-12270186D01*
X20820704Y-12270186D02*
X20830228Y-12251138D01*
X20830228Y-12251138D02*
X20830228Y-12213043D01*
X20830228Y-12213043D02*
X20820704Y-12193996D01*
X20820704Y-12193996D02*
X20811180Y-12184472D01*
X20811180Y-12184472D02*
X20792132Y-12174948D01*
X20906418Y-12108281D02*
X20915942Y-12098758D01*
X20915942Y-12098758D02*
X20934989Y-12089234D01*
X20934989Y-12089234D02*
X20982609Y-12089234D01*
X20982609Y-12089234D02*
X21001656Y-12098758D01*
X21001656Y-12098758D02*
X21011180Y-12108281D01*
X21011180Y-12108281D02*
X21020704Y-12127329D01*
X21020704Y-12127329D02*
X21020704Y-12146377D01*
X21020704Y-12146377D02*
X21011180Y-12174948D01*
X21011180Y-12174948D02*
X20896894Y-12289234D01*
X20896894Y-12289234D02*
X21020704Y-12289234D01*
X21096894Y-12089234D02*
X21096894Y-12127329D01*
X21173085Y-12089234D02*
X21173085Y-12127329D01*
X21468323Y-12365424D02*
X21458799Y-12355900D01*
X21458799Y-12355900D02*
X21439751Y-12327329D01*
X21439751Y-12327329D02*
X21430228Y-12308281D01*
X21430228Y-12308281D02*
X21420704Y-12279710D01*
X21420704Y-12279710D02*
X21411180Y-12232091D01*
X21411180Y-12232091D02*
X21411180Y-12193996D01*
X21411180Y-12193996D02*
X21420704Y-12146377D01*
X21420704Y-12146377D02*
X21430228Y-12117805D01*
X21430228Y-12117805D02*
X21439751Y-12098758D01*
X21439751Y-12098758D02*
X21458799Y-12070186D01*
X21458799Y-12070186D02*
X21468323Y-12060662D01*
X21649275Y-12289234D02*
X21534990Y-12289234D01*
X21592132Y-12289234D02*
X21592132Y-12089234D01*
X21592132Y-12089234D02*
X21573085Y-12117805D01*
X21573085Y-12117805D02*
X21554037Y-12136853D01*
X21554037Y-12136853D02*
X21534990Y-12146377D01*
X21773085Y-12089234D02*
X21792132Y-12089234D01*
X21792132Y-12089234D02*
X21811180Y-12098758D01*
X21811180Y-12098758D02*
X21820704Y-12108281D01*
X21820704Y-12108281D02*
X21830228Y-12127329D01*
X21830228Y-12127329D02*
X21839751Y-12165424D01*
X21839751Y-12165424D02*
X21839751Y-12213043D01*
X21839751Y-12213043D02*
X21830228Y-12251138D01*
X21830228Y-12251138D02*
X21820704Y-12270186D01*
X21820704Y-12270186D02*
X21811180Y-12279710D01*
X21811180Y-12279710D02*
X21792132Y-12289234D01*
X21792132Y-12289234D02*
X21773085Y-12289234D01*
X21773085Y-12289234D02*
X21754037Y-12279710D01*
X21754037Y-12279710D02*
X21744513Y-12270186D01*
X21744513Y-12270186D02*
X21734990Y-12251138D01*
X21734990Y-12251138D02*
X21725466Y-12213043D01*
X21725466Y-12213043D02*
X21725466Y-12165424D01*
X21725466Y-12165424D02*
X21734990Y-12127329D01*
X21734990Y-12127329D02*
X21744513Y-12108281D01*
X21744513Y-12108281D02*
X21754037Y-12098758D01*
X21754037Y-12098758D02*
X21773085Y-12089234D01*
X22077847Y-12289234D02*
X22077847Y-12089234D01*
X22163561Y-12289234D02*
X22163561Y-12184472D01*
X22163561Y-12184472D02*
X22154037Y-12165424D01*
X22154037Y-12165424D02*
X22134990Y-12155900D01*
X22134990Y-12155900D02*
X22106418Y-12155900D01*
X22106418Y-12155900D02*
X22087371Y-12165424D01*
X22087371Y-12165424D02*
X22077847Y-12174948D01*
X22287371Y-12289234D02*
X22268323Y-12279710D01*
X22268323Y-12279710D02*
X22258799Y-12270186D01*
X22258799Y-12270186D02*
X22249275Y-12251138D01*
X22249275Y-12251138D02*
X22249275Y-12193996D01*
X22249275Y-12193996D02*
X22258799Y-12174948D01*
X22258799Y-12174948D02*
X22268323Y-12165424D01*
X22268323Y-12165424D02*
X22287371Y-12155900D01*
X22287371Y-12155900D02*
X22315942Y-12155900D01*
X22315942Y-12155900D02*
X22334990Y-12165424D01*
X22334990Y-12165424D02*
X22344513Y-12174948D01*
X22344513Y-12174948D02*
X22354037Y-12193996D01*
X22354037Y-12193996D02*
X22354037Y-12251138D01*
X22354037Y-12251138D02*
X22344513Y-12270186D01*
X22344513Y-12270186D02*
X22334990Y-12279710D01*
X22334990Y-12279710D02*
X22315942Y-12289234D01*
X22315942Y-12289234D02*
X22287371Y-12289234D01*
X22468323Y-12289234D02*
X22449275Y-12279710D01*
X22449275Y-12279710D02*
X22439751Y-12260662D01*
X22439751Y-12260662D02*
X22439751Y-12089234D01*
X22620704Y-12279710D02*
X22601656Y-12289234D01*
X22601656Y-12289234D02*
X22563561Y-12289234D01*
X22563561Y-12289234D02*
X22544513Y-12279710D01*
X22544513Y-12279710D02*
X22534990Y-12260662D01*
X22534990Y-12260662D02*
X22534990Y-12184472D01*
X22534990Y-12184472D02*
X22544513Y-12165424D01*
X22544513Y-12165424D02*
X22563561Y-12155900D01*
X22563561Y-12155900D02*
X22601656Y-12155900D01*
X22601656Y-12155900D02*
X22620704Y-12165424D01*
X22620704Y-12165424D02*
X22630228Y-12184472D01*
X22630228Y-12184472D02*
X22630228Y-12203519D01*
X22630228Y-12203519D02*
X22534990Y-12222567D01*
X22706418Y-12279710D02*
X22725466Y-12289234D01*
X22725466Y-12289234D02*
X22763561Y-12289234D01*
X22763561Y-12289234D02*
X22782609Y-12279710D01*
X22782609Y-12279710D02*
X22792132Y-12260662D01*
X22792132Y-12260662D02*
X22792132Y-12251138D01*
X22792132Y-12251138D02*
X22782609Y-12232091D01*
X22782609Y-12232091D02*
X22763561Y-12222567D01*
X22763561Y-12222567D02*
X22734990Y-12222567D01*
X22734990Y-12222567D02*
X22715942Y-12213043D01*
X22715942Y-12213043D02*
X22706418Y-12193996D01*
X22706418Y-12193996D02*
X22706418Y-12184472D01*
X22706418Y-12184472D02*
X22715942Y-12165424D01*
X22715942Y-12165424D02*
X22734990Y-12155900D01*
X22734990Y-12155900D02*
X22763561Y-12155900D01*
X22763561Y-12155900D02*
X22782609Y-12165424D01*
X22858799Y-12365424D02*
X22868323Y-12355900D01*
X22868323Y-12355900D02*
X22887371Y-12327329D01*
X22887371Y-12327329D02*
X22896894Y-12308281D01*
X22896894Y-12308281D02*
X22906418Y-12279710D01*
X22906418Y-12279710D02*
X22915942Y-12232091D01*
X22915942Y-12232091D02*
X22915942Y-12193996D01*
X22915942Y-12193996D02*
X22906418Y-12146377D01*
X22906418Y-12146377D02*
X22896894Y-12117805D01*
X22896894Y-12117805D02*
X22887371Y-12098758D01*
X22887371Y-12098758D02*
X22868323Y-12070186D01*
X22868323Y-12070186D02*
X22858799Y-12060662D01*
D12*
X17878616Y-12497106D02*
X17878616Y-12426394D01*
X17807904Y-12426394D01*
X17807904Y-12497106D01*
X17878616Y-12497106D01*
D11*
X18258799Y-12553234D02*
X18144513Y-12553234D01*
X18201656Y-12553234D02*
X18201656Y-12353234D01*
X18201656Y-12353234D02*
X18182608Y-12381805D01*
X18182608Y-12381805D02*
X18163561Y-12400853D01*
X18163561Y-12400853D02*
X18144513Y-12410377D01*
X18344513Y-12534186D02*
X18354037Y-12543710D01*
X18354037Y-12543710D02*
X18344513Y-12553234D01*
X18344513Y-12553234D02*
X18334989Y-12543710D01*
X18334989Y-12543710D02*
X18344513Y-12534186D01*
X18344513Y-12534186D02*
X18344513Y-12553234D01*
X18477846Y-12353234D02*
X18496894Y-12353234D01*
X18496894Y-12353234D02*
X18515942Y-12362758D01*
X18515942Y-12362758D02*
X18525465Y-12372281D01*
X18525465Y-12372281D02*
X18534989Y-12391329D01*
X18534989Y-12391329D02*
X18544513Y-12429424D01*
X18544513Y-12429424D02*
X18544513Y-12477043D01*
X18544513Y-12477043D02*
X18534989Y-12515138D01*
X18534989Y-12515138D02*
X18525465Y-12534186D01*
X18525465Y-12534186D02*
X18515942Y-12543710D01*
X18515942Y-12543710D02*
X18496894Y-12553234D01*
X18496894Y-12553234D02*
X18477846Y-12553234D01*
X18477846Y-12553234D02*
X18458799Y-12543710D01*
X18458799Y-12543710D02*
X18449275Y-12534186D01*
X18449275Y-12534186D02*
X18439751Y-12515138D01*
X18439751Y-12515138D02*
X18430227Y-12477043D01*
X18430227Y-12477043D02*
X18430227Y-12429424D01*
X18430227Y-12429424D02*
X18439751Y-12391329D01*
X18439751Y-12391329D02*
X18449275Y-12372281D01*
X18449275Y-12372281D02*
X18458799Y-12362758D01*
X18458799Y-12362758D02*
X18477846Y-12353234D01*
X18668323Y-12353234D02*
X18687370Y-12353234D01*
X18687370Y-12353234D02*
X18706418Y-12362758D01*
X18706418Y-12362758D02*
X18715942Y-12372281D01*
X18715942Y-12372281D02*
X18725465Y-12391329D01*
X18725465Y-12391329D02*
X18734989Y-12429424D01*
X18734989Y-12429424D02*
X18734989Y-12477043D01*
X18734989Y-12477043D02*
X18725465Y-12515138D01*
X18725465Y-12515138D02*
X18715942Y-12534186D01*
X18715942Y-12534186D02*
X18706418Y-12543710D01*
X18706418Y-12543710D02*
X18687370Y-12553234D01*
X18687370Y-12553234D02*
X18668323Y-12553234D01*
X18668323Y-12553234D02*
X18649275Y-12543710D01*
X18649275Y-12543710D02*
X18639751Y-12534186D01*
X18639751Y-12534186D02*
X18630227Y-12515138D01*
X18630227Y-12515138D02*
X18620704Y-12477043D01*
X18620704Y-12477043D02*
X18620704Y-12429424D01*
X18620704Y-12429424D02*
X18630227Y-12391329D01*
X18630227Y-12391329D02*
X18639751Y-12372281D01*
X18639751Y-12372281D02*
X18649275Y-12362758D01*
X18649275Y-12362758D02*
X18668323Y-12353234D01*
X18858799Y-12353234D02*
X18877846Y-12353234D01*
X18877846Y-12353234D02*
X18896894Y-12362758D01*
X18896894Y-12362758D02*
X18906418Y-12372281D01*
X18906418Y-12372281D02*
X18915942Y-12391329D01*
X18915942Y-12391329D02*
X18925465Y-12429424D01*
X18925465Y-12429424D02*
X18925465Y-12477043D01*
X18925465Y-12477043D02*
X18915942Y-12515138D01*
X18915942Y-12515138D02*
X18906418Y-12534186D01*
X18906418Y-12534186D02*
X18896894Y-12543710D01*
X18896894Y-12543710D02*
X18877846Y-12553234D01*
X18877846Y-12553234D02*
X18858799Y-12553234D01*
X18858799Y-12553234D02*
X18839751Y-12543710D01*
X18839751Y-12543710D02*
X18830227Y-12534186D01*
X18830227Y-12534186D02*
X18820704Y-12515138D01*
X18820704Y-12515138D02*
X18811180Y-12477043D01*
X18811180Y-12477043D02*
X18811180Y-12429424D01*
X18811180Y-12429424D02*
X18820704Y-12391329D01*
X18820704Y-12391329D02*
X18830227Y-12372281D01*
X18830227Y-12372281D02*
X18839751Y-12362758D01*
X18839751Y-12362758D02*
X18858799Y-12353234D01*
X19011180Y-12553234D02*
X19011180Y-12419900D01*
X19011180Y-12438948D02*
X19020704Y-12429424D01*
X19020704Y-12429424D02*
X19039751Y-12419900D01*
X19039751Y-12419900D02*
X19068323Y-12419900D01*
X19068323Y-12419900D02*
X19087370Y-12429424D01*
X19087370Y-12429424D02*
X19096894Y-12448472D01*
X19096894Y-12448472D02*
X19096894Y-12553234D01*
X19096894Y-12448472D02*
X19106418Y-12429424D01*
X19106418Y-12429424D02*
X19125465Y-12419900D01*
X19125465Y-12419900D02*
X19154037Y-12419900D01*
X19154037Y-12419900D02*
X19173085Y-12429424D01*
X19173085Y-12429424D02*
X19182608Y-12448472D01*
X19182608Y-12448472D02*
X19182608Y-12553234D01*
X19277846Y-12553234D02*
X19277846Y-12419900D01*
X19277846Y-12438948D02*
X19287370Y-12429424D01*
X19287370Y-12429424D02*
X19306418Y-12419900D01*
X19306418Y-12419900D02*
X19334989Y-12419900D01*
X19334989Y-12419900D02*
X19354037Y-12429424D01*
X19354037Y-12429424D02*
X19363561Y-12448472D01*
X19363561Y-12448472D02*
X19363561Y-12553234D01*
X19363561Y-12448472D02*
X19373085Y-12429424D01*
X19373085Y-12429424D02*
X19392132Y-12419900D01*
X19392132Y-12419900D02*
X19420704Y-12419900D01*
X19420704Y-12419900D02*
X19439751Y-12429424D01*
X19439751Y-12429424D02*
X19449275Y-12448472D01*
X19449275Y-12448472D02*
X19449275Y-12553234D01*
X19839751Y-12343710D02*
X19668323Y-12600853D01*
X20096894Y-12353234D02*
X20115942Y-12353234D01*
X20115942Y-12353234D02*
X20134989Y-12362758D01*
X20134989Y-12362758D02*
X20144513Y-12372281D01*
X20144513Y-12372281D02*
X20154037Y-12391329D01*
X20154037Y-12391329D02*
X20163561Y-12429424D01*
X20163561Y-12429424D02*
X20163561Y-12477043D01*
X20163561Y-12477043D02*
X20154037Y-12515138D01*
X20154037Y-12515138D02*
X20144513Y-12534186D01*
X20144513Y-12534186D02*
X20134989Y-12543710D01*
X20134989Y-12543710D02*
X20115942Y-12553234D01*
X20115942Y-12553234D02*
X20096894Y-12553234D01*
X20096894Y-12553234D02*
X20077847Y-12543710D01*
X20077847Y-12543710D02*
X20068323Y-12534186D01*
X20068323Y-12534186D02*
X20058799Y-12515138D01*
X20058799Y-12515138D02*
X20049275Y-12477043D01*
X20049275Y-12477043D02*
X20049275Y-12429424D01*
X20049275Y-12429424D02*
X20058799Y-12391329D01*
X20058799Y-12391329D02*
X20068323Y-12372281D01*
X20068323Y-12372281D02*
X20077847Y-12362758D01*
X20077847Y-12362758D02*
X20096894Y-12353234D01*
X20249275Y-12534186D02*
X20258799Y-12543710D01*
X20258799Y-12543710D02*
X20249275Y-12553234D01*
X20249275Y-12553234D02*
X20239751Y-12543710D01*
X20239751Y-12543710D02*
X20249275Y-12534186D01*
X20249275Y-12534186D02*
X20249275Y-12553234D01*
X20382608Y-12353234D02*
X20401656Y-12353234D01*
X20401656Y-12353234D02*
X20420704Y-12362758D01*
X20420704Y-12362758D02*
X20430228Y-12372281D01*
X20430228Y-12372281D02*
X20439751Y-12391329D01*
X20439751Y-12391329D02*
X20449275Y-12429424D01*
X20449275Y-12429424D02*
X20449275Y-12477043D01*
X20449275Y-12477043D02*
X20439751Y-12515138D01*
X20439751Y-12515138D02*
X20430228Y-12534186D01*
X20430228Y-12534186D02*
X20420704Y-12543710D01*
X20420704Y-12543710D02*
X20401656Y-12553234D01*
X20401656Y-12553234D02*
X20382608Y-12553234D01*
X20382608Y-12553234D02*
X20363561Y-12543710D01*
X20363561Y-12543710D02*
X20354037Y-12534186D01*
X20354037Y-12534186D02*
X20344513Y-12515138D01*
X20344513Y-12515138D02*
X20334989Y-12477043D01*
X20334989Y-12477043D02*
X20334989Y-12429424D01*
X20334989Y-12429424D02*
X20344513Y-12391329D01*
X20344513Y-12391329D02*
X20354037Y-12372281D01*
X20354037Y-12372281D02*
X20363561Y-12362758D01*
X20363561Y-12362758D02*
X20382608Y-12353234D01*
X20515942Y-12353234D02*
X20639751Y-12353234D01*
X20639751Y-12353234D02*
X20573085Y-12429424D01*
X20573085Y-12429424D02*
X20601656Y-12429424D01*
X20601656Y-12429424D02*
X20620704Y-12438948D01*
X20620704Y-12438948D02*
X20630228Y-12448472D01*
X20630228Y-12448472D02*
X20639751Y-12467519D01*
X20639751Y-12467519D02*
X20639751Y-12515138D01*
X20639751Y-12515138D02*
X20630228Y-12534186D01*
X20630228Y-12534186D02*
X20620704Y-12543710D01*
X20620704Y-12543710D02*
X20601656Y-12553234D01*
X20601656Y-12553234D02*
X20544513Y-12553234D01*
X20544513Y-12553234D02*
X20525466Y-12543710D01*
X20525466Y-12543710D02*
X20515942Y-12534186D01*
X20734989Y-12553234D02*
X20773085Y-12553234D01*
X20773085Y-12553234D02*
X20792132Y-12543710D01*
X20792132Y-12543710D02*
X20801656Y-12534186D01*
X20801656Y-12534186D02*
X20820704Y-12505615D01*
X20820704Y-12505615D02*
X20830228Y-12467519D01*
X20830228Y-12467519D02*
X20830228Y-12391329D01*
X20830228Y-12391329D02*
X20820704Y-12372281D01*
X20820704Y-12372281D02*
X20811180Y-12362758D01*
X20811180Y-12362758D02*
X20792132Y-12353234D01*
X20792132Y-12353234D02*
X20754037Y-12353234D01*
X20754037Y-12353234D02*
X20734989Y-12362758D01*
X20734989Y-12362758D02*
X20725466Y-12372281D01*
X20725466Y-12372281D02*
X20715942Y-12391329D01*
X20715942Y-12391329D02*
X20715942Y-12438948D01*
X20715942Y-12438948D02*
X20725466Y-12457996D01*
X20725466Y-12457996D02*
X20734989Y-12467519D01*
X20734989Y-12467519D02*
X20754037Y-12477043D01*
X20754037Y-12477043D02*
X20792132Y-12477043D01*
X20792132Y-12477043D02*
X20811180Y-12467519D01*
X20811180Y-12467519D02*
X20820704Y-12457996D01*
X20820704Y-12457996D02*
X20830228Y-12438948D01*
X21001656Y-12419900D02*
X21001656Y-12553234D01*
X20954037Y-12343710D02*
X20906418Y-12486567D01*
X20906418Y-12486567D02*
X21030228Y-12486567D01*
X21096894Y-12353234D02*
X21096894Y-12391329D01*
X21173085Y-12353234D02*
X21173085Y-12391329D01*
X21468323Y-12629424D02*
X21458799Y-12619900D01*
X21458799Y-12619900D02*
X21439751Y-12591329D01*
X21439751Y-12591329D02*
X21430228Y-12572281D01*
X21430228Y-12572281D02*
X21420704Y-12543710D01*
X21420704Y-12543710D02*
X21411180Y-12496091D01*
X21411180Y-12496091D02*
X21411180Y-12457996D01*
X21411180Y-12457996D02*
X21420704Y-12410377D01*
X21420704Y-12410377D02*
X21430228Y-12381805D01*
X21430228Y-12381805D02*
X21439751Y-12362758D01*
X21439751Y-12362758D02*
X21458799Y-12334186D01*
X21458799Y-12334186D02*
X21468323Y-12324662D01*
X21649275Y-12553234D02*
X21534990Y-12553234D01*
X21592132Y-12553234D02*
X21592132Y-12353234D01*
X21592132Y-12353234D02*
X21573085Y-12381805D01*
X21573085Y-12381805D02*
X21554037Y-12400853D01*
X21554037Y-12400853D02*
X21534990Y-12410377D01*
X21820704Y-12419900D02*
X21820704Y-12553234D01*
X21773085Y-12343710D02*
X21725466Y-12486567D01*
X21725466Y-12486567D02*
X21849275Y-12486567D01*
X22011180Y-12419900D02*
X22011180Y-12553234D01*
X21963561Y-12343710D02*
X21915942Y-12486567D01*
X21915942Y-12486567D02*
X22039751Y-12486567D01*
X22268323Y-12553234D02*
X22268323Y-12353234D01*
X22354037Y-12553234D02*
X22354037Y-12448472D01*
X22354037Y-12448472D02*
X22344513Y-12429424D01*
X22344513Y-12429424D02*
X22325466Y-12419900D01*
X22325466Y-12419900D02*
X22296894Y-12419900D01*
X22296894Y-12419900D02*
X22277847Y-12429424D01*
X22277847Y-12429424D02*
X22268323Y-12438948D01*
X22477847Y-12553234D02*
X22458799Y-12543710D01*
X22458799Y-12543710D02*
X22449275Y-12534186D01*
X22449275Y-12534186D02*
X22439751Y-12515138D01*
X22439751Y-12515138D02*
X22439751Y-12457996D01*
X22439751Y-12457996D02*
X22449275Y-12438948D01*
X22449275Y-12438948D02*
X22458799Y-12429424D01*
X22458799Y-12429424D02*
X22477847Y-12419900D01*
X22477847Y-12419900D02*
X22506418Y-12419900D01*
X22506418Y-12419900D02*
X22525466Y-12429424D01*
X22525466Y-12429424D02*
X22534990Y-12438948D01*
X22534990Y-12438948D02*
X22544513Y-12457996D01*
X22544513Y-12457996D02*
X22544513Y-12515138D01*
X22544513Y-12515138D02*
X22534990Y-12534186D01*
X22534990Y-12534186D02*
X22525466Y-12543710D01*
X22525466Y-12543710D02*
X22506418Y-12553234D01*
X22506418Y-12553234D02*
X22477847Y-12553234D01*
X22658799Y-12553234D02*
X22639751Y-12543710D01*
X22639751Y-12543710D02*
X22630228Y-12524662D01*
X22630228Y-12524662D02*
X22630228Y-12353234D01*
X22811180Y-12543710D02*
X22792132Y-12553234D01*
X22792132Y-12553234D02*
X22754037Y-12553234D01*
X22754037Y-12553234D02*
X22734990Y-12543710D01*
X22734990Y-12543710D02*
X22725466Y-12524662D01*
X22725466Y-12524662D02*
X22725466Y-12448472D01*
X22725466Y-12448472D02*
X22734990Y-12429424D01*
X22734990Y-12429424D02*
X22754037Y-12419900D01*
X22754037Y-12419900D02*
X22792132Y-12419900D01*
X22792132Y-12419900D02*
X22811180Y-12429424D01*
X22811180Y-12429424D02*
X22820704Y-12448472D01*
X22820704Y-12448472D02*
X22820704Y-12467519D01*
X22820704Y-12467519D02*
X22725466Y-12486567D01*
X22896894Y-12543710D02*
X22915942Y-12553234D01*
X22915942Y-12553234D02*
X22954037Y-12553234D01*
X22954037Y-12553234D02*
X22973085Y-12543710D01*
X22973085Y-12543710D02*
X22982609Y-12524662D01*
X22982609Y-12524662D02*
X22982609Y-12515138D01*
X22982609Y-12515138D02*
X22973085Y-12496091D01*
X22973085Y-12496091D02*
X22954037Y-12486567D01*
X22954037Y-12486567D02*
X22925466Y-12486567D01*
X22925466Y-12486567D02*
X22906418Y-12477043D01*
X22906418Y-12477043D02*
X22896894Y-12457996D01*
X22896894Y-12457996D02*
X22896894Y-12448472D01*
X22896894Y-12448472D02*
X22906418Y-12429424D01*
X22906418Y-12429424D02*
X22925466Y-12419900D01*
X22925466Y-12419900D02*
X22954037Y-12419900D01*
X22954037Y-12419900D02*
X22973085Y-12429424D01*
X23049275Y-12629424D02*
X23058799Y-12619900D01*
X23058799Y-12619900D02*
X23077847Y-12591329D01*
X23077847Y-12591329D02*
X23087371Y-12572281D01*
X23087371Y-12572281D02*
X23096894Y-12543710D01*
X23096894Y-12543710D02*
X23106418Y-12496091D01*
X23106418Y-12496091D02*
X23106418Y-12457996D01*
X23106418Y-12457996D02*
X23096894Y-12410377D01*
X23096894Y-12410377D02*
X23087371Y-12381805D01*
X23087371Y-12381805D02*
X23077847Y-12362758D01*
X23077847Y-12362758D02*
X23058799Y-12334186D01*
X23058799Y-12334186D02*
X23049275Y-12324662D01*
D13*
X17810760Y-12808250D02*
X17893260Y-12725750D01*
X17810760Y-12643250D01*
X17728260Y-12725750D01*
X17810760Y-12808250D01*
D11*
X18258799Y-12817234D02*
X18144513Y-12817234D01*
X18201656Y-12817234D02*
X18201656Y-12617234D01*
X18201656Y-12617234D02*
X18182608Y-12645805D01*
X18182608Y-12645805D02*
X18163561Y-12664853D01*
X18163561Y-12664853D02*
X18144513Y-12674377D01*
X18344513Y-12798186D02*
X18354037Y-12807710D01*
X18354037Y-12807710D02*
X18344513Y-12817234D01*
X18344513Y-12817234D02*
X18334989Y-12807710D01*
X18334989Y-12807710D02*
X18344513Y-12798186D01*
X18344513Y-12798186D02*
X18344513Y-12817234D01*
X18525465Y-12617234D02*
X18487370Y-12617234D01*
X18487370Y-12617234D02*
X18468323Y-12626758D01*
X18468323Y-12626758D02*
X18458799Y-12636281D01*
X18458799Y-12636281D02*
X18439751Y-12664853D01*
X18439751Y-12664853D02*
X18430227Y-12702948D01*
X18430227Y-12702948D02*
X18430227Y-12779138D01*
X18430227Y-12779138D02*
X18439751Y-12798186D01*
X18439751Y-12798186D02*
X18449275Y-12807710D01*
X18449275Y-12807710D02*
X18468323Y-12817234D01*
X18468323Y-12817234D02*
X18506418Y-12817234D01*
X18506418Y-12817234D02*
X18525465Y-12807710D01*
X18525465Y-12807710D02*
X18534989Y-12798186D01*
X18534989Y-12798186D02*
X18544513Y-12779138D01*
X18544513Y-12779138D02*
X18544513Y-12731519D01*
X18544513Y-12731519D02*
X18534989Y-12712472D01*
X18534989Y-12712472D02*
X18525465Y-12702948D01*
X18525465Y-12702948D02*
X18506418Y-12693424D01*
X18506418Y-12693424D02*
X18468323Y-12693424D01*
X18468323Y-12693424D02*
X18449275Y-12702948D01*
X18449275Y-12702948D02*
X18439751Y-12712472D01*
X18439751Y-12712472D02*
X18430227Y-12731519D01*
X18725465Y-12617234D02*
X18630227Y-12617234D01*
X18630227Y-12617234D02*
X18620704Y-12712472D01*
X18620704Y-12712472D02*
X18630227Y-12702948D01*
X18630227Y-12702948D02*
X18649275Y-12693424D01*
X18649275Y-12693424D02*
X18696894Y-12693424D01*
X18696894Y-12693424D02*
X18715942Y-12702948D01*
X18715942Y-12702948D02*
X18725465Y-12712472D01*
X18725465Y-12712472D02*
X18734989Y-12731519D01*
X18734989Y-12731519D02*
X18734989Y-12779138D01*
X18734989Y-12779138D02*
X18725465Y-12798186D01*
X18725465Y-12798186D02*
X18715942Y-12807710D01*
X18715942Y-12807710D02*
X18696894Y-12817234D01*
X18696894Y-12817234D02*
X18649275Y-12817234D01*
X18649275Y-12817234D02*
X18630227Y-12807710D01*
X18630227Y-12807710D02*
X18620704Y-12798186D01*
X18858799Y-12617234D02*
X18877846Y-12617234D01*
X18877846Y-12617234D02*
X18896894Y-12626758D01*
X18896894Y-12626758D02*
X18906418Y-12636281D01*
X18906418Y-12636281D02*
X18915942Y-12655329D01*
X18915942Y-12655329D02*
X18925465Y-12693424D01*
X18925465Y-12693424D02*
X18925465Y-12741043D01*
X18925465Y-12741043D02*
X18915942Y-12779138D01*
X18915942Y-12779138D02*
X18906418Y-12798186D01*
X18906418Y-12798186D02*
X18896894Y-12807710D01*
X18896894Y-12807710D02*
X18877846Y-12817234D01*
X18877846Y-12817234D02*
X18858799Y-12817234D01*
X18858799Y-12817234D02*
X18839751Y-12807710D01*
X18839751Y-12807710D02*
X18830227Y-12798186D01*
X18830227Y-12798186D02*
X18820704Y-12779138D01*
X18820704Y-12779138D02*
X18811180Y-12741043D01*
X18811180Y-12741043D02*
X18811180Y-12693424D01*
X18811180Y-12693424D02*
X18820704Y-12655329D01*
X18820704Y-12655329D02*
X18830227Y-12636281D01*
X18830227Y-12636281D02*
X18839751Y-12626758D01*
X18839751Y-12626758D02*
X18858799Y-12617234D01*
X19011180Y-12817234D02*
X19011180Y-12683900D01*
X19011180Y-12702948D02*
X19020704Y-12693424D01*
X19020704Y-12693424D02*
X19039751Y-12683900D01*
X19039751Y-12683900D02*
X19068323Y-12683900D01*
X19068323Y-12683900D02*
X19087370Y-12693424D01*
X19087370Y-12693424D02*
X19096894Y-12712472D01*
X19096894Y-12712472D02*
X19096894Y-12817234D01*
X19096894Y-12712472D02*
X19106418Y-12693424D01*
X19106418Y-12693424D02*
X19125465Y-12683900D01*
X19125465Y-12683900D02*
X19154037Y-12683900D01*
X19154037Y-12683900D02*
X19173085Y-12693424D01*
X19173085Y-12693424D02*
X19182608Y-12712472D01*
X19182608Y-12712472D02*
X19182608Y-12817234D01*
X19277846Y-12817234D02*
X19277846Y-12683900D01*
X19277846Y-12702948D02*
X19287370Y-12693424D01*
X19287370Y-12693424D02*
X19306418Y-12683900D01*
X19306418Y-12683900D02*
X19334989Y-12683900D01*
X19334989Y-12683900D02*
X19354037Y-12693424D01*
X19354037Y-12693424D02*
X19363561Y-12712472D01*
X19363561Y-12712472D02*
X19363561Y-12817234D01*
X19363561Y-12712472D02*
X19373085Y-12693424D01*
X19373085Y-12693424D02*
X19392132Y-12683900D01*
X19392132Y-12683900D02*
X19420704Y-12683900D01*
X19420704Y-12683900D02*
X19439751Y-12693424D01*
X19439751Y-12693424D02*
X19449275Y-12712472D01*
X19449275Y-12712472D02*
X19449275Y-12817234D01*
X19839751Y-12607710D02*
X19668323Y-12864853D01*
X20096894Y-12617234D02*
X20115942Y-12617234D01*
X20115942Y-12617234D02*
X20134989Y-12626758D01*
X20134989Y-12626758D02*
X20144513Y-12636281D01*
X20144513Y-12636281D02*
X20154037Y-12655329D01*
X20154037Y-12655329D02*
X20163561Y-12693424D01*
X20163561Y-12693424D02*
X20163561Y-12741043D01*
X20163561Y-12741043D02*
X20154037Y-12779138D01*
X20154037Y-12779138D02*
X20144513Y-12798186D01*
X20144513Y-12798186D02*
X20134989Y-12807710D01*
X20134989Y-12807710D02*
X20115942Y-12817234D01*
X20115942Y-12817234D02*
X20096894Y-12817234D01*
X20096894Y-12817234D02*
X20077847Y-12807710D01*
X20077847Y-12807710D02*
X20068323Y-12798186D01*
X20068323Y-12798186D02*
X20058799Y-12779138D01*
X20058799Y-12779138D02*
X20049275Y-12741043D01*
X20049275Y-12741043D02*
X20049275Y-12693424D01*
X20049275Y-12693424D02*
X20058799Y-12655329D01*
X20058799Y-12655329D02*
X20068323Y-12636281D01*
X20068323Y-12636281D02*
X20077847Y-12626758D01*
X20077847Y-12626758D02*
X20096894Y-12617234D01*
X20249275Y-12798186D02*
X20258799Y-12807710D01*
X20258799Y-12807710D02*
X20249275Y-12817234D01*
X20249275Y-12817234D02*
X20239751Y-12807710D01*
X20239751Y-12807710D02*
X20249275Y-12798186D01*
X20249275Y-12798186D02*
X20249275Y-12817234D01*
X20382608Y-12617234D02*
X20401656Y-12617234D01*
X20401656Y-12617234D02*
X20420704Y-12626758D01*
X20420704Y-12626758D02*
X20430228Y-12636281D01*
X20430228Y-12636281D02*
X20439751Y-12655329D01*
X20439751Y-12655329D02*
X20449275Y-12693424D01*
X20449275Y-12693424D02*
X20449275Y-12741043D01*
X20449275Y-12741043D02*
X20439751Y-12779138D01*
X20439751Y-12779138D02*
X20430228Y-12798186D01*
X20430228Y-12798186D02*
X20420704Y-12807710D01*
X20420704Y-12807710D02*
X20401656Y-12817234D01*
X20401656Y-12817234D02*
X20382608Y-12817234D01*
X20382608Y-12817234D02*
X20363561Y-12807710D01*
X20363561Y-12807710D02*
X20354037Y-12798186D01*
X20354037Y-12798186D02*
X20344513Y-12779138D01*
X20344513Y-12779138D02*
X20334989Y-12741043D01*
X20334989Y-12741043D02*
X20334989Y-12693424D01*
X20334989Y-12693424D02*
X20344513Y-12655329D01*
X20344513Y-12655329D02*
X20354037Y-12636281D01*
X20354037Y-12636281D02*
X20363561Y-12626758D01*
X20363561Y-12626758D02*
X20382608Y-12617234D01*
X20620704Y-12617234D02*
X20582608Y-12617234D01*
X20582608Y-12617234D02*
X20563561Y-12626758D01*
X20563561Y-12626758D02*
X20554037Y-12636281D01*
X20554037Y-12636281D02*
X20534989Y-12664853D01*
X20534989Y-12664853D02*
X20525466Y-12702948D01*
X20525466Y-12702948D02*
X20525466Y-12779138D01*
X20525466Y-12779138D02*
X20534989Y-12798186D01*
X20534989Y-12798186D02*
X20544513Y-12807710D01*
X20544513Y-12807710D02*
X20563561Y-12817234D01*
X20563561Y-12817234D02*
X20601656Y-12817234D01*
X20601656Y-12817234D02*
X20620704Y-12807710D01*
X20620704Y-12807710D02*
X20630228Y-12798186D01*
X20630228Y-12798186D02*
X20639751Y-12779138D01*
X20639751Y-12779138D02*
X20639751Y-12731519D01*
X20639751Y-12731519D02*
X20630228Y-12712472D01*
X20630228Y-12712472D02*
X20620704Y-12702948D01*
X20620704Y-12702948D02*
X20601656Y-12693424D01*
X20601656Y-12693424D02*
X20563561Y-12693424D01*
X20563561Y-12693424D02*
X20544513Y-12702948D01*
X20544513Y-12702948D02*
X20534989Y-12712472D01*
X20534989Y-12712472D02*
X20525466Y-12731519D01*
X20820704Y-12617234D02*
X20725466Y-12617234D01*
X20725466Y-12617234D02*
X20715942Y-12712472D01*
X20715942Y-12712472D02*
X20725466Y-12702948D01*
X20725466Y-12702948D02*
X20744513Y-12693424D01*
X20744513Y-12693424D02*
X20792132Y-12693424D01*
X20792132Y-12693424D02*
X20811180Y-12702948D01*
X20811180Y-12702948D02*
X20820704Y-12712472D01*
X20820704Y-12712472D02*
X20830228Y-12731519D01*
X20830228Y-12731519D02*
X20830228Y-12779138D01*
X20830228Y-12779138D02*
X20820704Y-12798186D01*
X20820704Y-12798186D02*
X20811180Y-12807710D01*
X20811180Y-12807710D02*
X20792132Y-12817234D01*
X20792132Y-12817234D02*
X20744513Y-12817234D01*
X20744513Y-12817234D02*
X20725466Y-12807710D01*
X20725466Y-12807710D02*
X20715942Y-12798186D01*
X20954037Y-12617234D02*
X20973085Y-12617234D01*
X20973085Y-12617234D02*
X20992132Y-12626758D01*
X20992132Y-12626758D02*
X21001656Y-12636281D01*
X21001656Y-12636281D02*
X21011180Y-12655329D01*
X21011180Y-12655329D02*
X21020704Y-12693424D01*
X21020704Y-12693424D02*
X21020704Y-12741043D01*
X21020704Y-12741043D02*
X21011180Y-12779138D01*
X21011180Y-12779138D02*
X21001656Y-12798186D01*
X21001656Y-12798186D02*
X20992132Y-12807710D01*
X20992132Y-12807710D02*
X20973085Y-12817234D01*
X20973085Y-12817234D02*
X20954037Y-12817234D01*
X20954037Y-12817234D02*
X20934989Y-12807710D01*
X20934989Y-12807710D02*
X20925466Y-12798186D01*
X20925466Y-12798186D02*
X20915942Y-12779138D01*
X20915942Y-12779138D02*
X20906418Y-12741043D01*
X20906418Y-12741043D02*
X20906418Y-12693424D01*
X20906418Y-12693424D02*
X20915942Y-12655329D01*
X20915942Y-12655329D02*
X20925466Y-12636281D01*
X20925466Y-12636281D02*
X20934989Y-12626758D01*
X20934989Y-12626758D02*
X20954037Y-12617234D01*
X21096894Y-12617234D02*
X21096894Y-12655329D01*
X21173085Y-12617234D02*
X21173085Y-12655329D01*
X21468323Y-12893424D02*
X21458799Y-12883900D01*
X21458799Y-12883900D02*
X21439751Y-12855329D01*
X21439751Y-12855329D02*
X21430228Y-12836281D01*
X21430228Y-12836281D02*
X21420704Y-12807710D01*
X21420704Y-12807710D02*
X21411180Y-12760091D01*
X21411180Y-12760091D02*
X21411180Y-12721996D01*
X21411180Y-12721996D02*
X21420704Y-12674377D01*
X21420704Y-12674377D02*
X21430228Y-12645805D01*
X21430228Y-12645805D02*
X21439751Y-12626758D01*
X21439751Y-12626758D02*
X21458799Y-12598186D01*
X21458799Y-12598186D02*
X21468323Y-12588662D01*
X21534990Y-12636281D02*
X21544513Y-12626758D01*
X21544513Y-12626758D02*
X21563561Y-12617234D01*
X21563561Y-12617234D02*
X21611180Y-12617234D01*
X21611180Y-12617234D02*
X21630228Y-12626758D01*
X21630228Y-12626758D02*
X21639751Y-12636281D01*
X21639751Y-12636281D02*
X21649275Y-12655329D01*
X21649275Y-12655329D02*
X21649275Y-12674377D01*
X21649275Y-12674377D02*
X21639751Y-12702948D01*
X21639751Y-12702948D02*
X21525466Y-12817234D01*
X21525466Y-12817234D02*
X21649275Y-12817234D01*
X21887371Y-12817234D02*
X21887371Y-12617234D01*
X21973085Y-12817234D02*
X21973085Y-12712472D01*
X21973085Y-12712472D02*
X21963561Y-12693424D01*
X21963561Y-12693424D02*
X21944513Y-12683900D01*
X21944513Y-12683900D02*
X21915942Y-12683900D01*
X21915942Y-12683900D02*
X21896894Y-12693424D01*
X21896894Y-12693424D02*
X21887371Y-12702948D01*
X22096894Y-12817234D02*
X22077847Y-12807710D01*
X22077847Y-12807710D02*
X22068323Y-12798186D01*
X22068323Y-12798186D02*
X22058799Y-12779138D01*
X22058799Y-12779138D02*
X22058799Y-12721996D01*
X22058799Y-12721996D02*
X22068323Y-12702948D01*
X22068323Y-12702948D02*
X22077847Y-12693424D01*
X22077847Y-12693424D02*
X22096894Y-12683900D01*
X22096894Y-12683900D02*
X22125466Y-12683900D01*
X22125466Y-12683900D02*
X22144513Y-12693424D01*
X22144513Y-12693424D02*
X22154037Y-12702948D01*
X22154037Y-12702948D02*
X22163561Y-12721996D01*
X22163561Y-12721996D02*
X22163561Y-12779138D01*
X22163561Y-12779138D02*
X22154037Y-12798186D01*
X22154037Y-12798186D02*
X22144513Y-12807710D01*
X22144513Y-12807710D02*
X22125466Y-12817234D01*
X22125466Y-12817234D02*
X22096894Y-12817234D01*
X22277847Y-12817234D02*
X22258799Y-12807710D01*
X22258799Y-12807710D02*
X22249275Y-12788662D01*
X22249275Y-12788662D02*
X22249275Y-12617234D01*
X22430228Y-12807710D02*
X22411180Y-12817234D01*
X22411180Y-12817234D02*
X22373085Y-12817234D01*
X22373085Y-12817234D02*
X22354037Y-12807710D01*
X22354037Y-12807710D02*
X22344513Y-12788662D01*
X22344513Y-12788662D02*
X22344513Y-12712472D01*
X22344513Y-12712472D02*
X22354037Y-12693424D01*
X22354037Y-12693424D02*
X22373085Y-12683900D01*
X22373085Y-12683900D02*
X22411180Y-12683900D01*
X22411180Y-12683900D02*
X22430228Y-12693424D01*
X22430228Y-12693424D02*
X22439751Y-12712472D01*
X22439751Y-12712472D02*
X22439751Y-12731519D01*
X22439751Y-12731519D02*
X22344513Y-12750567D01*
X22515942Y-12807710D02*
X22534990Y-12817234D01*
X22534990Y-12817234D02*
X22573085Y-12817234D01*
X22573085Y-12817234D02*
X22592132Y-12807710D01*
X22592132Y-12807710D02*
X22601656Y-12788662D01*
X22601656Y-12788662D02*
X22601656Y-12779138D01*
X22601656Y-12779138D02*
X22592132Y-12760091D01*
X22592132Y-12760091D02*
X22573085Y-12750567D01*
X22573085Y-12750567D02*
X22544513Y-12750567D01*
X22544513Y-12750567D02*
X22525466Y-12741043D01*
X22525466Y-12741043D02*
X22515942Y-12721996D01*
X22515942Y-12721996D02*
X22515942Y-12712472D01*
X22515942Y-12712472D02*
X22525466Y-12693424D01*
X22525466Y-12693424D02*
X22544513Y-12683900D01*
X22544513Y-12683900D02*
X22573085Y-12683900D01*
X22573085Y-12683900D02*
X22592132Y-12693424D01*
X22668323Y-12893424D02*
X22677847Y-12883900D01*
X22677847Y-12883900D02*
X22696894Y-12855329D01*
X22696894Y-12855329D02*
X22706418Y-12836281D01*
X22706418Y-12836281D02*
X22715942Y-12807710D01*
X22715942Y-12807710D02*
X22725466Y-12760091D01*
X22725466Y-12760091D02*
X22725466Y-12721996D01*
X22725466Y-12721996D02*
X22715942Y-12674377D01*
X22715942Y-12674377D02*
X22706418Y-12645805D01*
X22706418Y-12645805D02*
X22696894Y-12626758D01*
X22696894Y-12626758D02*
X22677847Y-12598186D01*
X22677847Y-12598186D02*
X22668323Y-12588662D01*
M02*
