M48
; DRILL file KiCad 10.0.6 date 2026-09-25T19:00:29
; FORMAT={-:-/ absolute / metric / decimal}
; #@! TF.CreationDate,2026-09-25T19:00:29+02:00
; #@! TF.GenerationSoftware,Kicad,Pcbnew,10.0.6
; #@! TF.FileFunction,Plated,1,4,PTH
FMAT,2
METRIC
; #@! TA.AperFunction,Plated,PTH,ViaDrill
T1C0.200
; #@! TA.AperFunction,Plated,PTH,ComponentDrill
T2C0.203
; #@! TA.AperFunction,Plated,PTH,ComponentDrill
T3C0.970
; #@! TA.AperFunction,Plated,PTH,ComponentDrill
T4C1.000
; #@! TA.AperFunction,Plated,PTH,ComponentDrill
T5C1.650
%
G90
G05
T1
X179.75Y-74.9
X180.0Y-78.5
X180.0Y-80.5
X180.0Y-82.5
X180.0Y-84.5
X180.0Y-86.5
X180.0Y-88.5
X180.0Y-90.5
X180.0Y-92.5
X180.0Y-94.5
X180.0Y-96.5
X180.0Y-98.5
X180.45Y-74.3
X180.65Y-100.49
X181.15Y-73.7
X181.35Y-94.37
X182.0Y-106.0
X183.5Y-77.5
X183.5Y-95.5
X183.5Y-103.0
X183.5Y-107.5
X183.86Y-60.45
X183.9Y-98.87
X184.0Y-57.5
X184.0Y-80.5
X185.5Y-108.5
X186.0Y-57.5
X186.8Y-70.0
X187.0Y-94.0
X187.07Y-94.5
X187.22Y-93.35
X187.25Y-99.07
X187.5Y-56.0
X187.5Y-97.0
X187.62Y-96.4
X188.05Y-65.3
X188.28Y-96.4
X188.4Y-58.5
X188.5Y-99.188
X188.88Y-96.2
X189.0Y-74.0
X189.1Y-63.6
X189.2Y-71.3
X189.37Y-94.3
X189.4Y-79.2
X189.42Y-94.95
X189.48Y-93.4
X189.75Y-90.0
X189.75Y-91.3
X190.0Y-56.0
X190.0Y-93.0
X190.45Y-89.03
X190.5Y-71.7
X190.73Y-92.6
X190.8Y-73.6
X191.0Y-77.5
X191.05Y-62.8
X191.8Y-72.1
X191.87Y-91.15
X191.96Y-84.45
X192.0Y-85.73
X192.1Y-58.5
X192.55Y-82.2
X192.8Y-73.6
X193.0Y-83.0
X193.1Y-72.5
X193.32Y-88.5
X193.5Y-56.0
X194.25Y-62.1
X194.31Y-89.3
X194.4Y-72.9
X194.53Y-87.6
X194.85Y-73.6
X195.08Y-81.758
X195.211Y-89.334
X195.8Y-58.5
X195.8Y-60.75
X195.81Y-80.35
X195.9Y-77.3
X196.15Y-62.1
X196.15Y-77.87
X196.2Y-76.4
X196.31Y-89.3
X196.68Y-92.8
X196.81Y-74.3
X196.81Y-75.2
X197.0Y-56.0
X197.0Y-73.82
X197.03Y-81.758
X197.3Y-74.82
X197.3Y-80.35
X197.31Y-76.9
X197.34Y-88.1
X197.75Y-62.1
X197.81Y-77.6
X198.0Y-59.0
X198.31Y-89.35
X198.81Y-77.6
X199.0Y-56.0
X199.211Y-89.334
X199.3Y-60.75
X199.3Y-70.42
X199.3Y-74.22
X199.31Y-76.9
X199.5Y-75.22
X199.63Y-82.1
X199.65Y-62.1
X200.0Y-83.5
X200.0Y-86.5
X200.1Y-77.4
X200.25Y-85.8
X200.56Y-94.5
X200.93Y-77.958
X201.0Y-56.0
X201.0Y-80.5
X201.1Y-82.47
X201.17Y-95.6
X201.25Y-62.1
X201.4Y-94.5
X201.7Y-91.3
X201.8Y-92.77
X201.95Y-79.3
X202.0Y-90.0
X202.09Y-89.108
X202.8Y-60.75
X203.0Y-56.0
X203.1Y-99.35
X203.15Y-62.1
X203.2Y-89.25
X203.6Y-84.6
X203.85Y-70.3
X203.9Y-95.6
X203.987Y-94.5
X204.0Y-59.0
X204.0Y-83.9
X204.6Y-99.275
X205.33Y-85.275
X205.39Y-83.35
X205.49Y-60.2
X205.49Y-67.47
X205.5Y-56.0
X205.78Y-87.7
X205.9Y-78.6
X205.933Y-89.685
X206.1Y-91.33
X206.2Y-93.1
X206.3Y-95.05
X206.33Y-97.075
X206.35Y-84.45
X206.45Y-79.6
X206.45Y-85.7
X206.45Y-87.7
X206.5Y-68.5
X206.5Y-71.5
X206.5Y-100.0
X207.0Y-59.5
X207.0Y-65.0
X207.5Y-56.5
X208.48Y-107.2
X209.0Y-108.0
X209.2Y-98.75
X209.5Y-72.5
X209.5Y-77.5
X209.5Y-82.5
X209.5Y-93.0
X209.5Y-98.0
X209.5Y-103.0
X210.0Y-58.0
X210.5Y-106.5
X212.0Y-60.5
X212.0Y-105.0
X212.1Y-95.5
X212.3Y-90.98
X212.3Y-92.98
X213.0Y-91.0
X213.0Y-93.0
X213.0Y-95.0
X213.0Y-97.0
X213.0Y-100.5
X213.0Y-102.5
T2
X194.61Y-84.05
X194.61Y-85.375
X194.61Y-86.675
X194.635Y-82.775
X195.91Y-82.775
X195.91Y-84.075
X195.91Y-85.375
X195.91Y-86.675
X197.21Y-82.775
X197.21Y-84.075
X197.21Y-85.375
X197.21Y-86.675
X198.51Y-82.775
X198.51Y-84.075
X198.51Y-85.375
X198.51Y-86.675
T3
X190.847Y-99.661
X192.117Y-97.121
X193.387Y-99.661
X194.657Y-97.121
X195.927Y-99.661
X197.197Y-97.121
X198.467Y-99.661
X199.737Y-97.121
X201.007Y-99.661
X202.277Y-97.121
T4
X182.59Y-61.12
X182.59Y-61.12
X182.59Y-63.66
X182.59Y-63.66
X182.59Y-66.2
X182.59Y-66.2
X182.59Y-68.74
X182.59Y-68.74
X182.59Y-71.28
X182.59Y-71.28
X182.59Y-73.82
X182.59Y-73.82
X182.59Y-76.36
X182.59Y-76.36
X182.59Y-78.9
X182.59Y-78.9
X182.59Y-81.44
X182.59Y-81.44
X182.59Y-83.98
X182.59Y-83.98
X182.59Y-86.52
X182.59Y-86.52
X182.59Y-89.06
X182.59Y-89.06
X182.59Y-91.6
X182.59Y-91.6
X182.59Y-94.14
X182.59Y-94.14
X182.59Y-96.68
X182.59Y-96.68
X182.59Y-99.22
X182.59Y-99.22
X182.59Y-101.76
X182.59Y-101.76
X182.59Y-104.3
X182.59Y-104.3
X185.13Y-61.12
X185.13Y-61.12
X185.13Y-63.66
X185.13Y-63.66
X185.13Y-66.2
X185.13Y-66.2
X185.13Y-68.74
X185.13Y-68.74
X185.13Y-71.28
X185.13Y-71.28
X185.13Y-73.82
X185.13Y-73.82
X185.13Y-76.36
X185.13Y-76.36
X185.13Y-78.9
X185.13Y-78.9
X185.13Y-81.44
X185.13Y-81.44
X185.13Y-83.98
X185.13Y-83.98
X185.13Y-86.52
X185.13Y-86.52
X185.13Y-89.06
X185.13Y-89.06
X185.13Y-91.6
X185.13Y-91.6
X185.13Y-94.14
X185.13Y-94.14
X185.13Y-96.68
X185.13Y-96.68
X185.13Y-99.22
X185.13Y-99.22
X185.13Y-101.76
X185.13Y-101.76
X185.13Y-104.3
X185.13Y-104.3
X207.99Y-61.12
X207.99Y-61.12
X207.99Y-63.66
X207.99Y-63.66
X207.99Y-66.2
X207.99Y-66.2
X207.99Y-68.74
X207.99Y-68.74
X207.99Y-71.28
X207.99Y-71.28
X207.99Y-73.82
X207.99Y-73.82
X207.99Y-76.36
X207.99Y-76.36
X207.99Y-78.9
X207.99Y-78.9
X207.99Y-81.44
X207.99Y-81.44
X207.99Y-83.98
X207.99Y-83.98
X207.99Y-86.52
X207.99Y-86.52
X207.99Y-89.06
X207.99Y-89.06
X207.99Y-91.6
X207.99Y-91.6
X207.99Y-94.14
X207.99Y-94.14
X207.99Y-96.68
X207.99Y-96.68
X207.99Y-99.22
X207.99Y-99.22
X207.99Y-101.76
X207.99Y-101.76
X207.99Y-104.3
X207.99Y-104.3
X210.53Y-61.12
X210.53Y-61.12
X210.53Y-63.66
X210.53Y-63.66
X210.53Y-66.2
X210.53Y-66.2
X210.53Y-68.74
X210.53Y-68.74
X210.53Y-71.28
X210.53Y-71.28
X210.53Y-73.82
X210.53Y-73.82
X210.53Y-76.36
X210.53Y-76.36
X210.53Y-78.9
X210.53Y-78.9
X210.53Y-81.44
X210.53Y-81.44
X210.53Y-83.98
X210.53Y-83.98
X210.53Y-86.52
X210.53Y-86.52
X210.53Y-89.06
X210.53Y-89.06
X210.53Y-91.6
X210.53Y-91.6
X210.53Y-94.14
X210.53Y-94.14
X210.53Y-96.68
X210.53Y-96.68
X210.53Y-99.22
X210.53Y-99.22
X210.53Y-101.76
X210.53Y-101.76
X210.53Y-104.3
X210.53Y-104.3
T5
X188.817Y-102.971
X204.307Y-102.971
M30
