%TF.GenerationSoftware,KiCad,Pcbnew,10.0.6*%
%TF.CreationDate,2026-09-25T18:43:20+02:00*%
%TF.ProjectId,pocketbeagle2_ethernet_cap,706f636b-6574-4626-9561-676c65325f65,rev?*%
%TF.SameCoordinates,Original*%
%TF.FileFunction,Paste,Top*%
%TF.FilePolarity,Positive*%
%FSLAX46Y46*%
G04 Gerber Fmt 4.6, Leading zero omitted, Abs format (unit mm)*
G04 Created by KiCad (PCBNEW 10.0.6) date 2026-09-25 18:43:20*
%MOMM*%
%LPD*%
G01*
G04 APERTURE LIST*
G04 Aperture macros list*
%AMRoundRect*
0 Rectangle with rounded corners*
0 $1 Rounding radius*
0 $2 $3 $4 $5 $6 $7 $8 $9 X,Y pos of 4 corners*
0 Add a 4 corners polygon primitive as box body*
4,1,4,$2,$3,$4,$5,$6,$7,$8,$9,$2,$3,0*
0 Add four circle primitives for the rounded corners*
1,1,$1+$1,$2,$3*
1,1,$1+$1,$4,$5*
1,1,$1+$1,$6,$7*
1,1,$1+$1,$8,$9*
0 Add four rect primitives between the rounded corners*
20,1,$1+$1,$2,$3,$4,$5,0*
20,1,$1+$1,$4,$5,$6,$7,0*
20,1,$1+$1,$6,$7,$8,$9,0*
20,1,$1+$1,$8,$9,$2,$3,0*%
G04 Aperture macros list end*
%ADD10RoundRect,0.135000X0.135000X0.185000X-0.135000X0.185000X-0.135000X-0.185000X0.135000X-0.185000X0*%
%ADD11RoundRect,0.243750X-0.243750X-0.456250X0.243750X-0.456250X0.243750X0.456250X-0.243750X0.456250X0*%
%ADD12RoundRect,0.140000X-0.140000X-0.170000X0.140000X-0.170000X0.140000X0.170000X-0.140000X0.170000X0*%
%ADD13RoundRect,0.135000X-0.185000X0.135000X-0.185000X-0.135000X0.185000X-0.135000X0.185000X0.135000X0*%
%ADD14RoundRect,0.150000X-0.512500X-0.150000X0.512500X-0.150000X0.512500X0.150000X-0.512500X0.150000X0*%
%ADD15RoundRect,0.140000X0.140000X0.170000X-0.140000X0.170000X-0.140000X-0.170000X0.140000X-0.170000X0*%
%ADD16RoundRect,0.140000X-0.170000X0.140000X-0.170000X-0.140000X0.170000X-0.140000X0.170000X0.140000X0*%
%ADD17RoundRect,0.140000X0.170000X-0.140000X0.170000X0.140000X-0.170000X0.140000X-0.170000X-0.140000X0*%
%ADD18RoundRect,0.281250X-0.593750X0.281250X-0.593750X-0.281250X0.593750X-0.281250X0.593750X0.281250X0*%
%ADD19RoundRect,0.135000X-0.135000X-0.185000X0.135000X-0.185000X0.135000X0.185000X-0.135000X0.185000X0*%
%ADD20RoundRect,0.150000X0.150000X-0.587500X0.150000X0.587500X-0.150000X0.587500X-0.150000X-0.587500X0*%
%ADD21RoundRect,0.287500X-1.062500X0.287500X-1.062500X-0.287500X1.062500X-0.287500X1.062500X0.287500X0*%
%ADD22RoundRect,0.200000X0.200000X0.250000X-0.200000X0.250000X-0.200000X-0.250000X0.200000X-0.250000X0*%
%ADD23RoundRect,0.150000X0.512500X0.150000X-0.512500X0.150000X-0.512500X-0.150000X0.512500X-0.150000X0*%
%ADD24RoundRect,0.135000X0.185000X-0.135000X0.185000X0.135000X-0.185000X0.135000X-0.185000X-0.135000X0*%
%ADD25R,0.299999X1.450000*%
%ADD26R,1.450000X0.299999*%
%ADD27R,4.600001X4.600001*%
G04 APERTURE END LIST*
D10*
X205710000Y-61120000D03*
X204690000Y-61120000D03*
D11*
X191362500Y-57300000D03*
X193237500Y-57300000D03*
D12*
X204520000Y-79900000D03*
X205480000Y-79900000D03*
D13*
X193300000Y-74289999D03*
X193300000Y-75310000D03*
D14*
X203032500Y-75350000D03*
X203032500Y-76300000D03*
X203032500Y-77250000D03*
X205307499Y-77250000D03*
X205307499Y-75350000D03*
D13*
X194300000Y-74289999D03*
X194300000Y-75310000D03*
D15*
X188680001Y-94600000D03*
X187720000Y-94600000D03*
D16*
X180200000Y-97320000D03*
X180200000Y-98280000D03*
D11*
X187662500Y-57300000D03*
X189537500Y-57300000D03*
D16*
X212900000Y-90020000D03*
X212900000Y-90980000D03*
D17*
X198900000Y-76180000D03*
X198900000Y-75220000D03*
D18*
X188500000Y-99437500D03*
X188500000Y-102362500D03*
D12*
X190020000Y-95300000D03*
X190980000Y-95300000D03*
D17*
X202500000Y-99280000D03*
X202500000Y-98320000D03*
D13*
X187400000Y-62090000D03*
X187400000Y-63110000D03*
D12*
X203520000Y-98100000D03*
X204480000Y-98100000D03*
D17*
X205400000Y-98080000D03*
X205400000Y-97120000D03*
D19*
X187490000Y-90000000D03*
X188510000Y-90000000D03*
D10*
X205010000Y-73900000D03*
X203989999Y-73900000D03*
D20*
X201250000Y-63237500D03*
X203150000Y-63237500D03*
X202200000Y-61362500D03*
D16*
X197700000Y-75920001D03*
X197700000Y-76880000D03*
D15*
X204630000Y-88200000D03*
X203670000Y-88200000D03*
D10*
X189410000Y-80200000D03*
X188390000Y-80200000D03*
D12*
X204520000Y-80900000D03*
X205480000Y-80900000D03*
X203920000Y-78900000D03*
X204880000Y-78900000D03*
D21*
X204600000Y-99425000D03*
X204600000Y-102375000D03*
D12*
X187920000Y-95600000D03*
X188880001Y-95600000D03*
D17*
X212900000Y-98180000D03*
X212900000Y-97220000D03*
D12*
X204520000Y-81900000D03*
X205480000Y-81900000D03*
X191120000Y-91900000D03*
X192080000Y-91900000D03*
D22*
X205425000Y-91325000D03*
X205425000Y-89475000D03*
X203975000Y-89475000D03*
X203975000Y-91325000D03*
D12*
X204220000Y-92600000D03*
X205179999Y-92600000D03*
X187920000Y-93400000D03*
X188880000Y-93400000D03*
D19*
X187490000Y-91200000D03*
X188510000Y-91200000D03*
D10*
X205710000Y-84450000D03*
X204690000Y-84450000D03*
D13*
X191300000Y-74289999D03*
X191300000Y-75310000D03*
D10*
X189410000Y-84400000D03*
X188390000Y-84400000D03*
D15*
X201580000Y-74500000D03*
X200620000Y-74500000D03*
D17*
X212900000Y-96180000D03*
X212900000Y-95220000D03*
D19*
X188340000Y-75800000D03*
X189360000Y-75800000D03*
D15*
X201679999Y-77450000D03*
X200720000Y-77450000D03*
D16*
X189900000Y-92120000D03*
X189900000Y-93080000D03*
D12*
X203470000Y-97150000D03*
X204430000Y-97150000D03*
D23*
X204987500Y-95850000D03*
X204987500Y-94900000D03*
X204987500Y-93950000D03*
X202712500Y-93950000D03*
X202712500Y-95850000D03*
D10*
X205710000Y-63660000D03*
X204690000Y-63660000D03*
D24*
X179950000Y-101010000D03*
X179950000Y-99990000D03*
D15*
X188680000Y-92400000D03*
X187720000Y-92400000D03*
D10*
X190810001Y-65300000D03*
X189790000Y-65300000D03*
D25*
X192810000Y-90450000D03*
X193309999Y-90450000D03*
X193810000Y-90450000D03*
X194309999Y-90450000D03*
X194810001Y-90450000D03*
X195310000Y-90450000D03*
X195809999Y-90450000D03*
X196310000Y-90450000D03*
X196810000Y-90450000D03*
X197310001Y-90450000D03*
X197810000Y-90450000D03*
X198309999Y-90450000D03*
X198810001Y-90450000D03*
X199310000Y-90450000D03*
X199810001Y-90450000D03*
X200310000Y-90450000D03*
D26*
X202285000Y-88475000D03*
X202285000Y-87975001D03*
X202285000Y-87475000D03*
X202285000Y-86975001D03*
X202285000Y-86474999D03*
X202285000Y-85975000D03*
X202285000Y-85475001D03*
X202285000Y-84975000D03*
X202285000Y-84475000D03*
X202285000Y-83974999D03*
X202285000Y-83475000D03*
X202285000Y-82975001D03*
X202285000Y-82474999D03*
X202285000Y-81975000D03*
X202285000Y-81474999D03*
X202285000Y-80975000D03*
D25*
X200310000Y-79000000D03*
X199810001Y-79000000D03*
X199310000Y-79000000D03*
X198810001Y-79000000D03*
X198309999Y-79000000D03*
X197810000Y-79000000D03*
X197310001Y-79000000D03*
X196810000Y-79000000D03*
X196310000Y-79000000D03*
X195809999Y-79000000D03*
X195310000Y-79000000D03*
X194810001Y-79000000D03*
X194309999Y-79000000D03*
X193810000Y-79000000D03*
X193309999Y-79000000D03*
X192810000Y-79000000D03*
D26*
X190835000Y-80975000D03*
X190835000Y-81474999D03*
X190835000Y-81975000D03*
X190835000Y-82474999D03*
X190835000Y-82975001D03*
X190835000Y-83475000D03*
X190835000Y-83974999D03*
X190835000Y-84475000D03*
X190835000Y-84975000D03*
X190835000Y-85475001D03*
X190835000Y-85975000D03*
X190835000Y-86474999D03*
X190835000Y-86975001D03*
X190835000Y-87475000D03*
X190835000Y-87975001D03*
X190835000Y-88475000D03*
D27*
X196560000Y-84725000D03*
D12*
X195720000Y-92200000D03*
X196680000Y-92200000D03*
D13*
X190300000Y-74289999D03*
X190300000Y-75310000D03*
D10*
X196510000Y-59300000D03*
X195490000Y-59300000D03*
D16*
X189400000Y-89320000D03*
X189400000Y-90280000D03*
D10*
X205710000Y-70010000D03*
X204690000Y-70010000D03*
X189110000Y-59300000D03*
X188090000Y-59300000D03*
D15*
X201679999Y-76500000D03*
X200720000Y-76500000D03*
D20*
X197750000Y-63237500D03*
X199650000Y-63237500D03*
X198700000Y-61362500D03*
D13*
X195300000Y-74289999D03*
X195300000Y-75310000D03*
D16*
X212900000Y-92020000D03*
X212900000Y-92980000D03*
X212900000Y-101220000D03*
X212900000Y-102179999D03*
D17*
X188900000Y-97480000D03*
X188900000Y-96520000D03*
D19*
X200840000Y-91950000D03*
X201860000Y-91950000D03*
X189790000Y-63900000D03*
X190810000Y-63900000D03*
D10*
X192810000Y-59300000D03*
X191790000Y-59300000D03*
D12*
X203720000Y-85475000D03*
X204680000Y-85475000D03*
D17*
X187400000Y-97680000D03*
X187400000Y-96720000D03*
D20*
X194250000Y-63237500D03*
X196150000Y-63237500D03*
X195200000Y-61362500D03*
D17*
X197600000Y-74980000D03*
X197600000Y-74020000D03*
D16*
X196600000Y-73020000D03*
X196600000Y-73980000D03*
X212900000Y-99220000D03*
X212900000Y-100180000D03*
D13*
X192300000Y-74289999D03*
X192300000Y-75310000D03*
D17*
X201200000Y-93980000D03*
X201200000Y-93020000D03*
D11*
X195062500Y-57300000D03*
X196937500Y-57300000D03*
M02*
