%TF.GenerationSoftware,KiCad,Pcbnew,10.0.6*%
%TF.CreationDate,2026-09-25T18:40:41+02:00*%
%TF.ProjectId,pocketbeagle2_ethernet_cap,706f636b-6574-4626-9561-676c65325f65,rev?*%
%TF.SameCoordinates,Original*%
%TF.FileFunction,Drillmap*%
%TF.FilePolarity,Positive*%
%FSLAX45Y45*%
G04 Gerber Fmt 4.5, Leading zero omitted, Abs format (unit mm)*
G04 Created by KiCad (PCBNEW 10.0.6) date 2026-09-25 18:40:41*
%MOMM*%
%LPD*%
G01*
G04 APERTURE LIST*
%ADD10C,0.050000*%
%ADD11C,0.200000*%
%ADD12C,0.325000*%
G04 APERTURE END LIST*
D10*
X17895760Y-6525000D02*
G75*
G02*
X18920760Y-5500000I1025000J0D01*
G01*
X17895760Y-10002250D02*
X17895760Y-6525000D01*
X18920760Y-5500000D02*
X20400000Y-5500000D01*
X18920760Y-11027250D02*
G75*
G02*
X17895760Y-10002250I0J1025000D01*
G01*
X20400000Y-5500000D02*
G75*
G02*
X21425000Y-6525000I0J-1025000D01*
G01*
X20400000Y-11027250D02*
X18920760Y-11027250D01*
X21425000Y-6525000D02*
X21425000Y-10002250D01*
X21425000Y-10002250D02*
G75*
G02*
X20400000Y-11027250I-1025000J0D01*
G01*
D11*
D12*
X18922181Y-10438631D02*
X19247181Y-10763631D01*
X19247181Y-10438631D02*
X18922181Y-10763631D01*
X20065181Y-10438631D02*
X20390181Y-10763631D01*
X20390181Y-10438631D02*
X20065181Y-10763631D01*
D11*
X18154037Y-11341234D02*
X18154037Y-11141234D01*
X18154037Y-11141234D02*
X18201656Y-11141234D01*
X18201656Y-11141234D02*
X18230227Y-11150758D01*
X18230227Y-11150758D02*
X18249275Y-11169805D01*
X18249275Y-11169805D02*
X18258799Y-11188853D01*
X18258799Y-11188853D02*
X18268323Y-11226948D01*
X18268323Y-11226948D02*
X18268323Y-11255519D01*
X18268323Y-11255519D02*
X18258799Y-11293615D01*
X18258799Y-11293615D02*
X18249275Y-11312662D01*
X18249275Y-11312662D02*
X18230227Y-11331710D01*
X18230227Y-11331710D02*
X18201656Y-11341234D01*
X18201656Y-11341234D02*
X18154037Y-11341234D01*
X18354037Y-11341234D02*
X18354037Y-11207900D01*
X18354037Y-11245996D02*
X18363561Y-11226948D01*
X18363561Y-11226948D02*
X18373084Y-11217424D01*
X18373084Y-11217424D02*
X18392132Y-11207900D01*
X18392132Y-11207900D02*
X18411180Y-11207900D01*
X18477846Y-11341234D02*
X18477846Y-11207900D01*
X18477846Y-11141234D02*
X18468323Y-11150758D01*
X18468323Y-11150758D02*
X18477846Y-11160281D01*
X18477846Y-11160281D02*
X18487370Y-11150758D01*
X18487370Y-11150758D02*
X18477846Y-11141234D01*
X18477846Y-11141234D02*
X18477846Y-11160281D01*
X18601656Y-11341234D02*
X18582608Y-11331710D01*
X18582608Y-11331710D02*
X18573084Y-11312662D01*
X18573084Y-11312662D02*
X18573084Y-11141234D01*
X18706418Y-11341234D02*
X18687370Y-11331710D01*
X18687370Y-11331710D02*
X18677846Y-11312662D01*
X18677846Y-11312662D02*
X18677846Y-11141234D01*
X18934989Y-11341234D02*
X18934989Y-11141234D01*
X18934989Y-11141234D02*
X19001656Y-11284091D01*
X19001656Y-11284091D02*
X19068323Y-11141234D01*
X19068323Y-11141234D02*
X19068323Y-11341234D01*
X19249275Y-11341234D02*
X19249275Y-11236472D01*
X19249275Y-11236472D02*
X19239751Y-11217424D01*
X19239751Y-11217424D02*
X19220704Y-11207900D01*
X19220704Y-11207900D02*
X19182608Y-11207900D01*
X19182608Y-11207900D02*
X19163561Y-11217424D01*
X19249275Y-11331710D02*
X19230227Y-11341234D01*
X19230227Y-11341234D02*
X19182608Y-11341234D01*
X19182608Y-11341234D02*
X19163561Y-11331710D01*
X19163561Y-11331710D02*
X19154037Y-11312662D01*
X19154037Y-11312662D02*
X19154037Y-11293615D01*
X19154037Y-11293615D02*
X19163561Y-11274567D01*
X19163561Y-11274567D02*
X19182608Y-11265043D01*
X19182608Y-11265043D02*
X19230227Y-11265043D01*
X19230227Y-11265043D02*
X19249275Y-11255519D01*
X19344513Y-11207900D02*
X19344513Y-11407900D01*
X19344513Y-11217424D02*
X19363561Y-11207900D01*
X19363561Y-11207900D02*
X19401656Y-11207900D01*
X19401656Y-11207900D02*
X19420704Y-11217424D01*
X19420704Y-11217424D02*
X19430227Y-11226948D01*
X19430227Y-11226948D02*
X19439751Y-11245996D01*
X19439751Y-11245996D02*
X19439751Y-11303138D01*
X19439751Y-11303138D02*
X19430227Y-11322186D01*
X19430227Y-11322186D02*
X19420704Y-11331710D01*
X19420704Y-11331710D02*
X19401656Y-11341234D01*
X19401656Y-11341234D02*
X19363561Y-11341234D01*
X19363561Y-11341234D02*
X19344513Y-11331710D01*
X19525465Y-11322186D02*
X19534989Y-11331710D01*
X19534989Y-11331710D02*
X19525465Y-11341234D01*
X19525465Y-11341234D02*
X19515942Y-11331710D01*
X19515942Y-11331710D02*
X19525465Y-11322186D01*
X19525465Y-11322186D02*
X19525465Y-11341234D01*
X19525465Y-11217424D02*
X19534989Y-11226948D01*
X19534989Y-11226948D02*
X19525465Y-11236472D01*
X19525465Y-11236472D02*
X19515942Y-11226948D01*
X19515942Y-11226948D02*
X19525465Y-11217424D01*
X19525465Y-11217424D02*
X19525465Y-11236472D01*
X17693260Y-11569750D02*
X17893260Y-11769750D01*
X17893260Y-11569750D02*
X17693260Y-11769750D01*
X18134989Y-11561234D02*
X18258799Y-11561234D01*
X18258799Y-11561234D02*
X18192132Y-11637424D01*
X18192132Y-11637424D02*
X18220704Y-11637424D01*
X18220704Y-11637424D02*
X18239751Y-11646948D01*
X18239751Y-11646948D02*
X18249275Y-11656472D01*
X18249275Y-11656472D02*
X18258799Y-11675519D01*
X18258799Y-11675519D02*
X18258799Y-11723138D01*
X18258799Y-11723138D02*
X18249275Y-11742186D01*
X18249275Y-11742186D02*
X18239751Y-11751710D01*
X18239751Y-11751710D02*
X18220704Y-11761234D01*
X18220704Y-11761234D02*
X18163561Y-11761234D01*
X18163561Y-11761234D02*
X18144513Y-11751710D01*
X18144513Y-11751710D02*
X18134989Y-11742186D01*
X18344513Y-11742186D02*
X18354037Y-11751710D01*
X18354037Y-11751710D02*
X18344513Y-11761234D01*
X18344513Y-11761234D02*
X18334989Y-11751710D01*
X18334989Y-11751710D02*
X18344513Y-11742186D01*
X18344513Y-11742186D02*
X18344513Y-11761234D01*
X18430227Y-11580281D02*
X18439751Y-11570758D01*
X18439751Y-11570758D02*
X18458799Y-11561234D01*
X18458799Y-11561234D02*
X18506418Y-11561234D01*
X18506418Y-11561234D02*
X18525465Y-11570758D01*
X18525465Y-11570758D02*
X18534989Y-11580281D01*
X18534989Y-11580281D02*
X18544513Y-11599329D01*
X18544513Y-11599329D02*
X18544513Y-11618377D01*
X18544513Y-11618377D02*
X18534989Y-11646948D01*
X18534989Y-11646948D02*
X18420704Y-11761234D01*
X18420704Y-11761234D02*
X18544513Y-11761234D01*
X18725465Y-11561234D02*
X18630227Y-11561234D01*
X18630227Y-11561234D02*
X18620704Y-11656472D01*
X18620704Y-11656472D02*
X18630227Y-11646948D01*
X18630227Y-11646948D02*
X18649275Y-11637424D01*
X18649275Y-11637424D02*
X18696894Y-11637424D01*
X18696894Y-11637424D02*
X18715942Y-11646948D01*
X18715942Y-11646948D02*
X18725465Y-11656472D01*
X18725465Y-11656472D02*
X18734989Y-11675519D01*
X18734989Y-11675519D02*
X18734989Y-11723138D01*
X18734989Y-11723138D02*
X18725465Y-11742186D01*
X18725465Y-11742186D02*
X18715942Y-11751710D01*
X18715942Y-11751710D02*
X18696894Y-11761234D01*
X18696894Y-11761234D02*
X18649275Y-11761234D01*
X18649275Y-11761234D02*
X18630227Y-11751710D01*
X18630227Y-11751710D02*
X18620704Y-11742186D01*
X18858799Y-11561234D02*
X18877846Y-11561234D01*
X18877846Y-11561234D02*
X18896894Y-11570758D01*
X18896894Y-11570758D02*
X18906418Y-11580281D01*
X18906418Y-11580281D02*
X18915942Y-11599329D01*
X18915942Y-11599329D02*
X18925465Y-11637424D01*
X18925465Y-11637424D02*
X18925465Y-11685043D01*
X18925465Y-11685043D02*
X18915942Y-11723138D01*
X18915942Y-11723138D02*
X18906418Y-11742186D01*
X18906418Y-11742186D02*
X18896894Y-11751710D01*
X18896894Y-11751710D02*
X18877846Y-11761234D01*
X18877846Y-11761234D02*
X18858799Y-11761234D01*
X18858799Y-11761234D02*
X18839751Y-11751710D01*
X18839751Y-11751710D02*
X18830227Y-11742186D01*
X18830227Y-11742186D02*
X18820704Y-11723138D01*
X18820704Y-11723138D02*
X18811180Y-11685043D01*
X18811180Y-11685043D02*
X18811180Y-11637424D01*
X18811180Y-11637424D02*
X18820704Y-11599329D01*
X18820704Y-11599329D02*
X18830227Y-11580281D01*
X18830227Y-11580281D02*
X18839751Y-11570758D01*
X18839751Y-11570758D02*
X18858799Y-11561234D01*
X19011180Y-11761234D02*
X19011180Y-11627900D01*
X19011180Y-11646948D02*
X19020704Y-11637424D01*
X19020704Y-11637424D02*
X19039751Y-11627900D01*
X19039751Y-11627900D02*
X19068323Y-11627900D01*
X19068323Y-11627900D02*
X19087370Y-11637424D01*
X19087370Y-11637424D02*
X19096894Y-11656472D01*
X19096894Y-11656472D02*
X19096894Y-11761234D01*
X19096894Y-11656472D02*
X19106418Y-11637424D01*
X19106418Y-11637424D02*
X19125465Y-11627900D01*
X19125465Y-11627900D02*
X19154037Y-11627900D01*
X19154037Y-11627900D02*
X19173085Y-11637424D01*
X19173085Y-11637424D02*
X19182608Y-11656472D01*
X19182608Y-11656472D02*
X19182608Y-11761234D01*
X19277846Y-11761234D02*
X19277846Y-11627900D01*
X19277846Y-11646948D02*
X19287370Y-11637424D01*
X19287370Y-11637424D02*
X19306418Y-11627900D01*
X19306418Y-11627900D02*
X19334989Y-11627900D01*
X19334989Y-11627900D02*
X19354037Y-11637424D01*
X19354037Y-11637424D02*
X19363561Y-11656472D01*
X19363561Y-11656472D02*
X19363561Y-11761234D01*
X19363561Y-11656472D02*
X19373085Y-11637424D01*
X19373085Y-11637424D02*
X19392132Y-11627900D01*
X19392132Y-11627900D02*
X19420704Y-11627900D01*
X19420704Y-11627900D02*
X19439751Y-11637424D01*
X19439751Y-11637424D02*
X19449275Y-11656472D01*
X19449275Y-11656472D02*
X19449275Y-11761234D01*
X19839751Y-11551710D02*
X19668323Y-11808853D01*
X20096894Y-11561234D02*
X20115942Y-11561234D01*
X20115942Y-11561234D02*
X20134989Y-11570758D01*
X20134989Y-11570758D02*
X20144513Y-11580281D01*
X20144513Y-11580281D02*
X20154037Y-11599329D01*
X20154037Y-11599329D02*
X20163561Y-11637424D01*
X20163561Y-11637424D02*
X20163561Y-11685043D01*
X20163561Y-11685043D02*
X20154037Y-11723138D01*
X20154037Y-11723138D02*
X20144513Y-11742186D01*
X20144513Y-11742186D02*
X20134989Y-11751710D01*
X20134989Y-11751710D02*
X20115942Y-11761234D01*
X20115942Y-11761234D02*
X20096894Y-11761234D01*
X20096894Y-11761234D02*
X20077847Y-11751710D01*
X20077847Y-11751710D02*
X20068323Y-11742186D01*
X20068323Y-11742186D02*
X20058799Y-11723138D01*
X20058799Y-11723138D02*
X20049275Y-11685043D01*
X20049275Y-11685043D02*
X20049275Y-11637424D01*
X20049275Y-11637424D02*
X20058799Y-11599329D01*
X20058799Y-11599329D02*
X20068323Y-11580281D01*
X20068323Y-11580281D02*
X20077847Y-11570758D01*
X20077847Y-11570758D02*
X20096894Y-11561234D01*
X20249275Y-11742186D02*
X20258799Y-11751710D01*
X20258799Y-11751710D02*
X20249275Y-11761234D01*
X20249275Y-11761234D02*
X20239751Y-11751710D01*
X20239751Y-11751710D02*
X20249275Y-11742186D01*
X20249275Y-11742186D02*
X20249275Y-11761234D01*
X20449275Y-11761234D02*
X20334989Y-11761234D01*
X20392132Y-11761234D02*
X20392132Y-11561234D01*
X20392132Y-11561234D02*
X20373085Y-11589805D01*
X20373085Y-11589805D02*
X20354037Y-11608853D01*
X20354037Y-11608853D02*
X20334989Y-11618377D01*
X20525466Y-11580281D02*
X20534989Y-11570758D01*
X20534989Y-11570758D02*
X20554037Y-11561234D01*
X20554037Y-11561234D02*
X20601656Y-11561234D01*
X20601656Y-11561234D02*
X20620704Y-11570758D01*
X20620704Y-11570758D02*
X20630228Y-11580281D01*
X20630228Y-11580281D02*
X20639751Y-11599329D01*
X20639751Y-11599329D02*
X20639751Y-11618377D01*
X20639751Y-11618377D02*
X20630228Y-11646948D01*
X20630228Y-11646948D02*
X20515942Y-11761234D01*
X20515942Y-11761234D02*
X20639751Y-11761234D01*
X20754037Y-11646948D02*
X20734989Y-11637424D01*
X20734989Y-11637424D02*
X20725466Y-11627900D01*
X20725466Y-11627900D02*
X20715942Y-11608853D01*
X20715942Y-11608853D02*
X20715942Y-11599329D01*
X20715942Y-11599329D02*
X20725466Y-11580281D01*
X20725466Y-11580281D02*
X20734989Y-11570758D01*
X20734989Y-11570758D02*
X20754037Y-11561234D01*
X20754037Y-11561234D02*
X20792132Y-11561234D01*
X20792132Y-11561234D02*
X20811180Y-11570758D01*
X20811180Y-11570758D02*
X20820704Y-11580281D01*
X20820704Y-11580281D02*
X20830228Y-11599329D01*
X20830228Y-11599329D02*
X20830228Y-11608853D01*
X20830228Y-11608853D02*
X20820704Y-11627900D01*
X20820704Y-11627900D02*
X20811180Y-11637424D01*
X20811180Y-11637424D02*
X20792132Y-11646948D01*
X20792132Y-11646948D02*
X20754037Y-11646948D01*
X20754037Y-11646948D02*
X20734989Y-11656472D01*
X20734989Y-11656472D02*
X20725466Y-11665996D01*
X20725466Y-11665996D02*
X20715942Y-11685043D01*
X20715942Y-11685043D02*
X20715942Y-11723138D01*
X20715942Y-11723138D02*
X20725466Y-11742186D01*
X20725466Y-11742186D02*
X20734989Y-11751710D01*
X20734989Y-11751710D02*
X20754037Y-11761234D01*
X20754037Y-11761234D02*
X20792132Y-11761234D01*
X20792132Y-11761234D02*
X20811180Y-11751710D01*
X20811180Y-11751710D02*
X20820704Y-11742186D01*
X20820704Y-11742186D02*
X20830228Y-11723138D01*
X20830228Y-11723138D02*
X20830228Y-11685043D01*
X20830228Y-11685043D02*
X20820704Y-11665996D01*
X20820704Y-11665996D02*
X20811180Y-11656472D01*
X20811180Y-11656472D02*
X20792132Y-11646948D01*
X20954037Y-11561234D02*
X20973085Y-11561234D01*
X20973085Y-11561234D02*
X20992132Y-11570758D01*
X20992132Y-11570758D02*
X21001656Y-11580281D01*
X21001656Y-11580281D02*
X21011180Y-11599329D01*
X21011180Y-11599329D02*
X21020704Y-11637424D01*
X21020704Y-11637424D02*
X21020704Y-11685043D01*
X21020704Y-11685043D02*
X21011180Y-11723138D01*
X21011180Y-11723138D02*
X21001656Y-11742186D01*
X21001656Y-11742186D02*
X20992132Y-11751710D01*
X20992132Y-11751710D02*
X20973085Y-11761234D01*
X20973085Y-11761234D02*
X20954037Y-11761234D01*
X20954037Y-11761234D02*
X20934989Y-11751710D01*
X20934989Y-11751710D02*
X20925466Y-11742186D01*
X20925466Y-11742186D02*
X20915942Y-11723138D01*
X20915942Y-11723138D02*
X20906418Y-11685043D01*
X20906418Y-11685043D02*
X20906418Y-11637424D01*
X20906418Y-11637424D02*
X20915942Y-11599329D01*
X20915942Y-11599329D02*
X20925466Y-11580281D01*
X20925466Y-11580281D02*
X20934989Y-11570758D01*
X20934989Y-11570758D02*
X20954037Y-11561234D01*
X21096894Y-11561234D02*
X21096894Y-11599329D01*
X21173085Y-11561234D02*
X21173085Y-11599329D01*
X21468323Y-11837424D02*
X21458799Y-11827900D01*
X21458799Y-11827900D02*
X21439751Y-11799329D01*
X21439751Y-11799329D02*
X21430228Y-11780281D01*
X21430228Y-11780281D02*
X21420704Y-11751710D01*
X21420704Y-11751710D02*
X21411180Y-11704091D01*
X21411180Y-11704091D02*
X21411180Y-11665996D01*
X21411180Y-11665996D02*
X21420704Y-11618377D01*
X21420704Y-11618377D02*
X21430228Y-11589805D01*
X21430228Y-11589805D02*
X21439751Y-11570758D01*
X21439751Y-11570758D02*
X21458799Y-11542186D01*
X21458799Y-11542186D02*
X21468323Y-11532662D01*
X21534990Y-11580281D02*
X21544513Y-11570758D01*
X21544513Y-11570758D02*
X21563561Y-11561234D01*
X21563561Y-11561234D02*
X21611180Y-11561234D01*
X21611180Y-11561234D02*
X21630228Y-11570758D01*
X21630228Y-11570758D02*
X21639751Y-11580281D01*
X21639751Y-11580281D02*
X21649275Y-11599329D01*
X21649275Y-11599329D02*
X21649275Y-11618377D01*
X21649275Y-11618377D02*
X21639751Y-11646948D01*
X21639751Y-11646948D02*
X21525466Y-11761234D01*
X21525466Y-11761234D02*
X21649275Y-11761234D01*
X21887371Y-11761234D02*
X21887371Y-11561234D01*
X21973085Y-11761234D02*
X21973085Y-11656472D01*
X21973085Y-11656472D02*
X21963561Y-11637424D01*
X21963561Y-11637424D02*
X21944513Y-11627900D01*
X21944513Y-11627900D02*
X21915942Y-11627900D01*
X21915942Y-11627900D02*
X21896894Y-11637424D01*
X21896894Y-11637424D02*
X21887371Y-11646948D01*
X22096894Y-11761234D02*
X22077847Y-11751710D01*
X22077847Y-11751710D02*
X22068323Y-11742186D01*
X22068323Y-11742186D02*
X22058799Y-11723138D01*
X22058799Y-11723138D02*
X22058799Y-11665996D01*
X22058799Y-11665996D02*
X22068323Y-11646948D01*
X22068323Y-11646948D02*
X22077847Y-11637424D01*
X22077847Y-11637424D02*
X22096894Y-11627900D01*
X22096894Y-11627900D02*
X22125466Y-11627900D01*
X22125466Y-11627900D02*
X22144513Y-11637424D01*
X22144513Y-11637424D02*
X22154037Y-11646948D01*
X22154037Y-11646948D02*
X22163561Y-11665996D01*
X22163561Y-11665996D02*
X22163561Y-11723138D01*
X22163561Y-11723138D02*
X22154037Y-11742186D01*
X22154037Y-11742186D02*
X22144513Y-11751710D01*
X22144513Y-11751710D02*
X22125466Y-11761234D01*
X22125466Y-11761234D02*
X22096894Y-11761234D01*
X22277847Y-11761234D02*
X22258799Y-11751710D01*
X22258799Y-11751710D02*
X22249275Y-11732662D01*
X22249275Y-11732662D02*
X22249275Y-11561234D01*
X22430228Y-11751710D02*
X22411180Y-11761234D01*
X22411180Y-11761234D02*
X22373085Y-11761234D01*
X22373085Y-11761234D02*
X22354037Y-11751710D01*
X22354037Y-11751710D02*
X22344513Y-11732662D01*
X22344513Y-11732662D02*
X22344513Y-11656472D01*
X22344513Y-11656472D02*
X22354037Y-11637424D01*
X22354037Y-11637424D02*
X22373085Y-11627900D01*
X22373085Y-11627900D02*
X22411180Y-11627900D01*
X22411180Y-11627900D02*
X22430228Y-11637424D01*
X22430228Y-11637424D02*
X22439751Y-11656472D01*
X22439751Y-11656472D02*
X22439751Y-11675519D01*
X22439751Y-11675519D02*
X22344513Y-11694567D01*
X22515942Y-11751710D02*
X22534990Y-11761234D01*
X22534990Y-11761234D02*
X22573085Y-11761234D01*
X22573085Y-11761234D02*
X22592132Y-11751710D01*
X22592132Y-11751710D02*
X22601656Y-11732662D01*
X22601656Y-11732662D02*
X22601656Y-11723138D01*
X22601656Y-11723138D02*
X22592132Y-11704091D01*
X22592132Y-11704091D02*
X22573085Y-11694567D01*
X22573085Y-11694567D02*
X22544513Y-11694567D01*
X22544513Y-11694567D02*
X22525466Y-11685043D01*
X22525466Y-11685043D02*
X22515942Y-11665996D01*
X22515942Y-11665996D02*
X22515942Y-11656472D01*
X22515942Y-11656472D02*
X22525466Y-11637424D01*
X22525466Y-11637424D02*
X22544513Y-11627900D01*
X22544513Y-11627900D02*
X22573085Y-11627900D01*
X22573085Y-11627900D02*
X22592132Y-11637424D01*
X22668323Y-11837424D02*
X22677847Y-11827900D01*
X22677847Y-11827900D02*
X22696894Y-11799329D01*
X22696894Y-11799329D02*
X22706418Y-11780281D01*
X22706418Y-11780281D02*
X22715942Y-11751710D01*
X22715942Y-11751710D02*
X22725466Y-11704091D01*
X22725466Y-11704091D02*
X22725466Y-11665996D01*
X22725466Y-11665996D02*
X22715942Y-11618377D01*
X22715942Y-11618377D02*
X22706418Y-11589805D01*
X22706418Y-11589805D02*
X22696894Y-11570758D01*
X22696894Y-11570758D02*
X22677847Y-11542186D01*
X22677847Y-11542186D02*
X22668323Y-11532662D01*
X23030228Y-11837424D02*
X23020704Y-11827900D01*
X23020704Y-11827900D02*
X23001656Y-11799329D01*
X23001656Y-11799329D02*
X22992132Y-11780281D01*
X22992132Y-11780281D02*
X22982609Y-11751710D01*
X22982609Y-11751710D02*
X22973085Y-11704091D01*
X22973085Y-11704091D02*
X22973085Y-11665996D01*
X22973085Y-11665996D02*
X22982609Y-11618377D01*
X22982609Y-11618377D02*
X22992132Y-11589805D01*
X22992132Y-11589805D02*
X23001656Y-11570758D01*
X23001656Y-11570758D02*
X23020704Y-11542186D01*
X23020704Y-11542186D02*
X23030228Y-11532662D01*
X23106418Y-11627900D02*
X23106418Y-11761234D01*
X23106418Y-11646948D02*
X23115942Y-11637424D01*
X23115942Y-11637424D02*
X23134990Y-11627900D01*
X23134990Y-11627900D02*
X23163561Y-11627900D01*
X23163561Y-11627900D02*
X23182609Y-11637424D01*
X23182609Y-11637424D02*
X23192132Y-11656472D01*
X23192132Y-11656472D02*
X23192132Y-11761234D01*
X23315942Y-11761234D02*
X23296894Y-11751710D01*
X23296894Y-11751710D02*
X23287371Y-11742186D01*
X23287371Y-11742186D02*
X23277847Y-11723138D01*
X23277847Y-11723138D02*
X23277847Y-11665996D01*
X23277847Y-11665996D02*
X23287371Y-11646948D01*
X23287371Y-11646948D02*
X23296894Y-11637424D01*
X23296894Y-11637424D02*
X23315942Y-11627900D01*
X23315942Y-11627900D02*
X23344513Y-11627900D01*
X23344513Y-11627900D02*
X23363561Y-11637424D01*
X23363561Y-11637424D02*
X23373085Y-11646948D01*
X23373085Y-11646948D02*
X23382609Y-11665996D01*
X23382609Y-11665996D02*
X23382609Y-11723138D01*
X23382609Y-11723138D02*
X23373085Y-11742186D01*
X23373085Y-11742186D02*
X23363561Y-11751710D01*
X23363561Y-11751710D02*
X23344513Y-11761234D01*
X23344513Y-11761234D02*
X23315942Y-11761234D01*
X23439752Y-11627900D02*
X23515942Y-11627900D01*
X23468323Y-11561234D02*
X23468323Y-11732662D01*
X23468323Y-11732662D02*
X23477847Y-11751710D01*
X23477847Y-11751710D02*
X23496894Y-11761234D01*
X23496894Y-11761234D02*
X23515942Y-11761234D01*
X23734990Y-11627900D02*
X23734990Y-11827900D01*
X23734990Y-11637424D02*
X23754037Y-11627900D01*
X23754037Y-11627900D02*
X23792133Y-11627900D01*
X23792133Y-11627900D02*
X23811180Y-11637424D01*
X23811180Y-11637424D02*
X23820704Y-11646948D01*
X23820704Y-11646948D02*
X23830228Y-11665996D01*
X23830228Y-11665996D02*
X23830228Y-11723138D01*
X23830228Y-11723138D02*
X23820704Y-11742186D01*
X23820704Y-11742186D02*
X23811180Y-11751710D01*
X23811180Y-11751710D02*
X23792133Y-11761234D01*
X23792133Y-11761234D02*
X23754037Y-11761234D01*
X23754037Y-11761234D02*
X23734990Y-11751710D01*
X23944513Y-11761234D02*
X23925466Y-11751710D01*
X23925466Y-11751710D02*
X23915942Y-11732662D01*
X23915942Y-11732662D02*
X23915942Y-11561234D01*
X24106418Y-11761234D02*
X24106418Y-11656472D01*
X24106418Y-11656472D02*
X24096894Y-11637424D01*
X24096894Y-11637424D02*
X24077847Y-11627900D01*
X24077847Y-11627900D02*
X24039752Y-11627900D01*
X24039752Y-11627900D02*
X24020704Y-11637424D01*
X24106418Y-11751710D02*
X24087371Y-11761234D01*
X24087371Y-11761234D02*
X24039752Y-11761234D01*
X24039752Y-11761234D02*
X24020704Y-11751710D01*
X24020704Y-11751710D02*
X24011180Y-11732662D01*
X24011180Y-11732662D02*
X24011180Y-11713615D01*
X24011180Y-11713615D02*
X24020704Y-11694567D01*
X24020704Y-11694567D02*
X24039752Y-11685043D01*
X24039752Y-11685043D02*
X24087371Y-11685043D01*
X24087371Y-11685043D02*
X24106418Y-11675519D01*
X24173085Y-11627900D02*
X24249275Y-11627900D01*
X24201656Y-11561234D02*
X24201656Y-11732662D01*
X24201656Y-11732662D02*
X24211180Y-11751710D01*
X24211180Y-11751710D02*
X24230228Y-11761234D01*
X24230228Y-11761234D02*
X24249275Y-11761234D01*
X24392133Y-11751710D02*
X24373085Y-11761234D01*
X24373085Y-11761234D02*
X24334990Y-11761234D01*
X24334990Y-11761234D02*
X24315942Y-11751710D01*
X24315942Y-11751710D02*
X24306418Y-11732662D01*
X24306418Y-11732662D02*
X24306418Y-11656472D01*
X24306418Y-11656472D02*
X24315942Y-11637424D01*
X24315942Y-11637424D02*
X24334990Y-11627900D01*
X24334990Y-11627900D02*
X24373085Y-11627900D01*
X24373085Y-11627900D02*
X24392133Y-11637424D01*
X24392133Y-11637424D02*
X24401656Y-11656472D01*
X24401656Y-11656472D02*
X24401656Y-11675519D01*
X24401656Y-11675519D02*
X24306418Y-11694567D01*
X24573085Y-11761234D02*
X24573085Y-11561234D01*
X24573085Y-11751710D02*
X24554037Y-11761234D01*
X24554037Y-11761234D02*
X24515942Y-11761234D01*
X24515942Y-11761234D02*
X24496894Y-11751710D01*
X24496894Y-11751710D02*
X24487371Y-11742186D01*
X24487371Y-11742186D02*
X24477847Y-11723138D01*
X24477847Y-11723138D02*
X24477847Y-11665996D01*
X24477847Y-11665996D02*
X24487371Y-11646948D01*
X24487371Y-11646948D02*
X24496894Y-11637424D01*
X24496894Y-11637424D02*
X24515942Y-11627900D01*
X24515942Y-11627900D02*
X24554037Y-11627900D01*
X24554037Y-11627900D02*
X24573085Y-11637424D01*
X24649275Y-11837424D02*
X24658799Y-11827900D01*
X24658799Y-11827900D02*
X24677847Y-11799329D01*
X24677847Y-11799329D02*
X24687371Y-11780281D01*
X24687371Y-11780281D02*
X24696894Y-11751710D01*
X24696894Y-11751710D02*
X24706418Y-11704091D01*
X24706418Y-11704091D02*
X24706418Y-11665996D01*
X24706418Y-11665996D02*
X24696894Y-11618377D01*
X24696894Y-11618377D02*
X24687371Y-11589805D01*
X24687371Y-11589805D02*
X24677847Y-11570758D01*
X24677847Y-11570758D02*
X24658799Y-11542186D01*
X24658799Y-11542186D02*
X24649275Y-11532662D01*
M02*
